{
.appVersion = "3151";
.formatVersion = 3;
customParameters = (
{
name = vendorID;
value = "1BOU";
},
{
name = panose;
value = (
0,
0,
0,
0,
0,
0,
0,
0,
0,
0
);
},
{
name = unicodeRanges;
value = (
0,
1,
2,
3,
5,
6,
13,
24,
29,
31,
32,
33,
35,
36,
37,
38,
45,
60,
63,
67
);
},
{
name = codePageRanges;
value = (
"1252",
"1258"
);
},
{
name = fsType;
value = (
);
},
{
name = glyphOrder;
value = (
.notdef,
space,
exclam,
quotedbl,
numbersign,
dollar,
percent,
ampersand,
quotesingle,
parenleft,
parenright,
asterisk,
plus,
comma,
hyphen,
period,
slash,
zero,
one,
two,
three,
four,
five,
six,
seven,
eight,
nine,
colon,
semicolon,
less,
equal,
greater,
question,
at,
A,
B,
C,
D,
E,
F,
G,
H,
I,
J,
K,
L,
M,
N,
O,
P,
Q,
R,
S,
T,
U,
V,
W,
X,
Y,
Z,
bracketleft,
backslash,
bracketright,
asciicircum,
underscore,
grave,
a,
b,
c,
d,
e,
f,
g,
h,
i,
j,
k,
l,
m,
n,
o,
p,
q,
r,
s,
t,
u,
v,
w,
x,
y,
z,
braceleft,
bar,
braceright,
asciitilde,
uni00A0,
exclamdown,
cent,
sterling,
currency,
yen,
brokenbar,
section,
dieresis,
copyright,
ordfeminine,
guillemotleft,
logicalnot,
uni00AD,
registered,
macron,
degree,
plusminus,
twosuperior,
threesuperior,
acute,
paragraph,
periodcentered,
cedilla,
onesuperior,
ordmasculine,
guillemotright,
onequarter,
onehalf,
threequarters,
questiondown,
Agrave,
Aacute,
Acircumflex,
Atilde,
Adieresis,
Aring,
AE,
Ccedilla,
Egrave,
Eacute,
Ecircumflex,
Edieresis,
Igrave,
Iacute,
Icircumflex,
Idieresis,
Eth,
Ntilde,
Ograve,
Oacute,
Ocircumflex,
Otilde,
Odieresis,
multiply,
Oslash,
Ugrave,
Uacute,
Ucircumflex,
Udieresis,
Yacute,
Thorn,
germandbls,
agrave,
aacute,
acircumflex,
atilde,
adieresis,
aring,
ae,
ccedilla,
egrave,
eacute,
ecircumflex,
edieresis,
igrave,
iacute,
icircumflex,
idieresis,
eth,
ntilde,
ograve,
oacute,
ocircumflex,
otilde,
odieresis,
divide,
oslash,
ugrave,
uacute,
ucircumflex,
udieresis,
yacute,
thorn,
ydieresis,
Amacron,
amacron,
Abreve,
abreve,
Aogonek,
aogonek,
Cacute,
cacute,
Ccircumflex,
ccircumflex,
Cdotaccent,
cdotaccent,
Ccaron,
ccaron,

glyphs = (
{
glyphname = .notdef;
layers = (
{
layerId = m01;
shapes = (
{
closed = 1;
nodes = (
(165,684,l),
(165,-121,l),
(315,-121,l),
(315,684,l)
);
},
{
closed = 1;
nodes = (
(399,-200,l),
(81,-200,l),
(81,763,l),
(399,763,l)
);
}
);
width = 480;
}
);
note = ".notdef";
},
{
glyphname = exclam;
kernLeft = exclam;
layers = (
{
layerId = m01;
shapes = (
{
closed = 1;
nodes = (
(232,293,ls),
(230,239,o),
(204,209,o),
(161,209,cs),
(117,209,o),
(92,239,o),
(89,293,cs),
(80,535,ls),
(80,587,o),
(104,631,o),
(161,631,cs),
(211,631,o),
(242,595,o),
(242,538,cs)
);
},
{
closed = 1;
nodes = (
(212,163,o),
(247,128,o),
(247,76,cs),
(247,24,o),
(212,-11,o),
(160,-11,cs),
(108,-11,o),
(73,24,o),
(73,76,cs),
(73,128,o),
(108,163,o),
(160,163,cs)
);
}
);
width = 322;
}
);
note = exclam;
unicode = 33;
},
{
glyphname = quotedbl;
kernLeft = quotedbl;
kernRight = quotedbl;
layers = (
{
layerId = m01;
shapes = (
{
closed = 1;
nodes = (
(35,574,o),
(64,607,o),
(111,607,cs),
(165,607,o),
(186,566,o),
(186,518,c),
(179,381,ls),
(176,330,o),
(152,302,o),
(111,302,cs),
(69,302,o),
(45,330,o),
(42,381,cs),
(35,520,l)
);
},
{
closed = 1;
nodes = (
(372,381,ls),
(369,330,o),
(345,302,o),
(303,302,cs),
(262,302,o),
(238,330,o),
(235,381,cs),
(228,520,l),
(228,574,o),
(257,607,o),
(304,607,cs),
(350,607,o),
(379,574,o),
(379,520,c)
);
}
);
width = 414;
}
);
note = quotedbl;
unicode = 34;
},
{
glyphname = numbersign;
layers = (
{
layerId = m01;
shapes = (
{
closed = 1;
nodes = (
(414,446,ls),
(453,446,o),
(476,427,o),
(476,396,cs),
(476,364,o),
(453,345,o),
(414,345,cs),
(90,345,ls),
(51,345,o),
(28,364,o),
(28,396,cs),
(28,427,o),
(51,446,o),
(90,446,cs)
);
},
{
closed = 1;
nodes = (
(391,273,ls),
(430,273,o),
(453,255,o),
(453,223,cs),
(453,191,o),
(430,173,o),
(391,173,cs),
(66,173,ls),
(27,173,o),
(5,191,o),
(5,223,cs),
(5,255,o),
(27,273,o),
(66,273,cs)
);
},
{
closed = 1;
nodes = (
(118,513,ls),
(123,552,o),
(143,573,o),
(175,573,cs),
(207,573,o),
(230,549,o),
(230,516,cs),
(230,509,o),
(230,503,o),
(229,496,cs),
(169,90,ls),
(163,50,o),
(144,29,o),
(112,29,cs),
(80,29,o),
(57,53,o),
(57,86,cs),
(57,93,o),
(57,99,o),
(58,106,cs)
);
},
{
closed = 1;
nodes = (
(312,513,ls),
(318,552,o),
(338,573,o),
(370,573,cs),
(402,573,o),
(425,549,o),
(425,516,cs),
(425,509,o),
(424,503,o),
(423,496,cs),
(364,90,ls),
(358,50,o),
(339,29,o),
(306,29,cs),
(274,29,o),
(251,53,o),
(251,86,cs),
(251,93,o),
(252,99,o),
(253,106,cs)
);
}
);
width = 480;
}
);
note = numbersign;
unicode = 35;
},
{
glyphname = dollar;
layers = (
{
layerId = m01;
shapes = (
{
closed = 1;
nodes = (
(256,643,ls),
(260,668,o),
(274,689,o),
(302,685,cs),
(323,682,o),
(333,668,o),
(335,650,cs),
(335,644,o),
(335,638,o),
(334,632,cs),
(234,-47,ls),
(231,-72,o),
(217,-93,o),
(188,-89,cs),
(166,-86,o),
(156,-69,o),
(156,-50,cs),
(156,-45,o),
(156,-41,o),
(157,-36,cs)
);
},
{
closed = 1;
nodes = (
(74,284,o),
(28,331,o),
(28,424,cs),
(28,545,o),
(101,607,o),
(243,607,cs),
(309,607,o),
(364,594,o),
(405,567,cs),
(426,554,o),
(437,536,o),
(437,513,cs),
(437,478,o),
(405,446,o),
(370,446,cs),
(360,446,o),
(347,450,o),
(329,458,cs),
(295,474,o),
(279,478,o),
(248,478,cs),
(202,478,o),
(172,460,o),
(172,432,cs),
(172,409,o),
(187,400,o),
(273,369,cs),
(344,344,o),
(390,321,o),
(419,294,cs),
(451,263,o),
(462,227,o),
(462,173,cs),
(462,47,o),
(387,-11,o),
(223,-11,cs),
(147,-11,o),
(89,0,o),
(52,19,cs),
(21,36,o),
(4,58,o),
(4,87,cs),
(4,123,o),
(34,154,o),
(69,154,cs),
(83,154,o),
(83,154,o),
(123,137,cs),
(155,124,o),
(186,118,o),
(225,118,cs),
(283,118,o),
(318,137,o),
(318,169,cs),
(318,185,o),
(307,200,o),
(290,210,cs),
(275,218,o),
(275,218,o),
(210,240,cs)
);
}
);
width = 480;
}
);
note = dollar;
unicode = 36;
},
{
glyphname = percent;
layers = (
{
layerId = m01;
shapes = (
{
closed = 1;
nodes = (
(30,555,o),
(75,603,o),
(177,603,cs),
(280,603,o),
(325,555,o),
(325,448,cs),
(325,420,ls),
(325,314,o),
(280,266,o),
(177,266,cs),
(75,266,o),
(30,314,o),
(30,420,cs),
(30,448,ls)
);
},
{
closed = 1;
nodes = (
(213,495,o),
(201,520,o),
(177,520,cs),
(154,520,o),
(142,495,o),
(142,446,cs),
(142,422,ls),
(145,364,o),
(153,348,o),
(178,348,cs),
(201,348,o),
(213,373,o),
(213,422,cs),
(213,446,ls)
);
},
{
closed = 1;
nodes = (
(462,564,ls),
(477,594,o),
(493,606,o),
(517,606,cs),
(546,606,o),
(572,582,o),
(572,555,cs),
(572,544,o),
(568,530,o),
(561,516,cs),
(326,32,ls),
(312,2,o),
(296,-10,o),
(271,-10,cs),
(242,-10,o),
(216,14,o),
(216,41,cs),
(216,52,o),
(220,66,o),
(227,80,cs)
);
},
{
closed = 1;
nodes = (
(759,148,ls),
(759,42,o),
(714,-6,o),
(611,-6,cs),
(509,-6,o),
(464,42,o),
(464,148,cs),
(464,176,ls),
(464,283,o),
(509,331,o),
(611,331,cs),
(714,331,o),
(759,283,o),
(759,176,cs)
);
},
{
closed = 1;
nodes = (
(579,92,o),
(587,76,o),
(612,76,cs),
(635,76,o),
(647,101,o),
(647,150,cs),
(647,174,ls),
(647,223,o),
(635,248,o),
(611,248,cs),
(588,248,o),
(576,223,o),
(576,174,cs),
(576,150,ls)
);
}
);
width = 789;
}
);
note = percent;
unicode = 37;
},
{
glyphname = ampersand;
layers = (
{
layerId = m01;
shapes = (
{
closed = 1;
nodes = (
(521,111,ls),
(537,94,o),
(545,76,o),
(545,60,cs),
(545,23,o),
(514,-8,o),
(476,-8,cs),
(457,-8,o),
(439,1,o),
(422,19,cs),
(414,28,l),
(362,0,o),
(308,-12,o),
(233,-12,cs),
(92,-12,o),
(21,47,o),
(21,165,cs),
(21,244,o),
(55,295,o),
(138,340,c),
(109,385,o),
(101,410,o),
(101,453,cs),
(101,557,o),
(159,609,o),
(276,609,cs),
(391,609,o),
(450,559,o),
(450,464,cs),
(450,376,o),
(416,346,o),
(348,308,c),
(425,220,l),
(435,244,o),
(444,269,o),
(450,293,cs),
(461,333,o),
(484,351,o),
(524,351,cs),
(562,351,o),
(585,328,o),
(585,301,cs),
(585,290,o),
(579,269,o),
(570,245,cs),
(556,209,o),
(534,165,o),
(509,125,c)
);
},
{
closed = 1;
nodes = (
(304,421,o),
(316,435,o),
(316,456,cs),
(316,478,o),
(299,496,o),
(277,496,cs),
(256,496,o),
(241,483,o),
(241,466,cs),
(241,449,o),
(249,429,o),
(268,401,c)
);
},
{
closed = 1;
nodes = (
(185,227,o),
(169,206,o),
(169,177,cs),
(169,136,o),
(202,113,o),
(262,113,cs),
(286,113,o),
(309,116,o),
(329,123,c),
(219,245,l)
);
}
);
width = 606;
}
);
note = ampersand;
unicode = 38;
},
{
glyphname = quotesingle;
kernLeft = quotedbl;
kernRight = quotedbl;
layers = (
{
layerId = m01;
shapes = (
{
closed = 1;
nodes = (
(31,574,o),
(60,607,o),
(107,607,cs),
(161,607,o),
(182,566,o),
(182,518,c),
(175,381,ls),
(172,330,o),
(148,302,o),
(107,302,cs),
(65,302,o),
(41,330,o),
(38,381,cs),
(31,520,l)
);
}
);
width = 215;
}
);
note = quotesingle;
unicode = 39;
},
{
glyphname = parenleft;
layers = (
{
layerId = m01;
shapes = (
{
closed = 1;
nodes = (
(79,411,o),
(124,551,o),
(208,652,cs),
(230,677,o),
(243,685,o),
(264,685,cs),
(296,685,o),
(323,658,o),
(323,627,cs),
(323,616,o),
(314,594,o),
(293,550,cs),
(257,477,o),
(235,363,o),
(235,250,cs),
(235,120,o),
(260,8,o),
(311,-91,cs),
(321,-109,o),
(323,-117,o),
(323,-128,cs),
(323,-161,o),
(297,-187,o),
(264,-187,cs),
(241,-187,o),
(228,-178,o),
(200,-144,cs),
(123,-48,o),
(79,94,o),
(79,249,cs)
);
}
);
width = 345;
}
);
note = parenleft;
unicode = 40;
},
{
glyphname = parenright;
layers = (
{
layerId = m01;
shapes = (
{
closed = 1;
nodes = (
(110,378,o),
(85,490,o),
(34,589,cs),
(24,607,o),
(22,615,o),
(22,626,cs),
(22,659,o),
(48,685,o),
(81,685,cs),
(105,685,o),
(125,671,o),
(150,635,cs),
(230,522,o),
(266,401,o),
(266,249,cs),
(266,87,o),
(221,-53,o),
(137,-154,cs),
(115,-179,o),
(102,-187,o),
(81,-187,cs),
(49,-187,o),
(22,-161,o),
(22,-129,cs),
(22,-119,o),
(25,-108,o),
(34,-91,cs),
(88,20,o),
(110,118,o),
(110,249,cs)
);
}
);
width = 345;
}
);
note = parenright;
unicode = 41;
},
{
glyphname = asterisk;
layers = (
{
layerId = m01;
shapes = (
{
closed = 1;
nodes = (
(184,597,ls),
(183,602,o),
(183,607,o),
(183,612,cs),
(183,651,o),
(206,676,o),
(241,676,cs),
(277,676,o),
(300,651,o),
(300,613,cs),
(300,608,o),
(300,602,o),
(299,597,cs),
(292,540,l),
(342,558,ls),
(355,563,o),
(368,566,o),
(379,566,cs),
(408,566,o),
(433,539,o),
(433,508,cs),
(433,474,o),
(410,453,o),
(368,448,cs),
(321,443,l),
(358,403,ls),
(374,386,o),
(383,368,o),
(383,354,cs),
(383,322,o),
(356,295,o),
(324,295,cs),
(301,295,o),
(284,307,o),
(267,334,cs),
(241,377,l),
(216,334,ls),
(199,307,o),
(182,295,o),
(159,295,cs),
(126,295,o),
(99,322,o),
(99,353,cs),
(99,368,o),
(108,386,o),
(124,403,cs),
(162,443,l),
(115,448,ls),
(73,453,o),
(50,474,o),
(50,508,cs),
(50,539,o),
(75,566,o),
(103,566,cs),
(115,566,o),
(128,563,o),
(141,558,cs),
(190,540,l)
);
}
);
width = 485;
}
);
note = asterisk;
unicode = 42;
},
{
glyphname = plus;
layers = (
{
layerId = m01;
shapes = (
{
closed = 1;
nodes = (
(170,423,ls),
(170,478,o),
(196,509,o),
(240,509,cs),
(284,509,o),
(310,478,o),
(310,423,cs),
(310,365,l),
(365,365,ls),
(414,365,o),
(443,342,o),
(443,302,cs),
(443,261,o),
(414,238,o),
(365,238,cs),
(310,238,l),
(310,180,ls),
(310,125,o),
(284,94,o),
(240,94,cs),
(196,94,o),
(170,125,o),
(170,180,cs),
(170,238,l),
(115,238,ls),
(66,238,o),
(37,261,o),
(37,302,cs),
(37,342,o),
(66,365,o),
(115,365,cs),
(170,365,l)
);
}
);
width = 480;
}
);
note = plus;
unicode = 43;
},
{
glyphname = comma;
kernLeft = comma;
kernRight = comma;
layers = (
{
layerId = m01;
shapes = (
{
closed = 1;
nodes = (
(68,11,o),
(45,40,o),
(45,77,cs),
(45,127,o),
(82,163,o),
(134,163,cs),
(188,163,o),
(223,128,o),
(223,75,cs),
(223,35,o),
(198,-22,o),
(149,-93,cs),
(140,-106,o),
(128,-113,o),
(113,-113,cs),
(91,-113,o),
(70,-95,o),
(70,-73,cs),
(70,-64,o),
(72,-58,o),
(79,-47,cs),
(88,-33,o),
(96,-19,o),
(106,0,c)
);
}
);
width = 270;
}
);
note = comma;
unicode = 44;
},
{
glyphname = hyphen;
kernLeft = hyphen;
kernRight = hyphen;
layers = (
{
layerId = m01;
shapes = (
{
closed = 1;
nodes = (
(209,344,ls),
(266,344,o),
(299,317,o),
(299,270,cs),
(299,223,o),
(266,196,o),
(209,196,cs),
(103,196,ls),
(46,196,o),
(13,223,o),
(13,270,cs),
(13,317,o),
(46,344,o),
(103,344,cs)
);
}
);
width = 312;
}
);
note = hyphen;
unicode = 45;
},
{
glyphname = period;
kernLeft = comma;
kernRight = comma;
layers = (
{
layerId = m01;
shapes = (
{
closed = 1;
nodes = (
(186,163,o),
(221,128,o),
(221,76,cs),
(221,24,o),
(186,-11,o),
(134,-11,cs),
(82,-11,o),
(47,24,o),
(47,76,cs),
(47,128,o),
(82,163,o),
(134,163,cs)
);
}
);
width = 268;
}
);
note = period;
unicode = 46;
},
{
glyphname = slash;
layers = (
{
layerId = m01;
shapes = (
{
closed = 1;
nodes = (
(139,535,ls),
(153,584,o),
(178,607,o),
(217,607,cs),
(258,607,o),
(293,574,o),
(293,536,cs),
(293,523,o),
(290,507,o),
(286,492,cs),
(159,61,ls),
(145,12,o),
(120,-11,o),
(81,-11,cs),
(40,-11,o),
(5,22,o),
(5,60,cs),
(5,73,o),
(8,89,o),
(12,104,cs)
);
}
);
width = 297;
}
);
note = slash;
unicode = 47;
},
{
glyphname = zero;
layers = (
{
layerId = m01;
shapes = (
{
closed = 1;
nodes = (
(22,526,o),
(91,607,o),
(240,607,cs),
(389,607,o),
(458,526,o),
(458,350,cs),
(458,246,ls),
(458,70,o),
(389,-11,o),
(240,-11,cs),
(91,-11,o),
(22,70,o),
(22,246,cs),
(22,350,ls)
);
},
{
closed = 1;
nodes = (
(178,195,o),
(182,170,o),
(189,151,cs),
(196,132,o),
(218,118,o),
(240,118,cs),
(265,118,o),
(286,133,o),
(293,158,cs),
(298,174,o),
(304,223,o),
(304,248,cs),
(304,348,ls),
(304,379,o),
(297,429,o),
(291,445,cs),
(284,464,o),
(262,478,o),
(240,478,cs),
(215,478,o),
(194,463,o),
(187,438,cs),
(182,422,o),
(176,373,o),
(176,348,cs),
(176,248,ls)
);
}
);
width = 480;
}
);
note = zero;
unicode = 48;
},
{
glyphname = one;
layers = (
{
layerId = m01;
shapes = (
{
closed = 1;
nodes = (
(124,410,ls),
(109,405,o),
(96,402,o),
(85,402,cs),
(54,402,o),
(28,430,o),
(28,463,cs),
(28,490,o),
(43,508,o),
(76,523,cs),
(241,596,l),
(262,596,ls),
(330,596,o),
(353,560,o),
(353,499,cs),
(353,84,ls),
(353,24,o),
(324,-11,o),
(275,-11,cs),
(226,-11,o),
(197,24,o),
(197,84,cs),
(197,439,l)
);
}
);
width = 480;
}
);
note = one;
unicode = 49;
},
{
glyphname = two;
layers = (
{
layerId = m01;
shapes = (
{
closed = 1;
nodes = (
(374,131,ls),
(425,131,o),
(454,107,o),
(454,65,cs),
(454,24,o),
(425,0,o),
(374,0,cs),
(116,0,ls),
(64,0,o),
(18,21,o),
(18,80,cs),
(18,122,o),
(58,157,o),
(89,186,cs),
(134,230,o),
(277,368,o),
(277,432,cs),
(277,459,o),
(253,478,o),
(218,478,cs),
(195,478,o),
(168,470,o),
(140,456,cs),
(107,439,o),
(104,438,o),
(90,438,cs),
(57,438,o),
(29,468,o),
(29,503,cs),
(29,531,o),
(43,550,o),
(77,568,cs),
(123,593,o),
(181,607,o),
(242,607,cs),
(370,607,o),
(433,555,o),
(433,449,cs),
(433,378,o),
(405,318,o),
(334,240,cs),
(295,198,o),
(254,159,o),
(218,131,c)
);
}
);
width = 480;
}
);
note = two;
unicode = 50;
},
{
glyphname = three;
layers = (
{
layerId = m01;
shapes = (
{
closed = 1;
nodes = (
(422,305,o),
(446,263,o),
(446,178,cs),
(446,51,o),
(371,-11,o),
(217,-11,cs),
(83,-11,o),
(21,16,o),
(21,75,cs),
(21,108,o),
(46,141,o),
(81,141,cs),
(90,141,o),
(97,140,o),
(107,135,cs),
(137,123,o),
(163,118,o),
(195,118,cs),
(260,118,o),
(290,141,o),
(290,189,cs),
(290,234,o),
(264,249,o),
(187,249,cs),
(178,249,ls),
(139,249,o),
(112,274,o),
(112,326,cs),
(112,358,o),
(125,371,o),
(156,371,cs),
(171,371,ls),
(241,371,o),
(270,388,o),
(270,428,cs),
(270,460,o),
(246,478,o),
(202,478,cs),
(179,478,o),
(157,474,o),
(132,464,cs),
(112,456,o),
(108,455,o),
(97,455,cs),
(64,455,o),
(38,486,o),
(38,519,cs),
(38,538,o),
(47,555,o),
(64,569,cs),
(95,593,o),
(152,607,o),
(229,607,cs),
(360,607,o),
(423,556,o),
(423,451,cs),
(423,392,o),
(406,360,o),
(361,331,c)
);
}
);
width = 480;
}
);
note = three;
unicode = 51;
},
{
glyphname = four;
layers = (
{
layerId = m01;
shapes = (
{
closed = 1;
nodes = (
(106,105,ls),
(50,105,o),
(2,129,o),
(2,190,cs),
(2,205,o),
(8,222,o),
(23,248,cs),
(188,534,ls),
(218,586,o),
(247,606,o),
(290,606,cs),
(365,606,o),
(394,546,o),
(394,479,cs),
(394,236,l),
(412,236,ls),
(457,236,o),
(486,210,o),
(486,170,cs),
(486,131,o),
(457,105,o),
(412,105,cs),
(394,105,l),
(394,75,ls),
(394,21,o),
(368,-11,o),
(324,-11,cs),
(279,-11,o),
(253,21,o),
(253,75,cs),
(253,105,l)
);
},
{
closed = 1;
nodes = (
(258,422,l),
(149,231,l),
(256,231,l)
);
}
);
width = 480;
}
);
note = four;
unicode = 52;
},
{
glyphname = five;
layers = (
{
layerId = m01;
shapes = (
{
closed = 1;
nodes = (
(205,394,l),
(224,397,o),
(244,399,o),
(269,399,cs),
(390,399,o),
(444,336,o),
(444,195,cs),
(444,43,o),
(381,-11,o),
(205,-11,cs),
(77,-11,o),
(17,17,o),
(17,75,cs),
(17,108,o),
(44,140,o),
(78,140,cs),
(89,140,o),
(89,140,o),
(124,128,cs),
(145,121,o),
(168,118,o),
(197,118,cs),
(261,118,o),
(288,140,o),
(288,193,cs),
(288,247,o),
(267,274,o),
(224,274,cs),
(204,274,o),
(192,270,o),
(168,257,cs),
(150,246,o),
(131,241,o),
(110,241,cs),
(74,241,o),
(57,264,o),
(60,298,cs),
(74,503,ls),
(78,571,o),
(104,596,o),
(173,596,cs),
(341,596,ls),
(392,596,o),
(421,572,o),
(421,531,cs),
(421,489,o),
(392,465,o),
(341,465,cs),
(211,465,l)
);
}
);
width = 480;
}
);
note = five;
unicode = 53;
},
{
glyphname = six;
layers = (
{
layerId = m01;
shapes = (
{
closed = 1;
nodes = (
(220,400,o),
(245,407,o),
(286,407,cs),
(407,407,o),
(459,348,o),
(459,211,cs),
(459,54,o),
(398,-11,o),
(250,-11,cs),
(59,-11,o),
(29,90,o),
(29,260,cs),
(29,380,o),
(50,478,o),
(87,536,cs),
(119,583,o),
(176,607,o),
(261,607,cs),
(300,607,o),
(351,600,o),
(374,591,cs),
(400,581,o),
(416,559,o),
(416,533,cs),
(416,498,o),
(387,467,o),
(355,467,cs),
(349,467,o),
(340,468,o),
(330,470,cs),
(307,475,o),
(286,478,o),
(271,478,cs),
(242,478,o),
(217,464,o),
(205,440,cs),
(198,425,o),
(196,415,o),
(191,381,c)
);
},
{
closed = 1;
nodes = (
(206,288,o),
(185,258,o),
(185,203,cs),
(185,159,o),
(195,118,o),
(247,118,cs),
(283,118,o),
(303,148,o),
(303,203,cs),
(303,258,o),
(282,288,o),
(244,288,cs)
);
}
);
width = 480;
}
);
note = six;
unicode = 54;
},
{
glyphname = seven;
layers = (
{
layerId = m01;
shapes = (
{
closed = 1;
nodes = (
(111,465,ls),
(60,465,o),
(31,489,o),
(31,531,cs),
(31,572,o),
(60,596,o),
(111,596,cs),
(358,596,ls),
(405,596,o),
(441,560,o),
(438,510,c),
(433,484,o),
(430,476,o),
(426,468,cs),
(259,54,ls),
(241,9,o),
(218,-10,o),
(182,-10,cs),
(142,-10,o),
(106,23,o),
(106,61,cs),
(106,76,o),
(110,94,o),
(119,113,cs),
(278,465,l)
);
}
);
width = 480;
}
);
note = seven;
unicode = 55;
},
{
glyphname = eight;
layers = (
{
layerId = m01;
shapes = (
{
closed = 1;
nodes = (
(54,340,o),
(37,372,o),
(37,435,cs),
(37,552,o),
(101,607,o),
(239,607,cs),
(378,607,o),
(442,552,o),
(442,436,cs),
(442,372,o),
(426,340,o),
(376,306,c),
(436,273,o),
(461,230,o),
(461,160,cs),
(461,36,o),
(400,-11,o),
(240,-11,cs),
(79,-11,o),
(18,36,o),
(18,160,cs),
(18,230,o),
(43,273,o),
(103,306,c)
);
},
{
closed = 1;
nodes = (
(206,482,o),
(185,462,o),
(185,427,cs),
(185,390,o),
(205,369,o),
(240,369,cs),
(274,369,o),
(294,391,o),
(294,428,cs),
(294,463,o),
(276,482,o),
(243,482,cs)
);
},
{
closed = 1;
nodes = (
(191,244,o),
(171,224,o),
(171,178,cs),
(171,131,o),
(189,114,o),
(240,114,cs),
(290,114,o),
(308,131,o),
(308,178,cs),
(308,224,o),
(287,244,o),
(240,244,cs)
);
}
);
width = 480;
}
);
note = eight;
unicode = 56;
},
{
glyphname = nine;
layers = (
{
layerId = m01;
shapes = (
{
closed = 1;
nodes = (
(259,195,o),
(234,188,o),
(193,188,cs),
(72,188,o),
(20,247,o),
(20,383,cs),
(20,540,o),
(82,607,o),
(228,607,cs),
(419,607,o),
(450,504,o),
(450,335,cs),
(450,215,o),
(429,116,o),
(392,59,cs),
(360,11,o),
(307,-11,o),
(219,-11,cs),
(158,-11,o),
(117,-4,o),
(92,10,cs),
(72,22,o),
(63,39,o),
(63,62,cs),
(63,96,o),
(92,127,o),
(123,127,cs),
(130,127,o),
(138,126,o),
(149,124,cs),
(171,120,o),
(193,118,o),
(209,118,cs),
(240,118,o),
(259,127,o),
(271,151,cs),
(279,166,o),
(285,186,o),
(288,214,c)
);
},
{
closed = 1;
nodes = (
(273,307,o),
(294,337,o),
(294,392,cs),
(294,448,o),
(273,478,o),
(235,478,cs),
(197,478,o),
(176,448,o),
(176,393,cs),
(176,337,o),
(197,307,o),
(235,307,cs)
);
}
);
width = 480;
}
);
note = nine;
unicode = 57;
},
{
glyphname = colon;
layers = (
{
layerId = m01;
shapes = (
{
closed = 1;
nodes = (
(206,163,o),
(241,128,o),
(241,76,cs),
(241,24,o),
(206,-11,o),
(154,-11,cs),
(102,-11,o),
(67,24,o),
(67,76,cs),
(67,128,o),
(102,163,o),
(154,163,cs)
);
},
{
closed = 1;
nodes = (
(206,413,o),
(241,378,o),
(241,326,cs),
(241,274,o),
(206,239,o),
(154,239,cs),
(102,239,o),
(67,274,o),
(67,326,cs),
(67,378,o),
(102,413,o),
(154,413,cs)
);
}
);
width = 309;
}
);
note = colon;
unicode = 58;
},
{
glyphname = semicolon;
layers = (
{
layerId = m01;
shapes = (
{
closed = 1;
nodes = (
(204,413,o),
(239,378,o),
(239,326,cs),
(239,274,o),
(204,239,o),
(152,239,cs),
(100,239,o),
(65,274,o),
(65,326,cs),
(65,378,o),
(100,413,o),
(152,413,cs)
);
},
{
closed = 1;
nodes = (
(87,11,o),
(64,40,o),
(64,77,cs),
(64,127,o),
(101,163,o),
(153,163,cs),
(207,163,o),
(242,128,o),
(242,75,cs),
(242,35,o),
(217,-22,o),
(168,-93,cs),
(159,-106,o),
(147,-113,o),
(132,-113,cs),
(110,-113,o),
(89,-95,o),
(89,-73,cs),
(89,-64,o),
(91,-58,o),
(98,-47,cs),
(107,-33,o),
(115,-19,o),
(125,0,c)
);
}
);
width = 309;
}
);
note = semicolon;
unicode = 59;
},
{
glyphname = less;
layers = (
{
layerId = m01;
shapes = (
{
closed = 1;
nodes = (
(371,246,ls),
(410,230,o),
(427,210,o),
(427,179,cs),
(427,143,o),
(397,111,o),
(364,111,cs),
(350,111,o),
(332,116,o),
(314,126,cs),
(71,257,ls),
(49,269,o),
(41,281,o),
(41,299,cs),
(41,317,o),
(49,328,o),
(71,340,cs),
(314,472,ls),
(332,482,o),
(350,487,o),
(365,487,cs),
(397,487,o),
(427,455,o),
(427,419,cs),
(427,388,o),
(410,368,o),
(371,352,cs),
(242,299,l)
);
}
);
width = 480;
}
);
note = less;
unicode = 60;
},
{
glyphname = equal;
layers = (
{
layerId = m01;
shapes = (
{
closed = 1;
nodes = (
(369,452,ls),
(416,452,o),
(443,430,o),
(443,391,cs),
(443,353,o),
(416,331,o),
(369,331,cs),
(111,331,ls),
(64,331,o),
(37,353,o),
(37,392,cs),
(37,430,o),
(64,452,o),
(111,452,cs)
);
},
{
closed = 1;
nodes = (
(369,271,ls),
(416,271,o),
(443,249,o),
(443,210,cs),
(443,172,o),
(416,150,o),
(369,150,cs),
(111,150,ls),
(64,150,o),
(37,172,o),
(37,211,cs),
(37,249,o),
(64,271,o),
(111,271,cs)
);
}
);
width = 480;
}
);
note = equal;
unicode = 61;
},
{
glyphname = greater;
layers = (
{
layerId = m01;
shapes = (
{
closed = 1;
nodes = (
(109,352,ls),
(70,368,o),
(53,388,o),
(53,420,cs),
(53,455,o),
(83,487,o),
(115,487,cs),
(130,487,o),
(147,482,o),
(166,472,cs),
(408,341,ls),
(431,329,o),
(439,317,o),
(439,299,cs),
(439,281,o),
(431,270,o),
(408,258,cs),
(166,126,ls),
(147,116,o),
(130,111,o),
(115,111,cs),
(83,111,o),
(53,143,o),
(53,178,cs),
(53,209,o),
(70,230,o),
(109,246,cs),
(238,299,l)
);
}
);
width = 480;
}
);
note = greater;
unicode = 62;
},
{
glyphname = question;
kernLeft = question;
layers = (
{
layerId = m01;
shapes = (
{
closed = 1;
nodes = (
(219,163,o),
(254,128,o),
(254,76,cs),
(254,24,o),
(219,-11,o),
(167,-11,cs),
(115,-11,o),
(80,24,o),
(80,76,cs),
(80,128,o),
(115,163,o),
(167,163,cs)
);
},
{
closed = 1;
nodes = (
(98,333,o),
(109,347,o),
(179,411,cs),
(206,435,o),
(216,451,o),
(216,466,cs),
(216,486,o),
(199,501,o),
(175,501,cs),
(152,501,o),
(127,493,o),
(102,478,cs),
(87,469,o),
(79,466,o),
(66,466,cs),
(34,466,o),
(8,493,o),
(8,528,cs),
(8,544,o),
(14,559,o),
(26,572,cs),
(56,607,o),
(120,630,o),
(197,630,cs),
(314,630,o),
(372,579,o),
(372,478,cs),
(372,423,o),
(352,390,o),
(278,328,cs),
(245,299,o),
(241,292,o),
(241,263,cs),
(241,249,ls),
(241,220,o),
(224,209,o),
(177,209,cs),
(121,209,o),
(98,227,o),
(98,270,cs),
(98,300,ls)
);
}
);
width = 381;
}
);
note = question;
unicode = 63;
},
{
glyphname = at;
layers = (
{
layerId = m01;
shapes = (
{
closed = 1;
nodes = (
(443,432,o),
(451,437,o),
(473,437,cs),
(507,437,o),
(524,422,o),
(524,403,cs),
(524,398,o),
(523,392,o),
(521,386,c),
(496,264,ls),
(492,246,o),
(489,228,o),
(489,219,cs),
(489,208,o),
(495,202,o),
(508,202,cs),
(547,202,o),
(581,255,o),
(581,317,cs),
(581,353,ls),
(581,483,o),
(468,512,o),
(358,512,cs),
(198,512,o),
(130,432,o),
(130,279,cs),
(130,248,ls),
(130,83,o),
(208,15,o),
(368,15,cs),
(413,15,o),
(459,20,o),
(497,30,cs),
(534,39,o),
(540,40,o),
(546,40,cs),
(566,40,o),
(580,23,o),
(580,1,cs),
(580,-9,o),
(577,-18,o),
(570,-26,cs),
(550,-51,o),
(459,-68,o),
(348,-68,cs),
(151,-68,o),
(22,26,o),
(22,232,cs),
(22,295,ls),
(22,508,o),
(157,595,o),
(356,595,cs),
(512,595,o),
(689,540,o),
(689,354,cs),
(689,304,ls),
(689,191,o),
(607,96,o),
(490,96,cs),
(441,96,o),
(416,107,o),
(400,134,c),
(372,108,o),
(346,98,o),
(302,98,cs),
(223,98,o),
(194,135,o),
(194,214,cs),
(194,274,o),
(214,341,o),
(245,382,cs),
(273,419,o),
(310,437,o),
(360,437,cs),
(396,437,o),
(414,432,o),
(434,416,c)
);
},
{
closed = 1;
nodes = (
(391,331,o),
(385,334,o),
(376,334,cs),
(365,334,o),
(353,326,o),
(342,313,cs),
(324,291,o),
(310,256,o),
(310,224,cs),
(310,211,o),
(317,204,o),
(331,204,cs),
(357,204,o),
(378,229,o),
(389,275,cs),
(401,322,l)
);
}
);
width = 704;
}
);
note = at;
unicode = 64;
},
{
glyphname = A;
kernLeft = A;
kernRight = A;
layers = (
{
layerId = m01;
shapes = (
{
closed = 1;
nodes = (
(168,107,l),
(151,56,ls),
(136,11,o),
(113,-10,o),
(76,-10,cs),
(37,-10,o),
(3,22,o),
(3,59,cs),
(3,72,o),
(6,87,o),
(13,104,cs),
(165,516,ls),
(188,579,o),
(220,606,o),
(272,606,cs),
(323,606,o),
(355,579,o),
(378,516,cs),
(531,110,ls),
(538,92,o),
(541,76,o),
(541,62,cs),
(541,23,o),
(506,-10,o),
(465,-10,cs),
(427,-10,o),
(402,12,o),
(387,59,cs),
(371,107,l)
);
},
{
closed = 1;
nodes = (
(271,417,l),
(206,233,l),
(334,233,l)
);
}
);
width = 545;
}
);
note = A;
unicode = 65;
},
{
glyphname = B;
layers = (
{
layerId = m01;
shapes = (
{
closed = 1;
nodes = (
(489,300,o),
(513,258,o),
(513,179,cs),
(513,52,o),
(443,0,o),
(274,0,cs),
(136,0,ls),
(75,0,o),
(56,47,o),
(56,98,cs),
(56,498,ls),
(56,568,o),
(84,596,o),
(154,596,cs),
(279,596,ls),
(440,596,o),
(501,556,o),
(501,449,cs),
(501,388,o),
(479,349,o),
(430,325,c)
);
},
{
closed = 1;
nodes = (
(260,365,ls),
(332,365,o),
(348,375,o),
(348,419,cs),
(348,458,o),
(331,469,o),
(269,469,cs),
(205,469,l),
(205,365,l)
);
},
{
closed = 1;
nodes = (
(265,131,ls),
(335,131,o),
(357,145,o),
(357,190,cs),
(357,236,o),
(335,250,o),
(264,250,cs),
(205,250,l),
(205,131,l)
);
}
);
width = 539;
}
);
note = B;
unicode = 66;
},
{
glyphname = C;
kernLeft = C;
layers = (
{
layerId = m01;
shapes = (
{
closed = 1;
nodes = (
(200,262,ls),
(200,160,o),
(225,123,o),
(292,123,cs),
(326,123,o),
(333,125,o),
(377,146,cs),
(389,152,o),
(399,155,o),
(407,155,cs),
(444,155,o),
(469,117,o),
(469,83,cs),
(469,68,o),
(464,53,o),
(453,41,cs),
(426,9,o),
(366,-11,o),
(285,-11,cs),
(123,-11,o),
(42,78,o),
(42,257,cs),
(42,339,ls),
(42,517,o),
(123,607,o),
(282,607,cs),
(357,607,o),
(410,590,o),
(434,560,cs),
(443,548,o),
(448,534,o),
(448,518,cs),
(448,481,o),
(419,451,o),
(383,451,cs),
(370,451,o),
(363,453,o),
(347,461,cs),
(332,469,o),
(313,473,o),
(291,473,cs),
(225,473,o),
(200,432,o),
(200,325,cs)
);
}
);
width = 457;
}
);
note = C;
unicode = 67;
},
{
glyphname = D;
layers = (
{
layerId = m01;
shapes = (
{
closed = 1;
nodes = (
(56,498,ls),
(56,568,o),
(84,596,o),
(154,596,cs),
(243,596,ls),
(440,596,o),
(525,534,o),
(525,328,cs),
(525,268,ls),
(525,62,o),
(440,0,o),
(243,0,cs),
(136,0,ls),
(75,0,o),
(56,47,o),
(56,98,cs)
);
},
{
closed = 1;
nodes = (
(265,135,ls),
(358,135,o),
(367,191,o),
(367,273,cs),
(367,323,ls),
(367,405,o),
(358,461,o),
(265,461,cs),
(212,461,l),
(212,135,l)
);
}
);
width = 565;
}
);
note = D;
unicode = 68;
},
{
glyphname = E;
layers = (
{
layerId = m01;
shapes = (
{
closed = 1;
nodes = (
(212,373,l),
(348,373,ls),
(400,373,o),
(430,348,o),
(430,306,cs),
(430,264,o),
(400,239,o),
(348,239,cs),
(212,239,l),
(212,138,l),
(385,138,ls),
(438,138,o),
(469,113,o),
(469,69,cs),
(469,25,o),
(438,0,o),
(385,0,cs),
(136,0,ls),
(75,0,o),
(56,47,o),
(56,98,cs),
(56,498,ls),
(56,568,o),
(84,596,o),
(154,596,cs),
(377,596,ls),
(430,596,o),
(461,571,o),
(461,527,cs),
(461,483,o),
(430,458,o),
(377,458,cs),
(212,458,l)
);
}
);
width = 482;
}
);
note = E;
unicode = 69;
},
{
glyphname = F;
kernRight = F;
layers = (
{
layerId = m01;
shapes = (
{
closed = 1;
nodes = (
(212,359,l),
(341,359,ls),
(393,359,o),
(423,334,o),
(423,292,cs),
(423,250,o),
(393,225,o),
(341,225,cs),
(212,225,l),
(212,84,ls),
(212,24,o),
(183,-11,o),
(134,-11,cs),
(85,-11,o),
(56,24,o),
(56,84,cs),
(56,516,ls),
(56,577,o),
(103,596,o),
(154,596,cs),
(371,596,ls),
(424,596,o),
(455,571,o),
(455,527,cs),
(455,483,o),
(424,458,o),
(371,458,cs),
(212,458,l)
);
}
);
width = 453;
}
);
note = F;
unicode = 70;
},
{
glyphname = G;
kernLeft = C;
layers = (
{
layerId = m01;
shapes = (
{
closed = 1;
nodes = (
(370,226,l),
(352,226,ls),
(311,226,o),
(286,248,o),
(286,283,cs),
(286,333,o),
(325,350,o),
(368,350,cs),
(396,350,ls),
(434,350,o),
(477,349,o),
(494,315,cs),
(506,291,o),
(506,253,o),
(506,216,cs),
(506,121,ls),
(506,71,o),
(500,53,o),
(475,31,cs),
(448,6,o),
(379,-11,o),
(301,-11,cs),
(208,-11,o),
(142,11,o),
(100,58,cs),
(61,102,o),
(42,168,o),
(42,257,cs),
(42,339,ls),
(42,430,o),
(63,497,o),
(104,542,cs),
(145,585,o),
(205,607,o),
(285,607,cs),
(367,607,o),
(423,589,o),
(447,556,cs),
(455,544,o),
(459,531,o),
(459,517,cs),
(459,481,o),
(428,449,o),
(393,449,cs),
(379,449,o),
(372,453,o),
(361,458,cs),
(338,468,o),
(316,473,o),
(291,473,cs),
(261,473,o),
(240,464,o),
(226,445,cs),
(208,421,o),
(201,383,o),
(201,325,cs),
(201,262,ls),
(201,211,o),
(207,177,o),
(221,155,cs),
(237,132,o),
(261,123,o),
(298,123,cs),
(328,123,o),
(345,126,o),
(370,134,c)
);
}
);
width = 541;
}
);
note = G;
unicode = 71;
},
{
glyphname = H;
layers = (
{
layerId = m01;
shapes = (
{
closed = 1;
nodes = (
(372,380,l),
(372,512,ls),
(372,572,o),
(401,607,o),
(450,607,cs),
(499,607,o),
(528,572,o),
(528,512,cs),
(528,84,ls),
(528,24,o),
(499,-11,o),
(450,-11,cs),
(401,-11,o),
(372,24,o),
(372,84,cs),
(372,242,l),
(212,242,l),
(212,84,ls),
(212,24,o),
(183,-11,o),
(134,-11,cs),
(85,-11,o),
(56,24,o),
(56,84,cs),
(56,512,ls),
(56,572,o),
(85,607,o),
(134,607,cs),
(183,607,o),
(212,572,o),
(212,512,cs),
(212,380,l)
);
}
);
width = 584;
}
);
note = H;
unicode = 72;
},
{
glyphname = I;
layers = (
{
layerId = m01;
shapes = (
{
closed = 1;
nodes = (
(61,512,ls),
(61,572,o),
(90,607,o),
(139,607,cs),
(188,607,o),
(217,572,o),
(217,512,cs),
(217,84,ls),
(217,24,o),
(188,-11,o),
(139,-11,cs),
(90,-11,o),
(61,24,o),
(61,84,cs)
);
}
);
width = 278;
}
);
note = I;
unicode = 73;
},
{
glyphname = J;
kernLeft = J;
layers = (
{
layerId = m01;
shapes = (
{
closed = 1;
nodes = (
(227,139,ls),
(227,11,o),
(215,-46,o),
(178,-91,cs),
(144,-132,o),
(89,-157,o),
(31,-157,cs),
(1,-157,o),
(-20,-135,o),
(-20,-102,cs),
(-20,-88,o),
(-17,-78,o),
(-11,-68,cs),
(-4,-58,o),
(-4,-58,o),
(29,-41,cs),
(61,-24,o),
(71,6,o),
(71,86,cs),
(71,512,ls),
(71,572,o),
(100,607,o),
(149,607,cs),
(198,607,o),
(227,572,o),
(227,512,cs)
);
}
);
width = 288;
}
);
note = J;
unicode = 74;
},
{
glyphname = K;
kernRight = K;
layers = (
{
layerId = m01;
shapes = (
{
closed = 1;
nodes = (
(368,568,ls),
(388,594,o),
(405,605,o),
(427,605,cs),
(463,605,o),
(493,575,o),
(493,540,cs),
(493,525,o),
(484,506,o),
(468,487,cs),
(338,335,l),
(491,118,ls),
(504,98,o),
(513,76,o),
(513,62,cs),
(513,24,o),
(479,-9,o),
(440,-9,cs),
(414,-9,o),
(394,4,o),
(373,35,cs),
(213,264,l),
(213,84,ls),
(213,24,o),
(184,-11,o),
(135,-11,cs),
(86,-11,o),
(57,24,o),
(57,84,cs),
(57,512,ls),
(57,572,o),
(86,607,o),
(135,607,cs),
(184,607,o),
(213,572,o),
(213,512,cs),
(213,365,l)
);
}
);
width = 514;
}
);
note = K;
unicode = 75;
},
{
glyphname = L;
kernRight = L;
layers = (
{
layerId = m01;
shapes = (
{
closed = 1;
nodes = (
(365,138,ls),
(418,138,o),
(449,113,o),
(449,69,cs),
(449,25,o),
(418,0,o),
(365,0,cs),
(137,0,ls),
(76,0,o),
(57,47,o),
(57,98,cs),
(57,512,ls),
(57,572,o),
(86,607,o),
(135,607,cs),
(184,607,o),
(213,572,o),
(213,512,cs),
(213,138,l)
);
}
);
width = 441;
}
);
note = L;
unicode = 76;
},
{
glyphname = M;
layers = (
{
layerId = m01;
shapes = (
{
closed = 1;
nodes = (
(181,70,ls),
(177,17,o),
(152,-11,o),
(110,-11,cs),
(68,-11,o),
(41,19,o),
(41,65,cs),
(41,71,o),
(41,76,o),
(42,81,cs),
(81,501,ls),
(86,559,o),
(112,607,o),
(176,607,cs),
(221,607,o),
(250,582,o),
(270,525,cs),
(367,255,l),
(465,528,ls),
(484,583,o),
(512,607,o),
(557,607,cs),
(618,607,o),
(643,560,o),
(648,505,cs),
(688,81,ls),
(689,76,o),
(689,71,o),
(689,65,cs),
(689,19,o),
(662,-11,o),
(620,-11,cs),
(578,-11,o),
(552,17,o),
(549,70,cs),
(528,345,l),
(440,110,ls),
(423,66,o),
(401,47,o),
(365,47,cs),
(329,47,o),
(306,66,o),
(289,110,cs),
(202,345,l)
);
}
);
width = 730;
}
);
note = M;
unicode = 77;
},
{
glyphname = N;
layers = (
{
layerId = m01;
shapes = (
{
closed = 1;
nodes = (
(388,519,ls),
(388,575,o),
(415,607,o),
(460,607,cs),
(505,607,o),
(532,575,o),
(532,519,cs),
(532,89,ls),
(532,36,o),
(510,-10,o),
(451,-10,cs),
(417,-10,o),
(395,5,o),
(371,46,cs),
(201,337,l),
(201,77,ls),
(201,21,o),
(174,-11,o),
(129,-11,cs),
(84,-11,o),
(57,21,o),
(57,77,cs),
(57,499,ls),
(57,556,o),
(81,606,o),
(144,606,cs),
(181,606,o),
(205,589,o),
(230,546,cs),
(388,276,l)
);
}
);
width = 589;
}
);
note = N;
unicode = 78;
},
{
glyphname = O;
kernLeft = C;
layers = (
{
layerId = m01;
shapes = (
{
closed = 1;
nodes = (
(535,258,ls),
(535,76,o),
(455,-11,o),
(288,-11,cs),
(122,-11,o),
(42,76,o),
(42,258,cs),
(42,339,ls),
(42,520,o),
(122,607,o),
(288,607,cs),
(455,607,o),
(535,520,o),
(535,339,cs)
);
},
{
closed = 1;
nodes = (
(200,156,o),
(222,123,o),
(288,123,cs),
(354,123,o),
(379,161,o),
(379,263,cs),
(379,334,ls),
(379,435,o),
(354,473,o),
(288,473,cs),
(223,473,o),
(198,435,o),
(198,334,cs),
(198,263,ls)
);
}
);
width = 577;
}
);
note = O;
unicode = 79;
},
{
glyphname = P;
kernRight = P;
layers = (
{
layerId = m01;
shapes = (
{
closed = 1;
nodes = (
(212,84,ls),
(212,24,o),
(183,-11,o),
(134,-11,cs),
(85,-11,o),
(56,24,o),
(56,84,cs),
(56,516,ls),
(56,577,o),
(103,596,o),
(154,596,cs),
(259,596,ls),
(412,596,o),
(499,563,o),
(499,393,cs),
(499,214,o),
(396,189,o),
(244,189,cs),
(212,189,l)
);
},
{
closed = 1;
nodes = (
(270,318,ls),
(326,318,o),
(346,338,o),
(346,393,cs),
(346,447,o),
(326,467,o),
(271,467,cs),
(209,467,l),
(209,318,l)
);
}
);
width = 515;
}
);
note = P;
unicode = 80;
},
{
glyphname = Q;
kernLeft = C;
layers = (
{
layerId = m01;
shapes = (
{
closed = 1;
nodes = (
(473,104,l),
(538,72,o),
(566,42,o),
(566,5,cs),
(566,-36,o),
(532,-70,o),
(492,-70,cs),
(475,-70,o),
(453,-60,o),
(431,-41,cs),
(359,21,l)
);
},
{
closed = 1;
nodes = (
(535,258,ls),
(535,76,o),
(455,-11,o),
(288,-11,cs),
(122,-11,o),
(42,76,o),
(42,258,cs),
(42,339,ls),
(42,520,o),
(122,607,o),
(288,607,cs),
(455,607,o),
(535,520,o),
(535,339,cs)
);
},
{
closed = 1;
nodes = (
(200,156,o),
(222,123,o),
(288,123,cs),
(354,123,o),
(379,161,o),
(379,263,cs),
(379,334,ls),
(379,435,o),
(354,473,o),
(288,473,cs),
(223,473,o),
(198,435,o),
(198,334,cs),
(198,263,ls)
);
}
);
width = 577;
}
);
note = Q;
unicode = 81;
},
{
glyphname = R;
kernRight = R;
layers = (
{
layerId = m01;
shapes = (
{
closed = 1;
nodes = (
(212,84,ls),
(212,24,o),
(183,-11,o),
(134,-11,cs),
(85,-11,o),
(56,24,o),
(56,84,cs),
(56,516,ls),
(56,577,o),
(103,596,o),
(154,596,cs),
(259,596,ls),
(410,596,o),
(499,563,o),
(499,394,cs),
(499,311,o),
(483,272,o),
(419,227,c),
(429,213,o),
(438,197,o),
(454,168,cs),
(481,116,ls),
(492,95,o),
(498,76,o),
(498,60,cs),
(498,24,o),
(462,-10,o),
(423,-10,cs),
(388,-10,o),
(366,8,o),
(347,50,cs),
(309,134,ls),
(299,156,o),
(291,171,o),
(283,179,cs),
(274,190,o),
(263,193,o),
(247,193,cs),
(212,193,l)
);
},
{
closed = 1;
nodes = (
(270,318,ls),
(326,318,o),
(346,338,o),
(346,393,cs),
(346,447,o),
(326,467,o),
(271,467,cs),
(209,467,l),
(209,318,l)
);
}
);
width = 534;
}
);
note = R;
unicode = 82;
},
{
glyphname = S;
kernRight = S;
layers = (
{
layerId = m01;
shapes = (
{
closed = 1;
nodes = (
(71,284,o),
(29,331,o),
(29,423,cs),
(29,544,o),
(98,607,o),
(231,607,cs),
(336,607,o),
(407,569,o),
(407,512,cs),
(407,475,o),
(378,445,o),
(342,445,cs),
(328,445,o),
(328,445,o),
(286,464,cs),
(272,470,o),
(258,473,o),
(239,473,cs),
(204,473,o),
(182,457,o),
(182,432,cs),
(182,410,o),
(196,400,o),
(272,370,cs),
(373,330,o),
(440,294,o),
(440,177,cs),
(440,46,o),
(371,-11,o),
(212,-11,cs),
(80,-11,o),
(4,25,o),
(4,87,cs),
(4,98,o),
(7,109,o),
(13,122,cs),
(24,144,o),
(47,158,o),
(70,158,cs),
(85,158,o),
(86,158,o),
(119,143,cs),
(148,129,o),
(177,123,o),
(214,123,cs),
(259,123,o),
(287,140,o),
(287,169,cs),
(287,213,o),
(222,228,o),
(191,239,cs)
);
}
);
width = 456;
}
);
note = S;
unicode = 83;
},
{
glyphname = T;
kernLeft = T;
kernRight = T;
layers = (
{
layerId = m01;
shapes = (
{
closed = 1;
nodes = (
(73,458,ls),
(20,458,o),
(-11,483,o),
(-11,527,cs),
(-11,571,o),
(20,596,o),
(73,596,cs),
(405,596,ls),
(458,596,o),
(489,571,o),
(489,527,cs),
(489,483,o),
(458,458,o),
(405,458,cs),
(317,458,l),
(317,84,ls),
(317,24,o),
(288,-11,o),
(239,-11,cs),
(190,-11,o),
(161,24,o),
(161,84,cs),
(161,458,l)
);
}
);
width = 478;
}
);
note = T;
unicode = 84;
},
{
glyphname = U;
layers = (
{
layerId = m01;
shapes = (
{
closed = 1;
nodes = (
(505,147,o),
(499,106,o),
(482,74,cs),
(451,17,o),
(384,-11,o),
(279,-11,cs),
(165,-11,o),
(97,22,o),
(70,89,cs),
(58,119,o),
(53,156,o),
(53,221,cs),
(53,512,ls),
(53,572,o),
(82,607,o),
(131,607,cs),
(180,607,o),
(209,572,o),
(209,512,cs),
(209,215,ls),
(209,180,o),
(211,165,o),
(217,154,cs),
(228,135,o),
(251,123,o),
(279,123,cs),
(310,123,o),
(334,137,o),
(343,158,cs),
(347,169,o),
(349,185,o),
(349,215,cs),
(349,512,ls),
(349,572,o),
(378,607,o),
(427,607,cs),
(476,607,o),
(505,572,o),
(505,512,cs),
(505,221,ls)
);
}
);
width = 558;
}
);
note = U;
unicode = 85;
},
{
glyphname = V;
kernLeft = V;
kernRight = V;
layers = (
{
layerId = m01;
shapes = (
{
closed = 1;
nodes = (
(343,537,ls),
(357,584,o),
(382,607,o),
(420,607,cs),
(459,607,o),
(494,575,o),
(494,538,cs),
(494,525,o),
(491,509,o),
(485,493,cs),
(349,76,ls),
(329,16,o),
(299,-10,o),
(251,-10,cs),
(202,-10,o),
(172,17,o),
(152,77,cs),
(20,486,ls),
(15,501,o),
(12,520,o),
(12,534,cs),
(12,572,o),
(49,607,o),
(91,607,cs),
(131,607,o),
(158,583,o),
(172,532,cs),
(256,239,l)
);
}
);
width = 505;
}
);
note = V;
unicode = 86;
},
{
glyphname = W;
kernLeft = V;
kernRight = V;
layers = (
{
layerId = m01;
shapes = (
{
closed = 1;
nodes = (
(295,537,ls),
(308,585,o),
(332,607,o),
(370,607,cs),
(409,607,o),
(432,585,o),
(445,537,cs),
(520,264,l),
(567,529,ls),
(577,581,o),
(602,607,o),
(643,607,cs),
(684,607,o),
(716,575,o),
(716,536,cs),
(716,525,o),
(715,512,o),
(712,500,cs),
(615,72,ls),
(602,16,o),
(574,-11,o),
(529,-11,cs),
(486,-11,o),
(459,14,o),
(444,68,cs),
(369,340,l),
(294,72,ls),
(278,15,o),
(250,-11,o),
(204,-11,cs),
(157,-11,o),
(128,17,o),
(115,77,cs),
(21,497,ls),
(18,509,o),
(17,522,o),
(17,534,cs),
(17,574,o),
(51,607,o),
(93,607,cs),
(135,607,o),
(161,581,o),
(171,528,cs),
(222,273,l)
);
}
);
width = 733;
}
);
note = W;
unicode = 87;
},
{
glyphname = X;
kernLeft = X;
kernRight = X;
layers = (
{
layerId = m01;
shapes = (
{
closed = 1;
nodes = (
(69,475,ls),
(55,495,o),
(46,518,o),
(46,532,cs),
(46,571,o),
(81,605,o),
(121,605,cs),
(149,605,o),
(169,592,o),
(192,559,cs),
(286,420,l),
(367,557,ls),
(388,591,o),
(408,605,o),
(437,605,cs),
(474,605,o),
(509,573,o),
(509,538,cs),
(509,522,o),
(502,501,o),
(489,481,cs),
(370,295,l),
(489,121,ls),
(502,101,o),
(511,78,o),
(511,64,cs),
(511,25,o),
(476,-9,o),
(436,-9,cs),
(408,-9,o),
(388,4,o),
(366,37,cs),
(254,202,l),
(151,39,ls),
(129,4,o),
(109,-9,o),
(81,-9,cs),
(41,-9,o),
(7,24,o),
(7,62,cs),
(7,76,o),
(16,99,o),
(28,117,cs),
(168,329,l)
);
}
);
width = 539;
}
);
note = X;
unicode = 88;
},
{
glyphname = Y;
kernLeft = Y;
kernRight = Y;
layers = (
{
layerId = m01;
shapes = (
{
closed = 1;
nodes = (
(40,474,ls),
(30,495,o),
(24,516,o),
(24,532,cs),
(24,571,o),
(62,606,o),
(104,606,cs),
(140,606,o),
(164,587,o),
(183,542,cs),
(256,378,l),
(330,546,ls),
(348,588,o),
(371,606,o),
(405,606,cs),
(443,606,o),
(479,573,o),
(479,537,cs),
(479,521,o),
(474,502,o),
(463,482,cs),
(327,220,l),
(327,84,ls),
(327,24,o),
(298,-11,o),
(249,-11,cs),
(200,-11,o),
(171,24,o),
(171,84,cs),
(171,220,l)
);
}
);
width = 498;
}
);
note = Y;
unicode = 89;
},
{
glyphname = Z;
kernLeft = Z;
kernRight = Z;
layers = (
{
layerId = m01;
shapes = (
{
closed = 1;
nodes = (
(105,458,ls),
(51,458,o),
(20,483,o),
(20,527,cs),
(20,571,o),
(51,596,o),
(105,596,cs),
(353,596,ls),
(403,596,o),
(445,575,o),
(445,520,cs),
(445,503,o),
(439,489,o),
(422,464,cs),
(193,138,l),
(375,138,ls),
(428,138,o),
(459,113,o),
(459,69,cs),
(459,25,o),
(428,0,o),
(375,0,cs),
(87,0,ls),
(36,0,o),
(-7,22,o),
(-7,78,cs),
(-7,95,o),
(-1,110,o),
(17,135,cs),
(241,458,l)
);
}
);
width = 453;
}
);
note = Z;
unicode = 90;
},
{
glyphname = bracketleft;
layers = (
{
layerId = m01;
shapes = (
{
closed = 1;
nodes = (
(252,-30,l),
(261,-30,ls),
(300,-30,o),
(327,-56,o),
(327,-91,cs),
(327,-138,o),
(291,-153,o),
(252,-153,cs),
(145,-153,ls),
(110,-153,o),
(96,-139,o),
(96,-104,cs),
(96,599,ls),
(96,634,o),
(110,648,o),
(145,648,cs),
(251,648,ls),
(291,648,o),
(327,633,o),
(327,586,cs),
(327,550,o),
(299,524,o),
(261,524,cs),
(252,524,l)
);
}
);
width = 347;
}
);
note = bracketleft;
unicode = 91;
},
{
glyphname = backslash;
layers = (
{
layerId = m01;
shapes = (
{
closed = 1;
nodes = (
(12,492,ls),
(7,508,o),
(5,523,o),
(5,537,cs),
(5,574,o),
(40,607,o),
(80,607,cs),
(120,607,o),
(144,584,o),
(159,535,cs),
(286,104,ls),
(290,89,o),
(293,73,o),
(293,59,cs),
(293,22,o),
(258,-11,o),
(217,-11,cs),
(178,-11,o),
(153,12,o),
(139,61,cs)
);
}
);
width = 297;
}
);
note = backslash;
unicode = 92;
},
{
glyphname = bracketright;
layers = (
{
layerId = m01;
shapes = (
{
closed = 1;
nodes = (
(95,525,l),
(86,525,ls),
(47,525,o),
(20,551,o),
(20,586,cs),
(20,633,o),
(56,648,o),
(95,648,cs),
(202,648,ls),
(237,648,o),
(251,634,o),
(251,599,cs),
(251,-104,ls),
(251,-139,o),
(237,-153,o),
(202,-153,cs),
(96,-153,ls),
(56,-153,o),
(20,-138,o),
(20,-91,cs),
(20,-55,o),
(48,-29,o),
(86,-29,cs),
(95,-29,l)
);
}
);
width = 347;
}
);
note = bracketright;
unicode = 93;
},
{
glyphname = asciicircum;
layers = (
{
layerId = m01;
shapes = (
{
closed = 1;
nodes = (
(188,293,ls),
(167,256,o),
(146,241,o),
(115,241,cs),
(76,241,o),
(40,275,o),
(40,311,cs),
(40,327,o),
(47,348,o),
(59,369,cs),
(174,562,ls),
(197,601,o),
(218,615,o),
(251,615,cs),
(284,615,o),
(304,601,o),
(328,562,cs),
(442,369,ls),
(454,348,o),
(461,327,o),
(461,311,cs),
(461,275,o),
(425,241,o),
(386,241,cs),
(356,241,o),
(335,256,o),
(314,293,cs),
(251,403,l)
);
}
);
width = 501;
}
);
note = asciicircum;
unicode = 94;
},
{
glyphname = underscore;
layers = (
{
layerId = m01;
shapes = (
{
closed = 1;
nodes = (
(449,-55,ls),
(489,-55,o),
(513,-74,o),
(513,-107,cs),
(513,-141,o),
(489,-160,o),
(449,-160,cs),
(36,-160,ls),
(-4,-160,o),
(-28,-141,o),
(-28,-108,cs),
(-28,-74,o),
(-4,-55,o),
(36,-55,cs)
);
}
);
width = 485;
}
);
note = underscore;
unicode = 95;
},
{
glyphname = grave;
layers = (
{
layerId = m01;
shapes = (
{
closed = 1;
nodes = (
(40,577,o),
(37,584,o),
(37,591,cs),
(37,610,o),
(50,621,o),
(73,621,cs),
(180,621,o),
(196,612,o),
(217,571,cs),
(250,505,ls),
(255,495,o),
(258,485,o),
(258,479,cs),
(258,459,o),
(240,443,o),
(220,443,cs),
(161,443,o),
(147,451,o),
(113,491,cs),
(48,567,ls)
);
}
);
width = 333;
}
);
note = grave;
unicode = 96;
},
{
glyphname = a;
kernLeft = a;
kernRight = a;
layers = (
{
layerId = m01;
shapes = (
{
closed = 1;
nodes = (
(266,264,ls),
(265,290,o),
(248,300,o),
(206,300,cs),
(184,300,o),
(154,295,o),
(131,287,cs),
(123,284,o),
(118,283,o),
(112,283,cs),
(82,283,o),
(58,308,o),
(58,339,cs),
(58,355,o),
(66,373,o),
(76,381,cs),
(101,400,o),
(162,413,o),
(228,413,cs),
(312,413,o),
(364,394,o),
(394,353,cs),
(412,328,o),
(416,302,o),
(416,225,cs),
(416,52,ls),
(416,13,o),
(388,-11,o),
(343,-11,cs),
(309,-11,o),
(291,3,o),
(282,36,c),
(253,2,o),
(219,-11,o),
(163,-11,cs),
(70,-11,o),
(19,35,o),
(19,121,cs),
(19,173,o),
(33,209,o),
(66,232,cs),
(96,253,o),
(142,262,o),
(208,262,cs),
(218,262,o),
(218,262,o),
(266,261,c)
);
},
{
closed = 1;
nodes = (
(259,178,o),
(255,178,o),
(250,178,cs),
(218,178,o),
(159,181,o),
(159,136,cs),
(159,113,o),
(171,103,o),
(200,103,cs),
(239,103,o),
(268,130,o),
(268,165,cs),
(268,177,l)
);
}
);
width = 458;
}
);
note = a;
unicode = 97;
},
{
glyphname = b;
kernRight = b;
layers = (
{
layerId = m01;
shapes = (
{
closed = 1;
nodes = (
(217,405,o),
(248,413,o),
(283,413,cs),
(386,413,o),
(444,342,o),
(444,217,cs),
(444,185,ls),
(444,61,o),
(385,-11,o),
(283,-11,cs),
(243,-11,o),
(216,-3,o),
(169,23,c),
(159,-14,o),
(137,-11,o),
(103,-11,cs),
(58,-11,o),
(43,24,o),
(43,62,cs),
(43,542,ls),
(43,599,o),
(70,632,o),
(117,632,cs),
(164,632,o),
(191,599,o),
(191,542,cs),
(191,389,l)
);
},
{
closed = 1;
nodes = (
(192,137,o),
(205,118,o),
(243,118,cs),
(280,118,o),
(295,139,o),
(295,193,cs),
(295,209,ls),
(295,263,o),
(281,284,o),
(243,284,cs),
(206,284,o),
(191,262,o),
(191,209,cs),
(191,193,ls)
);
}
);
width = 472;
}
);
note = b;
unicode = 98;
},
{
glyphname = c;
kernLeft = c;
kernRight = c;
layers = (
{
layerId = m01;
shapes = (
{
closed = 1;
nodes = (
(40,341,o),
(112,413,o),
(235,413,cs),
(289,413,o),
(329,401,o),
(350,379,cs),
(361,368,o),
(367,354,o),
(367,339,cs),
(367,309,o),
(345,272,o),
(313,272,cs),
(304,272,o),
(303,272,o),
(284,279,cs),
(275,283,o),
(266,284,o),
(254,284,cs),
(207,284,o),
(188,262,o),
(188,209,cs),
(188,193,ls),
(188,138,o),
(204,118,o),
(248,118,cs),
(267,118,o),
(271,119,o),
(297,129,cs),
(303,131,o),
(310,132,o),
(317,132,cs),
(350,132,o),
(376,98,o),
(376,66,cs),
(376,45,o),
(367,29,o),
(349,16,cs),
(324,-2,o),
(283,-11,o),
(228,-11,cs),
(108,-11,o),
(40,60,o),
(40,185,cs),
(40,217,ls)
);
}
);
width = 387;
}
);
note = c;
unicode = 99;
},
{
glyphname = d;
kernLeft = c;
layers = (
{
layerId = m01;
shapes = (
{
closed = 1;
nodes = (
(281,542,ls),
(281,599,o),
(308,632,o),
(355,632,cs),
(402,632,o),
(429,599,o),
(429,542,cs),
(429,49,ls),
(429,4,o),
(393,-11,o),
(354,-11,cs),
(323,-11,o),
(310,-3,o),
(303,23,c),
(252,-3,o),
(224,-11,o),
(184,-11,cs),
(84,-11,o),
(28,60,o),
(28,185,cs),
(28,217,ls),
(28,341,o),
(90,413,o),
(197,413,cs),
(230,413,o),
(258,405,o),
(281,389,c)
);
},
{
closed = 1;
nodes = (
(281,240,o),
(276,259,o),
(266,271,cs),
(258,280,o),
(246,284,o),
(229,284,cs),
(192,284,o),
(177,263,o),
(177,209,cs),
(177,193,ls),
(177,139,o),
(191,118,o),
(229,118,cs),
(266,118,o),
(281,139,o),
(281,193,cs),
(281,209,ls)
);
}
);
width = 472;
}
);
note = d;
unicode = 100;
},
{
glyphname = e;
kernLeft = c;
kernRight = e;
layers = (
{
layerId = m01;
shapes = (
{
closed = 1;
nodes = (
(175,149,ls),
(175,124,o),
(203,109,o),
(252,109,cs),
(286,109,o),
(328,114,o),
(350,120,cs),
(354,121,o),
(359,122,o),
(364,122,cs),
(395,122,o),
(419,97,o),
(419,64,cs),
(419,48,o),
(411,30,o),
(399,21,cs),
(376,2,o),
(312,-11,o),
(242,-11,cs),
(106,-11,o),
(28,57,o),
(28,175,cs),
(28,208,ls),
(28,340,o),
(101,413,o),
(232,413,cs),
(299,413,o),
(353,391,o),
(384,352,cs),
(405,325,o),
(423,271,o),
(423,232,cs),
(423,172,o),
(375,153,o),
(325,153,cs),
(175,153,l)
);
},
{
closed = 1;
nodes = (
(283,291,o),
(268,307,o),
(233,307,cs),
(195,307,o),
(178,290,o),
(173,247,c),
(290,247,l)
);
}
);
width = 449;
}
);
note = e;
unicode = 101;
},
{
glyphname = f;
kernLeft = f;
kernRight = f;
layers = (
{
layerId = m01;
shapes = (
{
closed = 1;
nodes = (
(68,441,ls),
(68,574,o),
(117,629,o),
(237,629,cs),
(317,629,o),
(361,604,o),
(361,559,cs),
(361,530,o),
(354,493,o),
(317,493,cs),
(295,494,o),
(274,505,o),
(252,505,cs),
(217,504,o),
(216,454,o),
(216,428,cs),
(216,402,l),
(243,402,ls),
(293,402,o),
(322,378,o),
(322,337,cs),
(322,296,o),
(293,272,o),
(243,272,cs),
(216,272,l),
(216,79,ls),
(216,22,o),
(189,-11,o),
(142,-11,cs),
(95,-11,o),
(68,22,o),
(68,79,cs),
(68,272,l),
(61,272,ls),
(21,272,o),
(-8,300,o),
(-8,337,cs),
(-8,374,o),
(21,402,o),
(61,402,cs),
(68,402,l)
);
}
);
width = 316;
}
);
note = f;
unicode = 102;
},
{
glyphname = g;
kernLeft = c;
layers = (
{
layerId = m01;
shapes = (
{
closed = 1;
nodes = (
(259,-1,o),
(223,-11,o),
(187,-11,cs),
(84,-11,o),
(28,55,o),
(28,175,cs),
(28,207,ls),
(28,338,o),
(90,413,o),
(199,413,cs),
(236,413,o),
(268,402,o),
(300,377,c),
(307,403,o),
(320,413,o),
(367,413,cs),
(414,413,o),
(429,377,o),
(429,338,cs),
(429,100,ls),
(429,-36,o),
(423,-78,o),
(395,-120,cs),
(357,-179,o),
(294,-208,o),
(204,-208,cs),
(92,-208,o),
(36,-183,o),
(36,-131,cs),
(36,-123,o),
(38,-115,o),
(41,-107,cs),
(49,-84,o),
(70,-69,o),
(93,-69,cs),
(104,-69,o),
(107,-70,o),
(122,-76,cs),
(140,-84,o),
(162,-88,o),
(183,-88,cs),
(247,-88,o),
(284,-55,o),
(284,3,cs),
(284,16,l)
);
},
{
closed = 1;
nodes = (
(280,264,o),
(267,284,o),
(229,284,cs),
(192,284,o),
(177,263,o),
(177,209,cs),
(177,193,ls),
(177,139,o),
(191,118,o),
(229,118,cs),
(266,118,o),
(281,139,o),
(281,193,cs),
(281,209,ls)
);
}
);
width = 472;
}
);
note = g;
unicode = 103;
},
{
glyphname = h;
kernLeft = h;
layers = (
{
layerId = m01;
shapes = (
{
closed = 1;
nodes = (
(220,408,o),
(246,413,o),
(280,413,cs),
(359,413,o),
(407,383,o),
(426,322,cs),
(434,299,o),
(437,266,o),
(437,211,cs),
(437,79,ls),
(437,22,o),
(410,-11,o),
(363,-11,cs),
(316,-11,o),
(289,22,o),
(289,79,cs),
(289,200,ls),
(289,234,o),
(287,255,o),
(280,268,cs),
(273,280,o),
(262,284,o),
(246,284,cs),
(229,284,o),
(216,280,o),
(208,269,cs),
(195,254,o),
(191,227,o),
(191,180,cs),
(191,79,ls),
(191,22,o),
(164,-11,o),
(117,-11,cs),
(70,-11,o),
(43,22,o),
(43,79,cs),
(43,542,ls),
(43,599,o),
(70,632,o),
(117,632,cs),
(164,632,o),
(191,599,o),
(191,542,cs),
(191,397,l)
);
}
);
width = 477;
}
);
note = h;
unicode = 104;
},
{
glyphname = i;
layers = (
{
layerId = m01;
shapes = (
{
closed = 1;
nodes = (
(169,607,o),
(200,576,o),
(200,529,cs),
(200,482,o),
(169,450,o),
(122,450,cs),
(74,450,o),
(43,481,o),
(43,529,cs),
(43,575,o),
(75,607,o),
(122,607,cs)
);
},
{
closed = 1;
nodes = (
(46,323,ls),
(46,380,o),
(73,413,o),
(120,413,cs),
(167,413,o),
(194,380,o),
(194,323,cs),
(194,79,ls),
(194,22,o),
(167,-11,o),
(120,-11,cs),
(73,-11,o),
(46,22,o),
(46,79,cs)
);
}
);
width = 243;
}
);
note = i;
unicode = 105;
},
{
glyphname = j;
layers = (
{
layerId = m01;
shapes = (
{
closed = 1;
nodes = (
(194,-83,o),
(170,-145,o),
(95,-179,cs),
(70,-191,o),
(41,-198,o),
(22,-198,cs),
(-9,-198,o),
(-31,-174,o),
(-31,-141,cs),
(-31,-107,o),
(-12,-96,o),
(14,-79,cs),
(38,-63,o),
(46,-42,o),
(46,11,cs),
(46,323,ls),
(46,380,o),
(73,413,o),
(120,413,cs),
(167,413,o),
(194,380,o),
(194,323,cs),
(194,72,ls)
);
},
{
closed = 1;
nodes = (
(169,607,o),
(200,576,o),
(200,529,cs),
(200,482,o),
(169,450,o),
(122,450,cs),
(74,450,o),
(43,481,o),
(43,529,cs),
(43,575,o),
(75,607,o),
(122,607,cs)
);
}
);
width = 243;
}
);
note = j;
unicode = 106;
},
{
glyphname = k;
kernRight = k;
layers = (
{
layerId = m01;
shapes = (
{
closed = 1;
nodes = (
(301,386,ls),
(318,402,o),
(335,410,o),
(349,410,cs),
(380,410,o),
(406,383,o),
(406,352,cs),
(406,336,o),
(397,320,o),
(378,303,cs),
(320,248,l),
(403,108,ls),
(415,89,o),
(421,70,o),
(421,55,cs),
(421,22,o),
(388,-9,o),
(352,-9,cs),
(324,-9,o),
(304,4,o),
(285,38,cs),
(191,198,l),
(191,79,ls),
(191,22,o),
(164,-11,o),
(117,-11,cs),
(70,-11,o),
(43,22,o),
(43,79,cs),
(43,542,ls),
(43,599,o),
(70,632,o),
(117,632,cs),
(164,632,o),
(191,599,o),
(191,542,cs),
(191,285,l)
);
}
);
width = 426;
}
);
note = k;
unicode = 107;
},
{
glyphname = l;
layers = (
{
layerId = m01;
shapes = (
{
closed = 1;
nodes = (
(137,-11,o),
(95,9,o),
(74,43,cs),
(51,80,o),
(44,124,o),
(44,227,cs),
(44,542,ls),
(44,599,o),
(71,632,o),
(118,632,cs),
(165,632,o),
(192,599,o),
(192,542,cs),
(192,199,ls),
(192,142,o),
(197,127,o),
(218,118,cs),
(241,107,o),
(256,84,o),
(256,48,cs),
(254,13,o),
(226,-11,o),
(189,-11,cs)
);
}
);
width = 251;
}
);
note = l;
unicode = 108;
},
{
glyphname = m;
kernLeft = m;
layers = (
{
layerId = m01;
shapes = (
{
closed = 1;
nodes = (
(208,406,o),
(236,413,o),
(280,413,cs),
(330,413,o),
(367,400,o),
(391,375,c),
(424,400,o),
(470,413,o),
(519,413,cs),
(592,413,o),
(637,383,o),
(656,322,cs),
(663,298,o),
(666,268,o),
(666,211,cs),
(666,79,ls),
(666,22,o),
(639,-11,o),
(592,-11,cs),
(545,-11,o),
(518,22,o),
(518,79,cs),
(518,200,ls),
(518,225,o),
(517,243,o),
(514,256,cs),
(509,277,o),
(499,284,o),
(482,284,cs),
(462,284,o),
(448,277,o),
(440,261,cs),
(432,245,o),
(429,220,o),
(429,183,cs),
(429,79,ls),
(429,22,o),
(402,-11,o),
(355,-11,cs),
(308,-11,o),
(281,22,o),
(281,79,cs),
(281,200,ls),
(281,228,o),
(280,248,o),
(276,261,cs),
(270,278,o),
(261,284,o),
(244,284,cs),
(224,284,o),
(210,277,o),
(202,260,cs),
(194,244,o),
(191,218,o),
(191,180,cs),
(191,79,ls),
(191,22,o),
(164,-11,o),
(117,-11,cs),
(70,-11,o),
(43,22,o),
(43,79,cs),
(43,352,ls),
(43,406,o),
(73,413,o),
(116,413,cs),
(139,413,o),
(164,406,o),
(169,386,c)
);
}
);
width = 706;
}
);
note = m;
unicode = 109;
},
{
glyphname = n;
kernLeft = m;
layers = (
{
layerId = m01;
shapes = (
{
closed = 1;
nodes = (
(209,406,o),
(238,413,o),
(285,413,cs),
(359,413,o),
(407,382,o),
(426,322,cs),
(434,299,o),
(437,266,o),
(437,211,cs),
(437,79,ls),
(437,22,o),
(410,-11,o),
(363,-11,cs),
(316,-11,o),
(289,22,o),
(289,79,cs),
(289,200,ls),
(289,230,o),
(287,251,o),
(282,264,cs),
(275,279,o),
(264,284,o),
(246,284,cs),
(226,284,o),
(212,278,o),
(204,263,cs),
(194,247,o),
(191,221,o),
(191,180,cs),
(191,79,ls),
(191,22,o),
(164,-11,o),
(117,-11,cs),
(70,-11,o),
(43,22,o),
(43,79,cs),
(43,352,ls),
(43,406,o),
(73,413,o),
(117,413,cs),
(139,413,o),
(165,406,o),
(169,386,c)
);
}
);
width = 477;
}
);
note = n;
unicode = 110;
},
{
glyphname = o;
kernLeft = c;
kernRight = b;
layers = (
{
layerId = m01;
shapes = (
{
closed = 1;
nodes = (
(28,342,o),
(101,413,o),
(230,413,cs),
(358,413,o),
(431,342,o),
(431,217,cs),
(431,185,ls),
(431,60,o),
(358,-11,o),
(230,-11,cs),
(101,-11,o),
(28,60,o),
(28,185,cs),
(28,217,ls)
);
},
{
closed = 1;
nodes = (
(282,263,o),
(267,284,o),
(230,284,cs),
(192,284,o),
(177,263,o),
(177,209,cs),
(177,193,ls),
(178,137,o),
(191,118,o),
(229,118,cs),
(267,118,o),
(282,139,o),
(282,193,cs),
(282,209,ls)
);
}
);
width = 459;
}
);
note = o;
unicode = 111;
},
{
glyphname = p;
kernRight = b;
layers = (
{
layerId = m01;
shapes = (
{
closed = 1;
nodes = (
(198,399,o),
(237,413,o),
(284,413,cs),
(386,413,o),
(444,342,o),
(444,217,cs),
(444,185,ls),
(444,61,o),
(385,-11,o),
(285,-11,cs),
(248,-11,o),
(216,-3,o),
(191,13,c),
(191,-121,ls),
(191,-178,o),
(164,-211,o),
(117,-211,cs),
(70,-211,o),
(43,-178,o),
(43,-121,cs),
(43,353,ls),
(43,391,o),
(65,413,o),
(111,413,cs),
(142,413,o),
(162,401,o),
(171,372,c)
);
},
{
closed = 1;
nodes = (
(192,137,o),
(205,118,o),
(243,118,cs),
(280,118,o),
(295,139,o),
(295,193,cs),
(295,209,ls),
(295,263,o),
(281,284,o),
(243,284,cs),
(206,284,o),
(191,262,o),
(191,209,cs),
(191,193,ls)
);
}
);
width = 472;
}
);
note = p;
unicode = 112;
},
{
glyphname = q;
kernLeft = c;
layers = (
{
layerId = m01;
shapes = (
{
closed = 1;
nodes = (
(253,-3,o),
(220,-10,o),
(181,-10,cs),
(84,-10,o),
(28,62,o),
(28,185,cs),
(28,217,ls),
(28,340,o),
(90,413,o),
(195,413,cs),
(241,413,o),
(275,400,o),
(301,372,c),
(310,401,o),
(325,413,o),
(369,413,cs),
(414,413,o),
(429,378,o),
(429,339,cs),
(429,-121,ls),
(429,-178,o),
(402,-211,o),
(355,-211,cs),
(308,-211,o),
(281,-178,o),
(281,-121,cs),
(281,13,l)
);
},
{
closed = 1;
nodes = (
(177,139,o),
(191,119,o),
(229,119,cs),
(266,119,o),
(281,140,o),
(281,193,cs),
(281,209,ls),
(281,238,o),
(277,257,o),
(268,268,cs),
(260,279,o),
(247,284,o),
(229,284,cs),
(191,284,o),
(177,263,o),
(177,209,cs),
(177,193,ls)
);
}
);
width = 472;
}
);
note = q;
unicode = 113;
},
{
glyphname = r;
kernLeft = m;
kernRight = r;
layers = (
{
layerId = m01;
shapes = (
{
closed = 1;
nodes = (
(211,389,o),
(249,404,o),
(277,404,cs),
(313,404,o),
(339,377,o),
(339,340,cs),
(339,287,o),
(306,277,o),
(262,267,cs),
(208,255,o),
(191,223,o),
(191,129,cs),
(191,79,ls),
(191,22,o),
(164,-11,o),
(117,-11,cs),
(70,-11,o),
(43,22,o),
(43,79,cs),
(43,352,ls),
(43,388,o),
(70,413,o),
(110,413,cs),
(145,413,o),
(164,398,o),
(172,363,c)
);
}
);
width = 347;
}
);
note = r;
unicode = 114;
},
{
glyphname = s;
kernLeft = s;
kernRight = s;
layers = (
{
layerId = m01;
shapes = (
{
closed = 1;
nodes = (
(116,-11,o),
(63,-2,o),
(34,18,cs),
(15,30,o),
(5,47,o),
(5,68,cs),
(5,102,o),
(33,132,o),
(66,132,cs),
(72,132,o),
(81,131,o),
(92,127,c),
(135,116,o),
(170,110,o),
(199,110,cs),
(221,110,o),
(230,114,o),
(230,126,cs),
(230,137,o),
(228,138,o),
(183,148,cs),
(109,166,o),
(29,178,o),
(29,273,cs),
(29,363,o),
(88,413,o),
(197,413,cs),
(255,413,o),
(295,405,o),
(319,389,cs),
(335,378,o),
(343,362,o),
(343,343,cs),
(343,309,o),
(316,281,o),
(285,281,cs),
(277,281,o),
(277,281,o),
(242,288,cs),
(229,291,o),
(216,292,o),
(204,292,cs),
(180,292,o),
(171,288,o),
(171,278,cs),
(171,269,o),
(171,269,o),
(245,250,cs),
(339,227,o),
(372,194,o),
(372,125,cs),
(372,35,o),
(312,-11,o),
(192,-11,cs)
);
}
);
width = 388;
}
);
note = s;
unicode = 115;
},
{
glyphname = t;
kernLeft = t;
kernRight = t;
layers = (
{
layerId = m01;
shapes = (
{
closed = 1;
nodes = (
(60,272,ls),
(21,272,o),
(-8,300,o),
(-8,337,cs),
(-8,374,o),
(21,402,o),
(60,402,cs),
(67,402,l),
(72,458,ls),
(77,510,o),
(102,538,o),
(144,538,cs),
(188,538,o),
(214,507,o),
(214,452,cs),
(214,402,l),
(272,402,ls),
(322,402,o),
(351,378,o),
(351,337,cs),
(351,296,o),
(322,272,o),
(272,272,cs),
(214,272,l),
(214,198,ls),
(214,143,o),
(225,127,o),
(260,127,cs),
(272,127,o),
(274,127,o),
(299,130,cs),
(300,130,o),
(302,130,o),
(305,130,cs),
(341,130,o),
(367,99,o),
(367,64,cs),
(367,12,o),
(320,-11,o),
(212,-11,cs),
(150,-11,o),
(108,9,o),
(86,49,cs),
(73,73,o),
(66,119,o),
(66,184,cs),
(66,272,l)
);
}
);
width = 360;
}
);
note = t;
unicode = 116;
},
{
glyphname = u;
kernLeft = u;
layers = (
{
layerId = m01;
shapes = (
{
closed = 1;
nodes = (
(265,-3,o),
(234,-11,o),
(196,-11,cs),
(116,-11,o),
(70,18,o),
(50,80,cs),
(43,104,o),
(40,135,o),
(40,191,cs),
(40,323,ls),
(40,380,o),
(67,413,o),
(114,413,cs),
(161,413,o),
(188,380,o),
(188,323,cs),
(188,202,ls),
(188,172,o),
(190,152,o),
(195,139,cs),
(200,123,o),
(211,118,o),
(227,118,cs),
(247,118,o),
(259,124,o),
(267,141,cs),
(275,157,o),
(278,183,o),
(278,222,cs),
(278,323,ls),
(278,380,o),
(305,413,o),
(352,413,cs),
(399,413,o),
(426,380,o),
(426,323,cs),
(426,50,ls),
(426,-4,o),
(393,-11,o),
(349,-11,cs),
(328,-11,o),
(304,-4,o),
(300,16,c)
);
}
);
width = 469;
}
);
note = u;
unicode = 117;
},
{
glyphname = v;
kernLeft = v;
kernRight = v;
layers = (
{
layerId = m01;
shapes = (
{
closed = 1;
nodes = (
(271,351,ls),
(284,393,o),
(306,412,o),
(341,412,cs),
(376,412,o),
(408,382,o),
(408,349,cs),
(408,336,o),
(405,321,o),
(398,305,cs),
(305,68,ls),
(283,13,o),
(255,-10,o),
(211,-10,cs),
(165,-10,o),
(137,14,o),
(116,70,cs),
(31,295,ls),
(24,312,o),
(21,328,o),
(21,342,cs),
(21,380,o),
(56,412,o),
(96,412,cs),
(133,412,o),
(157,391,o),
(172,345,cs),
(222,198,l)
);
}
);
width = 428;
}
);
note = v;
unicode = 118;
},
{
glyphname = w;
kernLeft = v;
kernRight = v;
layers = (
{
layerId = m01;
shapes = (
{
closed = 1;
nodes = (
(250,344,ls),
(266,391,o),
(290,412,o),
(329,412,cs),
(368,412,o),
(392,390,o),
(407,342,cs),
(449,207,l),
(488,348,ls),
(501,392,o),
(524,413,o),
(559,413,cs),
(595,413,o),
(627,383,o),
(627,350,cs),
(627,337,o),
(624,321,o),
(619,307,cs),
(536,64,ls),
(518,13,o),
(492,-10,o),
(450,-10,cs),
(407,-10,o),
(380,14,o),
(363,67,cs),
(321,200,l),
(278,67,ls),
(260,14,o),
(233,-10,o),
(190,-10,cs),
(146,-10,o),
(119,14,o),
(102,68,cs),
(28,300,ls),
(23,315,o),
(20,331,o),
(20,344,cs),
(20,381,o),
(54,413,o),
(94,413,cs),
(132,413,o),
(157,389,o),
(170,341,cs),
(204,207,l)
);
}
);
width = 649;
}
);
note = w;
unicode = 119;
},
{
glyphname = x;
kernLeft = x;
kernRight = x;
layers = (
{
layerId = m01;
shapes = (
{
closed = 1;
nodes = (
(66,282,ls),
(48,303,o),
(38,323,o),
(38,340,cs),
(38,378,o),
(71,411,o),
(110,411,cs),
(133,411,o),
(152,400,o),
(174,373,cs),
(239,296,l),
(297,374,ls),
(316,400,o),
(333,411,o),
(355,411,cs),
(389,411,o),
(418,382,o),
(418,349,cs),
(418,334,o),
(410,316,o),
(395,298,cs),
(318,204,l),
(389,120,ls),
(407,99,o),
(417,79,o),
(417,62,cs),
(417,24,o),
(384,-9,o),
(345,-9,cs),
(322,-9,o),
(304,2,o),
(281,28,cs),
(207,115,l),
(135,26,ls),
(116,1,o),
(99,-9,o),
(78,-9,cs),
(43,-9,o),
(14,20,o),
(14,54,cs),
(14,69,o),
(22,87,o),
(38,106,cs),
(126,211,l)
);
}
);
width = 451;
}
);
note = x;
unicode = 120;
},
{
glyphname = y;
kernLeft = v;
kernRight = v;
layers = (
{
layerId = m01;
shapes = (
{
closed = 1;
nodes = (
(28,299,ls),
(23,314,o),
(19,332,o),
(19,346,cs),
(19,380,o),
(54,412,o),
(92,412,cs),
(130,412,o),
(154,390,o),
(167,343,cs),
(214,177,l),
(264,348,ls),
(277,391,o),
(299,412,o),
(335,412,cs),
(372,412,o),
(404,382,o),
(404,348,cs),
(404,335,o),
(401,319,o),
(394,303,cs),
(266,-17,ls),
(235,-93,o),
(229,-106,o),
(202,-140,cs),
(173,-176,o),
(130,-198,o),
(89,-198,cs),
(57,-198,o),
(35,-174,o),
(35,-137,cs),
(35,-107,o),
(45,-93,o),
(78,-75,cs),
(98,-64,o),
(108,-52,o),
(125,-18,cs),
(134,1,l)
);
}
);
width = 424;
}
);
note = y;
unicode = 121;
},
{
glyphname = z;
kernLeft = z;
kernRight = z;
layers = (
{
layerId = m01;
shapes = (
{
closed = 1;
nodes = (
(301,131,ls),
(352,131,o),
(381,107,o),
(381,65,cs),
(381,24,o),
(352,0,o),
(301,0,cs),
(79,0,ls),
(34,0,o),
(-7,19,o),
(-7,71,cs),
(-7,94,o),
(1,109,o),
(27,133,cs),
(173,271,l),
(95,271,ls),
(44,271,o),
(15,295,o),
(15,337,cs),
(15,378,o),
(44,402,o),
(95,402,cs),
(280,402,ls),
(326,402,o),
(367,383,o),
(367,331,cs),
(367,308,o),
(359,293,o),
(333,269,cs),
(187,131,l)
);
}
);
width = 377;
}
);
note = z;
unicode = 122;
},
{
glyphname = braceleft;
layers = (
{
layerId = m01;
shapes = (
{
closed = 1;
nodes = (
(254,261,o),
(260,240,o),
(260,152,cs),
(260,39,ls),
(260,-34,o),
(268,-50,o),
(305,-53,cs),
(336,-56,o),
(355,-75,o),
(355,-103,cs),
(355,-135,o),
(333,-153,o),
(295,-153,cs),
(264,-153,ls),
(103,-153,o),
(112,-76,o),
(112,61,cs),
(112,177,ls),
(112,234,o),
(106,245,o),
(74,251,cs),
(57,254,o),
(45,269,o),
(45,287,cs),
(45,307,o),
(57,319,o),
(82,323,cs),
(105,327,o),
(112,343,o),
(112,396,cs),
(112,434,ls),
(112,571,o),
(103,648,o),
(295,648,cs),
(333,648,o),
(355,630,o),
(355,598,cs),
(355,570,o),
(336,551,o),
(305,548,cs),
(268,545,o),
(260,529,o),
(260,456,cs),
(260,421,ls),
(260,333,o),
(254,312,o),
(223,286,c)
);
}
);
width = 347;
}
);
note = braceleft;
unicode = 123;
},
{
glyphname = bar;
layers = (
{
layerId = m01;
shapes = (
{
closed = 1;
nodes = (
(101,513,ls),
(101,572,o),
(129,607,o),
(178,607,cs),
(227,607,o),
(255,572,o),
(255,513,cs),
(255,-86,ls),
(255,-145,o),
(227,-180,o),
(178,-180,cs),
(129,-180,o),
(101,-145,o),
(101,-86,cs)
);
}
);
width = 356;
}
);
note = bar;
unicode = 124;
},
{
glyphname = braceright;
layers = (
{
layerId = m01;
shapes = (
{
closed = 1;
nodes = (
(146,261,o),
(140,240,o),
(140,152,cs),
(140,39,ls),
(140,-34,o),
(132,-50,o),
(95,-53,cs),
(64,-56,o),
(45,-75,o),
(45,-103,cs),
(45,-135,o),
(67,-153,o),
(105,-153,cs),
(136,-153,ls),
(297,-153,o),
(288,-76,o),
(288,61,cs),
(288,177,ls),
(288,234,o),
(294,245,o),
(326,251,cs),
(343,254,o),
(355,269,o),
(355,287,cs),
(355,307,o),
(343,319,o),
(318,323,cs),
(295,327,o),
(288,343,o),
(288,396,cs),
(288,434,ls),
(288,571,o),
(297,648,o),
(105,648,cs),
(67,648,o),
(45,630,o),
(45,598,cs),
(45,570,o),
(64,551,o),
(95,548,cs),
(132,545,o),
(140,529,o),
(140,456,cs),
(140,421,ls),
(140,333,o),
(146,312,o),
(177,286,c)
);
}
);
width = 347;
}
);
note = braceright;
unicode = 125;
},
{
glyphname = asciitilde;
layers = (
{
layerId = m01;
shapes = (
{
closed = 1;
nodes = (
(442,324,o),
(436,303,o),
(426,282,cs),
(399,225,o),
(366,203,o),
(303,203,cs),
(266,203,o),
(248,210,o),
(195,246,cs),
(186,253,o),
(178,256,o),
(172,256,cs),
(164,256,o),
(160,252,o),
(150,236,cs),
(137,215,o),
(120,205,o),
(98,205,cs),
(66,205,o),
(37,230,o),
(37,263,cs),
(37,276,o),
(43,297,o),
(53,318,cs),
(80,375,o),
(113,397,o),
(176,397,cs),
(213,397,o),
(231,390,o),
(284,354,cs),
(293,347,o),
(301,344,o),
(307,344,cs),
(315,344,o),
(319,348,o),
(329,364,cs),
(342,385,o),
(359,395,o),
(381,395,cs),
(412,395,o),
(442,370,o),
(442,337,cs)
);
}
);
width = 480;
}
);
note = asciitilde;
unicode = 126;
},
{
glyphname = exclamdown;
layers = (
{
layerId = m01;
shapes = (
{
closed = 1;
nodes = (
(92,182,o),
(118,212,o),
(161,212,cs),
(205,212,o),
(230,182,o),
(233,128,cs),
(242,-114,ls),
(242,-166,o),
(218,-210,o),
(161,-210,cs),
(111,-210,o),
(80,-174,o),
(80,-117,cs),
(90,128,ls)
);
},
{
closed = 1;
nodes = (
(110,258,o),
(75,293,o),
(75,345,cs),
(75,397,o),
(110,432,o),
(162,432,cs),
(214,432,o),
(249,397,o),
(249,345,cs),
(249,293,o),
(214,258,o),
(162,258,cs)
);
}
);
width = 322;
}
);
note = exclamdown;
unicode = 161;
},
{
glyphname = cent;
layers = (
{
layerId = m01;
shapes = (
{
closed = 1;
nodes = (
(295,648,ls),
(299,676,o),
(312,690,o),
(335,690,cs),
(358,690,o),
(373,673,o),
(373,649,cs),
(373,645,o),
(373,640,o),
(372,636,cs),
(284,31,ls),
(279,3,o),
(266,-11,o),
(243,-11,cs),
(220,-11,o),
(205,6,o),
(205,30,cs),
(205,34,o),
(205,39,o),
(206,43,cs)
);
},
{
closed = 1;
nodes = (
(120,133,o),
(50,201,o),
(50,346,cs),
(50,503,o),
(115,569,o),
(267,569,cs),
(317,569,o),
(357,562,o),
(383,550,cs),
(411,537,o),
(425,517,o),
(425,492,cs),
(425,459,o),
(400,431,o),
(366,431,cs),
(358,431,o),
(355,432,o),
(341,436,cs),
(324,441,o),
(307,444,o),
(289,444,cs),
(227,444,o),
(198,416,o),
(198,357,cs),
(198,290,o),
(226,262,o),
(294,262,cs),
(316,262,o),
(318,262,o),
(359,272,cs),
(363,273,o),
(368,274,o),
(374,274,cs),
(407,274,o),
(437,243,o),
(437,211,cs),
(437,137,o),
(321,133,o),
(270,133,cs)
);
}
);
width = 480;
}
);
note = cent;
unicode = 162;
},
{
glyphname = sterling;
layers = (
{
layerId = m01;
shapes = (
{
closed = 1;
nodes = (
(109,233,l),
(98,233,ls),
(58,233,o),
(29,259,o),
(29,296,cs),
(29,334,o),
(58,360,o),
(97,360,cs),
(107,360,l),
(107,392,ls),
(107,477,o),
(117,521,o),
(145,553,cs),
(177,589,o),
(226,607,o),
(295,607,cs),
(361,607,o),
(408,597,o),
(434,576,cs),
(451,563,o),
(460,546,o),
(460,526,cs),
(460,492,o),
(432,458,o),
(399,458,cs),
(385,458,o),
(377,461,o),
(357,467,cs),
(345,471,o),
(333,473,o),
(320,473,cs),
(279,473,o),
(264,451,o),
(264,392,cs),
(264,360,l),
(300,360,ls),
(349,360,o),
(378,337,o),
(378,297,cs),
(378,256,o),
(349,233,o),
(300,233,cs),
(264,233,l),
(264,131,l),
(395,131,ls),
(446,131,o),
(475,107,o),
(475,65,cs),
(475,24,o),
(446,0,o),
(395,0,cs),
(109,0,ls),
(58,0,o),
(29,24,o),
(29,65,cs),
(29,104,o),
(58,131,o),
(99,131,cs),
(109,131,l)
);
}
);
width = 480;
}
);
note = sterling;
unicode = 163;
},
{
glyphname = currency;
layers = (
{
layerId = m01;
shapes = (
{
closed = 1;
nodes = (
(370,473,o),
(435,396,o),
(435,269,cs),
(435,142,o),
(370,64,o),
(241,64,cs),
(112,64,o),
(47,142,o),
(47,269,cs),
(47,395,o),
(112,473,o),
(241,473,cs)
);
},
{
closed = 1;
nodes = (
(202,349,o),
(181,321,o),
(181,269,cs),
(181,216,o),
(202,188,o),
(241,188,cs),
(280,188,o),
(301,216,o),
(301,269,cs),
(301,321,o),
(280,349,o),
(241,349,cs)
);
},
{
closed = 1;
nodes = (
(88,344,l),
(34,399,ls),
(20,413,o),
(13,428,o),
(13,443,cs),
(13,475,o),
(40,502,o),
(72,502,cs),
(88,502,o),
(104,494,o),
(122,475,cs),
(166,431,l)
);
},
{
closed = 1;
nodes = (
(314,431,l),
(365,483,ls),
(378,495,o),
(393,502,o),
(408,502,cs),
(440,502,o),
(467,475,o),
(467,443,cs),
(467,427,o),
(459,411,o),
(441,393,cs),
(392,344,l)
);
},
{
closed = 1;
nodes = (
(166,107,l),
(115,55,ls),
(103,43,o),
(88,36,o),
(72,36,cs),
(40,36,o),
(13,63,o),
(13,95,cs),
(13,111,o),
(21,127,o),
(39,145,cs),
(88,194,l)
);
},
{
closed = 1;
nodes = (
(392,194,l),
(447,139,ls),
(460,125,o),
(467,110,o),
(467,94,cs),
(467,63,o),
(440,36,o),
(408,36,cs),
(392,36,o),
(376,44,o),
(358,63,cs),
(314,107,l)
);
}
);
width = 480;
}
);
note = currency;
unicode = 164;
},
{
glyphname = yen;
layers = (
{
layerId = m01;
shapes = (
{
closed = 1;
nodes = (
(405,185,ls),
(438,185,o),
(457,169,o),
(457,142,cs),
(457,115,o),
(438,99,o),
(405,99,cs),
(81,99,ls),
(47,99,o),
(28,115,o),
(28,142,cs),
(28,169,o),
(47,185,o),
(81,185,cs)
);
},
{
closed = 1;
nodes = (
(405,305,ls),
(438,305,o),
(457,289,o),
(457,262,cs),
(457,235,o),
(438,219,o),
(405,219,cs),
(81,219,ls),
(47,219,o),
(28,235,o),
(28,262,cs),
(28,289,o),
(47,305,o),
(81,305,cs)
);
},
{
closed = 1;
nodes = (
(41,477,ls),
(31,498,o),
(26,517,o),
(26,533,cs),
(26,571,o),
(64,606,o),
(105,606,cs),
(141,606,o),
(165,587,o),
(184,542,cs),
(249,390,l),
(314,546,ls),
(332,588,o),
(354,606,o),
(388,606,cs),
(427,606,o),
(462,574,o),
(462,538,cs),
(462,523,o),
(457,505,o),
(448,485,cs),
(320,220,l),
(320,84,ls),
(320,24,o),
(291,-11,o),
(242,-11,cs),
(193,-11,o),
(164,24,o),
(164,84,cs),
(164,220,l)
);
}
);
width = 480;
}
);
note = yen;
unicode = 165;
},
{
glyphname = brokenbar;
layers = (
{
layerId = m01;
shapes = (
{
closed = 1;
nodes = (
(101,234,o),
(129,269,o),
(178,269,cs),
(227,269,o),
(255,234,o),
(255,175,cs),
(255,83,ls),
(255,24,o),
(227,-11,o),
(178,-11,cs),
(129,-11,o),
(101,24,o),
(101,83,cs),
(101,175,ls)
);
},
{
closed = 1;
nodes = (
(101,572,o),
(129,607,o),
(178,607,cs),
(227,607,o),
(255,572,o),
(255,513,cs),
(255,426,ls),
(255,367,o),
(227,332,o),
(178,332,cs),
(129,332,o),
(101,367,o),
(101,426,cs),
(101,513,ls)
);
}
);
width = 356;
}
);
note = brokenbar;
unicode = 166;
},
{
glyphname = section;
layers = (
{
layerId = m01;
shapes = (
{
closed = 1;
nodes = (
(271,203,l),
(300,225,o),
(311,240,o),
(311,258,cs),
(311,298,o),
(231,309,o),
(205,316,cs),
(95,346,o),
(66,375,o),
(66,452,cs),
(66,554,o),
(130,608,o),
(250,608,cs),
(286,608,o),
(359,605,o),
(395,576,cs),
(407,567,o),
(415,554,o),
(416,537,cs),
(418,502,o),
(397,465,o),
(359,465,cs),
(349,465,o),
(349,465,o),
(324,473,cs),
(302,480,o),
(281,483,o),
(259,483,cs),
(230,483,o),
(214,474,o),
(214,458,cs),
(214,443,o),
(221,440,o),
(272,428,cs),
(399,399,o),
(445,363,o),
(445,291,cs),
(445,233,o),
(425,204,o),
(349,153,c)
);
},
{
closed = 1;
nodes = (
(217,322,l),
(188,300,o),
(177,285,o),
(177,268,cs),
(177,226,o),
(263,216,o),
(289,209,cs),
(404,179,o),
(435,150,o),
(435,73,cs),
(435,-29,o),
(367,-83,o),
(236,-83,cs),
(187,-83,o),
(130,-74,o),
(94,-61,cs),
(67,-52,o),
(50,-25,o),
(52,3,cs),
(55,33,o),
(80,61,o),
(111,61,cs),
(121,61,o),
(121,61,o),
(154,52,cs),
(178,45,o),
(203,42,o),
(229,42,cs),
(266,42,o),
(287,51,o),
(287,67,cs),
(287,82,o),
(280,85,o),
(226,97,cs),
(91,126,o),
(43,162,o),
(43,235,cs),
(43,293,o),
(62,320,o),
(138,372,c)
);
}
);
width = 485;
}
);
note = section;
unicode = 167;
},
{
glyphname = dieresis;
layers = (
{
layerId = m01;
shapes = (
{
closed = 1;
nodes = (
(117,604,o),
(147,574,o),
(147,529,cs),
(147,483,o),
(117,453,o),
(72,453,cs),
(26,453,o),
(-4,483,o),
(-4,529,cs),
(-4,574,o),
(26,604,o),
(72,604,cs)
);
},
{
closed = 1;
nodes = (
(307,604,o),
(337,574,o),
(337,529,cs),
(337,483,o),
(307,453,o),
(262,453,cs),
(216,453,o),
(186,483,o),
(186,529,cs),
(186,574,o),
(216,604,o),
(262,604,cs)
);
}
);
width = 333;
}
);
note = dieresis;
unicode = 168;
},
{
glyphname = copyright;
layers = (
{
layerId = m01;
shapes = (
{
closed = 1;
nodes = (
(233,406,o),
(291,459,o),
(393,459,cs),
(435,459,o),
(466,450,o),
(483,434,cs),
(492,426,o),
(497,415,o),
(497,402,cs),
(497,379,o),
(480,350,o),
(454,350,cs),
(447,350,o),
(447,350,o),
(432,356,cs),
(425,358,o),
(418,359,o),
(409,359,cs),
(373,359,o),
(359,344,o),
(359,306,cs),
(359,294,ls),
(359,255,o),
(371,241,o),
(404,241,cs),
(419,241,o),
(421,241,o),
(443,249,cs),
(447,250,o),
(452,251,o),
(457,251,cs),
(484,251,o),
(503,225,o),
(503,200,cs),
(503,181,o),
(493,166,o),
(474,157,cs),
(455,146,o),
(426,141,o),
(387,141,cs),
(290,141,o),
(233,195,o),
(233,289,cs),
(233,311,ls)
);
},
{
closed = 1;
nodes = (
(588,628,o),
(716,504,o),
(716,300,cs),
(716,96,o),
(588,-28,o),
(378,-28,cs),
(168,-28,o),
(40,96,o),
(40,300,cs),
(40,503,o),
(168,628,o),
(378,628,cs)
);
},
{
closed = 1;
nodes = (
(226,554,o),
(128,454,o),
(128,300,cs),
(128,146,o),
(226,46,o),
(378,46,cs),
(530,46,o),
(628,146,o),
(628,300,cs),
(628,454,o),
(530,554,o),
(378,554,cs)
);
}
);
width = 756;
}
);
note = copyright;
unicode = 169;
},
{
glyphname = ordfeminine;
layers = (
{
layerId = m01;
shapes = (
{
closed = 1;
nodes = (
(180,501,ls),
(180,520,o),
(172,528,o),
(152,528,cs),
(136,528,o),
(115,524,o),
(96,518,cs),
(84,514,o),
(83,514,o),
(77,514,cs),
(57,514,o),
(41,530,o),
(41,550,cs),
(41,565,o),
(50,577,o),
(67,583,cs),
(93,593,o),
(138,601,o),
(171,601,cs),
(207,601,o),
(236,594,o),
(258,580,cs),
(283,565,o),
(291,544,o),
(291,470,cs),
(291,378,ls),
(291,336,o),
(275,320,o),
(231,320,cs),
(209,320,o),
(200,327,o),
(197,347,c),
(173,330,o),
(155,325,o),
(119,325,cs),
(53,325,o),
(20,353,o),
(20,410,cs),
(20,473,o),
(56,498,o),
(149,498,cs),
(156,498,o),
(163,498,o),
(180,497,c)
);
},
{
closed = 1;
nodes = (
(173,442,o),
(169,442,o),
(163,442,cs),
(133,442,o),
(121,434,o),
(121,413,cs),
(121,398,o),
(130,390,o),
(145,390,cs),
(165,390,o),
(179,404,o),
(179,424,cs),
(179,442,l)
);
}
);
width = 326;
}
);
note = ordfeminine;
unicode = 170;
},
{
glyphname = guillemotleft;
layers = (
{
layerId = m01;
shapes = (
{
closed = 1;
nodes = (
(421,149,ls),
(429,134,o),
(434,119,o),
(434,107,cs),
(434,81,o),
(408,56,o),
(379,56,cs),
(360,56,o),
(347,64,o),
(329,86,cs),
(267,163,ls),
(242,195,o),
(237,206,o),
(237,230,cs),
(237,255,o),
(242,266,o),
(267,297,cs),
(329,375,ls),
(346,396,o),
(360,405,o),
(379,405,cs),
(407,405,o),
(434,380,o),
(434,354,cs),
(434,342,o),
(429,327,o),
(421,312,cs),
(374,230,l)
);
},
{
closed = 1;
nodes = (
(219,149,ls),
(227,134,o),
(232,119,o),
(232,107,cs),
(232,81,o),
(206,56,o),
(177,56,cs),
(158,56,o),
(145,64,o),
(127,86,cs),
(65,163,ls),
(40,195,o),
(35,206,o),
(35,230,cs),
(35,255,o),
(40,266,o),
(65,297,cs),
(127,375,ls),
(144,396,o),
(158,405,o),
(177,405,cs),
(205,405,o),
(232,380,o),
(232,354,cs),
(232,342,o),
(227,327,o),
(219,312,cs),
(172,230,l)
);
}
);
width = 469;
}
);
note = guillemotleft;
unicode = 171;
},
{
glyphname = logicalnot;
layers = (
{
layerId = m01;
shapes = (
{
closed = 1;
nodes = (
(112,238,ls),
(63,238,o),
(34,261,o),
(34,302,cs),
(34,342,o),
(63,365,o),
(112,365,cs),
(333,365,ls),
(394,365,o),
(413,318,o),
(413,267,cs),
(413,160,ls),
(413,103,o),
(386,70,o),
(339,70,cs),
(292,70,o),
(265,103,o),
(265,160,cs),
(265,238,l)
);
}
);
width = 480;
}
);
note = logicalnot;
unicode = 172;
},
{
glyphname = uni00AD;
layers = (
{
layerId = m01;
shapes = (
{
closed = 1;
nodes = (
(209,344,ls),
(266,344,o),
(299,317,o),
(299,270,cs),
(299,223,o),
(266,196,o),
(209,196,cs),
(103,196,ls),
(46,196,o),
(13,223,o),
(13,270,cs),
(13,317,o),
(46,344,o),
(103,344,cs)
);
}
);
width = 312;
}
);
note = uni00AD;
unicode = 173;
},
{
glyphname = registered;
layers = (
{
layerId = m01;
shapes = (
{
closed = 1;
nodes = (
(353,446,o),
(356,442,o),
(368,420,cs),
(374,409,ls),
(379,400,o),
(381,391,o),
(381,384,cs),
(381,367,o),
(365,352,o),
(347,352,cs),
(331,352,o),
(321,360,o),
(312,379,cs),
(291,427,ls),
(286,439,o),
(279,446,o),
(273,446,cs),
(269,446,l),
(269,396,ls),
(269,367,o),
(255,351,o),
(232,351,cs),
(209,351,o),
(195,367,o),
(195,396,cs),
(195,536,ls),
(195,594,o),
(214,597,o),
(264,597,cs),
(287,597,ls),
(365,597,o),
(385,578,o),
(385,523,cs),
(385,484,o),
(376,470,o),
(344,455,c)
);
},
{
closed = 1;
nodes = (
(282,490,ls),
(301,490,o),
(307,497,o),
(307,518,cs),
(307,539,o),
(301,546,o),
(283,546,cs),
(269,546,l),
(269,490,l)
);
},
{
closed = 1;
nodes = (
(440,727,o),
(533,638,o),
(533,479,cs),
(533,320,o),
(440,231,o),
(282,231,cs),
(123,231,o),
(30,320,o),
(30,479,cs),
(30,638,o),
(123,727,o),
(282,727,cs)
);
},
{
closed = 1;
nodes = (
(166,666,o),
(103,600,o),
(103,479,cs),
(103,358,o),
(166,292,o),
(282,292,cs),
(397,292,o),
(460,358,o),
(460,479,cs),
(460,600,o),
(397,666,o),
(282,666,cs)
);
}
);
width = 563;
}
);
note = registered;
unicode = 174;
},
{
glyphname = macron;
layers = (
{
layerId = m01;
shapes = (
{
closed = 1;
nodes = (
(259,591,ls),
(307,591,o),
(335,568,o),
(335,529,cs),
(335,490,o),
(307,467,o),
(259,467,cs),
(75,467,ls),
(27,467,o),
(-1,490,o),
(-1,529,cs),
(-1,568,o),
(27,591,o),
(75,591,cs)
);
}
);
width = 333;
}
);
note = macron;
unicode = 175;
},
{
glyphname = degree;
layers = (
{
layerId = m01;
shapes = (
{
closed = 1;
nodes = (
(235,640,o),
(289,587,o),
(289,503,cs),
(289,418,o),
(235,366,o),
(147,366,cs),
(61,366,o),
(6,419,o),
(6,502,cs),
(6,587,o),
(61,640,o),
(149,640,cs)
);
},
{
closed = 1;
nodes = (
(126,547,o),
(109,528,o),
(109,503,cs),
(109,478,o),
(126,459,o),
(148,459,cs),
(169,459,o),
(186,478,o),
(186,503,cs),
(186,528,o),
(169,547,o),
(148,547,cs)
);
}
);
width = 295;
}
);
note = degree;
unicode = 176;
},
{
glyphname = plusminus;
layers = (
{
layerId = m01;
shapes = (
{
closed = 1;
nodes = (
(365,127,ls),
(414,127,o),
(443,104,o),
(443,64,cs),
(443,23,o),
(414,0,o),
(365,0,cs),
(115,0,ls),
(66,0,o),
(37,23,o),
(37,64,cs),
(37,104,o),
(66,127,o),
(115,127,cs)
);
},
{
closed = 1;
nodes = (
(170,426,ls),
(170,480,o),
(196,511,o),
(240,511,cs),
(284,511,o),
(310,480,o),
(310,426,cs),
(310,397,l),
(365,397,ls),
(414,397,o),
(443,374,o),
(443,334,cs),
(443,293,o),
(414,270,o),
(365,270,cs),
(310,270,l),
(310,241,ls),
(310,187,o),
(284,156,o),
(240,156,cs),
(196,156,o),
(170,187,o),
(170,241,cs),
(170,270,l),
(115,270,ls),
(66,270,o),
(37,293,o),
(37,334,cs),
(37,374,o),
(66,397,o),
(115,397,cs),
(170,397,l)
);
}
);
width = 480;
}
);
note = plusminus;
unicode = 177;
},
{
glyphname = twosuperior;
layers = (
{
layerId = m01;
shapes = (
{
closed = 1;
nodes = (
(255,422,ls),
(288,422,o),
(307,407,o),
(307,380,cs),
(307,353,o),
(288,338,o),
(255,338,cs),
(62,338,ls),
(25,338,o),
(4,355,o),
(4,386,cs),
(4,407,o),
(12,417,o),
(59,456,cs),
(133,517,o),
(176,568,o),
(176,594,cs),
(176,610,o),
(164,620,o),
(146,620,cs),
(126,620,o),
(109,614,o),
(78,598,cs),
(71,594,o),
(63,592,o),
(56,592,cs),
(32,592,o),
(12,612,o),
(12,635,cs),
(12,654,o),
(21,666,o),
(44,678,cs),
(75,694,o),
(116,703,o),
(159,703,cs),
(248,703,o),
(290,672,o),
(290,606,cs),
(290,530,o),
(214,465,o),
(157,422,c)
);
}
);
width = 315;
}
);
note = twosuperior;
unicode = 178;
},
{
glyphname = threesuperior;
layers = (
{
layerId = m01;
shapes = (
{
closed = 1;
nodes = (
(284,521,o),
(298,496,o),
(298,448,cs),
(298,367,o),
(249,332,o),
(138,332,cs),
(97,332,o),
(54,338,o),
(32,347,cs),
(17,353,o),
(6,370,o),
(6,387,cs),
(6,410,o),
(24,432,o),
(48,432,cs),
(56,432,o),
(57,432,o),
(75,424,cs),
(93,417,o),
(110,414,o),
(129,414,cs),
(166,414,o),
(185,427,o),
(185,453,cs),
(185,477,o),
(169,485,o),
(123,485,cs),
(111,485,ls),
(83,485,o),
(65,500,o),
(65,524,cs),
(65,548,o),
(83,564,o),
(107,564,cs),
(113,564,ls),
(153,564,o),
(172,573,o),
(172,594,cs),
(172,610,o),
(157,620,o),
(134,620,cs),
(121,620,o),
(107,617,o),
(91,612,cs),
(67,603,o),
(67,603,o),
(58,603,cs),
(36,603,o),
(18,622,o),
(18,645,cs),
(18,659,o),
(25,670,o),
(38,679,cs),
(59,695,o),
(98,703,o),
(150,703,cs),
(242,703,o),
(283,673,o),
(283,607,cs),
(283,573,o),
(273,555,o),
(247,537,c)
);
}
);
width = 315;
}
);
note = threesuperior;
unicode = 179;
},
{
glyphname = acute;
layers = (
{
layerId = m01;
shapes = (
{
closed = 1;
nodes = (
(311,584,o),
(307,576,o),
(300,567,cs),
(236,491,ls),
(202,451,o),
(187,443,o),
(146,443,cs),
(108,443,o),
(90,460,o),
(90,478,cs),
(90,485,o),
(93,495,o),
(98,505,cs),
(132,571,ls),
(153,612,o),
(168,621,o),
(214,621,cs),
(298,621,o),
(311,610,o),
(311,590,cs)
);
}
);
width = 333;
}
);
note = acute;
unicode = 180;
},
{
glyphname = paragraph;
layers = (
{
layerId = m01;
shapes = (
{
closed = 1;
nodes = (
(169,231,ls),
(115,231,o),
(86,240,o),
(61,263,cs),
(28,295,o),
(11,344,o),
(11,405,cs),
(11,473,o),
(31,527,o),
(68,558,cs),
(102,587,o),
(145,596,o),
(239,596,cs),
(434,596,ls),
(495,596,o),
(514,549,o),
(514,498,cs),
(514,-121,ls),
(514,-172,o),
(490,-201,o),
(449,-201,cs),
(407,-201,o),
(383,-172,o),
(383,-121,cs),
(383,459,l),
(330,459,l),
(330,-121,ls),
(330,-172,o),
(306,-201,o),
(265,-201,cs),
(223,-201,o),
(199,-172,o),
(199,-121,cs),
(199,231,l)
);
}
);
width = 605;
}
);
note = paragraph;
unicode = 182;
},
{
glyphname = periodcentered;
layers = (
{
layerId = m01;
shapes = (
{
closed = 1;
nodes = (
(186,357,o),
(221,322,o),
(221,270,cs),
(221,218,o),
(186,183,o),
(134,183,cs),
(82,183,o),
(47,218,o),
(47,270,cs),
(47,322,o),
(82,357,o),
(134,357,cs)
);
}
);
width = 268;
}
);
note = periodcentered;
unicode = 183;
},
{
glyphname = cedilla;
layers = (
{
layerId = m01;
shapes = (
{
closed = 1;
nodes = (
(234,18,l),
(213,-21,l),
(272,-45,o),
(292,-70,o),
(292,-121,cs),
(292,-196,o),
(252,-228,o),
(159,-228,cs),
(119,-228,o),
(91,-222,o),
(75,-211,cs),
(63,-203,o),
(57,-191,o),
(57,-177,cs),
(57,-154,o),
(68,-127,o),
(95,-127,cs),
(100,-127,o),
(102,-127,o),
(110,-130,cs),
(121,-133,o),
(132,-135,o),
(142,-135,cs),
(157,-135,o),
(169,-126,o),
(169,-114,cs),
(169,-98,o),
(157,-91,o),
(112,-79,cs),
(99,-76,o),
(92,-69,o),
(92,-57,cs),
(92,-53,o),
(93,-49,o),
(97,-43,cs),
(131,18,l)
);
}
);
width = 333;
}
);
note = cedilla;
unicode = 184;
},
{
glyphname = onesuperior;
layers = (
{
layerId = m01;
shapes = (
{
closed = 1;
nodes = (
(57,587,ls),
(42,582,o),
(32,580,o),
(24,580,cs),
(3,580,o),
(-13,598,o),
(-13,620,cs),
(-13,640,o),
(-3,653,o),
(21,662,cs),
(78,685,ls),
(97,692,o),
(119,697,o),
(136,697,cs),
(182,697,o),
(192,679,o),
(192,599,cs),
(192,397,ls),
(192,353,o),
(171,327,o),
(135,327,cs),
(99,327,o),
(78,353,o),
(78,397,cs),
(78,594,l)
);
}
);
width = 236;
}
);
note = onesuperior;
unicode = 185;
},
{
glyphname = ordmasculine;
layers = (
{
layerId = m01;
shapes = (
{
closed = 1;
nodes = (
(25,559,o),
(73,601,o),
(163,601,cs),
(253,601,o),
(300,559,o),
(300,479,cs),
(300,447,ls),
(300,367,o),
(253,325,o),
(163,325,cs),
(73,325,o),
(25,367,o),
(25,447,cs),
(25,479,ls)
);
},
{
closed = 1;
nodes = (
(135,425,o),
(143,413,o),
(163,413,cs),
(182,413,o),
(192,426,o),
(192,451,cs),
(192,475,ls),
(192,500,o),
(182,513,o),
(163,513,cs),
(144,513,o),
(134,500,o),
(134,475,cs),
(134,451,ls)
);
}
);
width = 326;
}
);
note = ordmasculine;
unicode = 186;
},
{
glyphname = guillemotright;
layers = (
{
layerId = m01;
shapes = (
{
closed = 1;
nodes = (
(49,312,ls),
(40,327,o),
(35,342,o),
(35,354,cs),
(35,380,o),
(62,405,o),
(90,405,cs),
(109,405,o),
(123,397,o),
(140,375,cs),
(202,298,ls),
(227,266,o),
(232,255,o),
(232,230,cs),
(232,206,o),
(227,195,o),
(202,164,cs),
(140,86,ls),
(123,65,o),
(109,56,o),
(90,56,cs),
(62,56,o),
(35,81,o),
(35,107,cs),
(35,119,o),
(40,134,o),
(48,149,cs),
(95,231,l)
);
},
{
closed = 1;
nodes = (
(251,312,ls),
(242,327,o),
(237,342,o),
(237,354,cs),
(237,380,o),
(264,405,o),
(292,405,cs),
(311,405,o),
(325,397,o),
(342,375,cs),
(404,298,ls),
(429,266,o),
(434,255,o),
(434,230,cs),
(434,206,o),
(429,195,o),
(404,164,cs),
(342,86,ls),
(325,65,o),
(311,56,o),
(292,56,cs),
(264,56,o),
(237,81,o),
(237,107,cs),
(237,119,o),
(242,134,o),
(250,149,cs),
(297,231,l)
);
}
);
width = 469;
}
);
note = guillemotright;
unicode = 187;
},
{
glyphname = onequarter;
layers = (
{
layerId = m01;
shapes = (
{
closed = 1;
nodes = (
(92,487,ls),
(77,482,o),
(67,480,o),
(59,480,cs),
(38,480,o),
(22,498,o),
(22,520,cs),
(22,540,o),
(32,553,o),
(56,562,cs),
(113,585,ls),
(132,592,o),
(154,597,o),
(171,597,cs),
(217,597,o),
(227,579,o),
(227,499,cs),
(227,297,ls),
(227,253,o),
(206,227,o),
(170,227,cs),
(134,227,o),
(113,253,o),
(113,297,cs),
(113,494,l)
);
},
{
closed = 1;
nodes = (
(442,564,ls),
(457,594,o),
(473,606,o),
(497,606,cs),
(526,606,o),
(552,582,o),
(552,555,cs),
(552,544,o),
(549,530,o),
(541,516,c),
(306,32,ls),
(292,2,o),
(276,-10,o),
(251,-10,cs),
(223,-10,o),
(196,14,o),
(196,41,cs),
(196,52,o),
(200,66,o),
(207,80,cs)
);
},
{
closed = 1;
nodes = (
(712,48,ls),
(712,12,o),
(691,-11,o),
(660,-11,cs),
(629,-11,o),
(609,12,o),
(609,48,cs),
(609,62,l),
(503,62,ls),
(465,62,o),
(443,80,o),
(443,112,cs),
(443,122,o),
(446,132,o),
(456,147,cs),
(566,320,ls),
(589,355,o),
(608,368,o),
(637,368,cs),
(691,368,o),
(712,326,o),
(712,277,cs),
(712,146,l),
(726,146,ls),
(757,146,o),
(776,130,o),
(776,104,cs),
(776,78,o),
(757,62,o),
(726,62,cs),
(712,62,l)
);
},
{
closed = 1;
nodes = (
(611,252,l),
(541,143,l),
(611,143,l)
);
}
);
width = 779;
}
);
note = onequarter;
unicode = 188;
},
{
glyphname = onehalf;
layers = (
{
layerId = m01;
shapes = (
{
closed = 1;
nodes = (
(92,487,ls),
(77,482,o),
(67,480,o),
(59,480,cs),
(38,480,o),
(22,498,o),
(22,520,cs),
(22,540,o),
(32,553,o),
(56,562,cs),
(113,585,ls),
(132,592,o),
(154,597,o),
(171,597,cs),
(217,597,o),
(227,579,o),
(227,499,cs),
(227,297,ls),
(227,253,o),
(206,227,o),
(170,227,cs),
(134,227,o),
(113,253,o),
(113,297,cs),
(113,494,l)
);
},
{
closed = 1;
nodes = (
(418,564,ls),
(432,594,o),
(448,606,o),
(473,606,cs),
(501,606,o),
(528,582,o),
(528,555,cs),
(528,544,o),
(524,530,o),
(517,516,cs),
(282,32,ls),
(267,2,o),
(251,-10,o),
(227,-10,cs),
(198,-10,o),
(172,14,o),
(172,41,cs),
(172,52,o),
(175,66,o),
(182,80,cs)
);
},
{
closed = 1;
nodes = (
(696,84,ls),
(729,84,o),
(748,69,o),
(748,42,cs),
(748,15,o),
(729,0,o),
(696,0,cs),
(503,0,ls),
(466,0,o),
(445,17,o),
(445,48,cs),
(445,69,o),
(453,79,o),
(499,118,cs),
(574,179,o),
(617,230,o),
(617,256,cs),
(617,272,o),
(605,282,o),
(586,282,cs),
(566,282,o),
(549,276,o),
(519,260,cs),
(511,256,o),
(504,254,o),
(497,254,cs),
(472,254,o),
(453,274,o),
(453,297,cs),
(453,316,o),
(462,328,o),
(485,340,cs),
(516,356,o),
(556,365,o),
(600,365,cs),
(689,365,o),
(731,334,o),
(731,268,cs),
(731,192,o),
(655,127,o),
(598,84,c)
);
}
);
width = 779;
}
);
note = onehalf;
unicode = 189;
},
{
glyphname = threequarters;
layers = (
{
layerId = m01;
shapes = (
{
closed = 1;
nodes = (
(287,421,o),
(301,396,o),
(301,348,cs),
(301,267,o),
(252,232,o),
(141,232,cs),
(100,232,o),
(57,238,o),
(35,247,cs),
(20,253,o),
(9,270,o),
(9,287,cs),
(9,310,o),
(27,332,o),
(51,332,cs),
(59,332,o),
(60,332,o),
(78,324,cs),
(96,317,o),
(113,314,o),
(132,314,cs),
(169,314,o),
(188,327,o),
(188,353,cs),
(188,377,o),
(172,385,o),
(126,385,cs),
(114,385,ls),
(86,385,o),
(68,400,o),
(68,424,cs),
(68,448,o),
(86,464,o),
(110,464,cs),
(116,464,ls),
(156,464,o),
(175,473,o),
(175,494,cs),
(175,510,o),
(160,520,o),
(137,520,cs),
(124,520,o),
(110,517,o),
(94,512,cs),
(70,503,o),
(70,503,o),
(61,503,cs),
(39,503,o),
(21,522,o),
(21,545,cs),
(21,559,o),
(28,570,o),
(41,579,cs),
(62,595,o),
(101,603,o),
(153,603,cs),
(245,603,o),
(286,573,o),
(286,507,cs),
(286,473,o),
(276,455,o),
(250,437,c)
);
},
{
closed = 1;
nodes = (
(458,564,ls),
(472,594,o),
(488,606,o),
(513,606,cs),
(541,606,o),
(568,582,o),
(568,555,cs),
(568,544,o),
(564,530,o),
(557,516,cs),
(322,32,ls),
(307,2,o),
(291,-10,o),
(267,-10,cs),
(238,-10,o),
(212,14,o),
(212,41,cs),
(212,52,o),
(215,66,o),
(223,80,c)
);
},
{
closed = 1;
nodes = (
(709,48,ls),
(709,12,o),
(689,-11,o),
(657,-11,cs),
(626,-11,o),
(606,12,o),
(606,48,cs),
(606,62,l),
(500,62,ls),
(462,62,o),
(440,80,o),
(440,112,cs),
(440,122,o),
(444,132,o),
(454,147,cs),
(564,320,ls),
(586,355,o),
(605,368,o),
(635,368,cs),
(689,368,o),
(709,326,o),
(709,277,cs),
(709,146,l),
(724,146,ls),
(754,146,o),
(773,130,o),
(773,104,cs),
(773,78,o),
(754,62,o),
(724,62,cs),
(709,62,l)
);
},
{
closed = 1;
nodes = (
(608,252,l),
(539,143,l),
(608,143,l)
);
}
);
width = 779;
}
);
note = threequarters;
unicode = 190;
},
{
glyphname = questiondown;
layers = (
{
layerId = m01;
shapes = (
{
closed = 1;
nodes = (
(283,88,o),
(272,74,o),
(202,10,cs),
(175,-14,o),
(165,-30,o),
(165,-45,cs),
(165,-65,o),
(182,-80,o),
(206,-80,cs),
(229,-80,o),
(254,-72,o),
(279,-57,cs),
(294,-48,o),
(302,-45,o),
(315,-45,cs),
(347,-45,o),
(373,-72,o),
(373,-107,cs),
(373,-127,o),
(363,-145,o),
(346,-160,cs),
(313,-190,o),
(253,-209,o),
(184,-209,cs),
(67,-209,o),
(9,-158,o),
(9,-57,cs),
(9,-2,o),
(29,31,o),
(103,93,cs),
(136,122,o),
(140,129,o),
(140,158,cs),
(140,172,ls),
(140,201,o),
(157,212,o),
(204,212,cs),
(260,212,o),
(283,194,o),
(283,151,cs),
(283,121,ls)
);
},
{
closed = 1;
nodes = (
(162,258,o),
(127,293,o),
(127,345,cs),
(127,397,o),
(162,432,o),
(214,432,cs),
(266,432,o),
(301,397,o),
(301,345,cs),
(301,293,o),
(266,258,o),
(214,258,cs)
);
}
);
width = 381;
}
);
note = questiondown;
unicode = 191;
},
{
glyphname = Agrave;
kernLeft = A;
kernRight = A;
layers = (
{
layerId = m01;
shapes = (
{
closed = 1;
nodes = (
(168,107,l),
(151,56,ls),
(136,11,o),
(113,-10,o),
(76,-10,cs),
(37,-10,o),
(3,22,o),
(3,59,cs),
(3,72,o),
(6,87,o),
(13,104,cs),
(165,516,ls),
(188,579,o),
(220,606,o),
(272,606,cs),
(323,606,o),
(355,579,o),
(378,516,cs),
(531,110,ls),
(538,92,o),
(541,76,o),
(541,62,cs),
(541,23,o),
(506,-10,o),
(465,-10,cs),
(427,-10,o),
(402,12,o),
(387,59,cs),
(371,107,l)
);
},
{
closed = 1;
nodes = (
(271,417,l),
(206,233,l),
(334,233,l)
);
},
{
closed = 1;
nodes = (
(132,773,o),
(129,780,o),
(129,787,cs),
(129,806,o),
(142,817,o),
(165,817,cs),
(272,817,o),
(287,808,o),
(308,767,cs),
(342,701,ls),
(347,691,o),
(350,681,o),
(350,675,cs),
(350,655,o),
(332,639,o),
(311,639,cs),
(252,639,o),
(238,647,o),
(204,687,cs),
(140,763,ls)
);
}
);
width = 545;
}
);
note = Agrave;
unicode = 192;
},
{
glyphname = Aacute;
kernLeft = A;
kernRight = A;
layers = (
{
layerId = m01;
shapes = (
{
closed = 1;
nodes = (
(168,107,l),
(151,56,ls),
(136,11,o),
(113,-10,o),
(76,-10,cs),
(37,-10,o),
(3,22,o),
(3,59,cs),
(3,72,o),
(6,87,o),
(13,104,cs),
(165,516,ls),
(188,579,o),
(220,606,o),
(272,606,cs),
(323,606,o),
(355,579,o),
(378,516,cs),
(531,110,ls),
(538,92,o),
(541,76,o),
(541,62,cs),
(541,23,o),
(506,-10,o),
(465,-10,cs),
(427,-10,o),
(402,12,o),
(387,59,cs),
(371,107,l)
);
},
{
closed = 1;
nodes = (
(271,417,l),
(206,233,l),
(334,233,l)
);
},
{
closed = 1;
nodes = (
(417,780,o),
(414,772,o),
(406,763,cs),
(342,687,ls),
(308,647,o),
(294,639,o),
(252,639,cs),
(214,639,o),
(196,656,o),
(196,674,cs),
(196,681,o),
(199,691,o),
(204,701,cs),
(238,767,ls),
(259,808,o),
(274,817,o),
(320,817,cs),
(405,817,o),
(417,806,o),
(417,786,cs)
);
}
);
width = 545;
}
);
note = Aacute;
unicode = 193;
},
{
glyphname = Acircumflex;
kernLeft = A;
kernRight = A;
layers = (
{
layerId = m01;
shapes = (
{
closed = 1;
nodes = (
(168,107,l),
(151,56,ls),
(136,11,o),
(113,-10,o),
(76,-10,cs),
(37,-10,o),
(3,22,o),
(3,59,cs),
(3,72,o),
(6,87,o),
(13,104,cs),
(165,516,ls),
(188,579,o),
(220,606,o),
(272,606,cs),
(323,606,o),
(355,579,o),
(378,516,cs),
(531,110,ls),
(538,92,o),
(541,76,o),
(541,62,cs),
(541,23,o),
(506,-10,o),
(465,-10,cs),
(427,-10,o),
(402,12,o),
(387,59,cs),
(371,107,l)
);
},
{
closed = 1;
nodes = (
(271,417,l),
(206,233,l),
(334,233,l)
);
},
{
closed = 1;
nodes = (
(238,666,ls),
(222,640,o),
(206,630,o),
(185,630,cs),
(154,630,o),
(129,655,o),
(129,685,cs),
(129,697,o),
(133,709,o),
(141,720,cs),
(173,764,ls),
(207,810,o),
(232,826,o),
(272,826,cs),
(312,826,o),
(338,810,o),
(370,766,cs),
(403,722,ls),
(412,710,o),
(417,697,o),
(417,685,cs),
(417,655,o),
(391,630,o),
(361,630,cs),
(339,630,o),
(324,640,o),
(307,666,cs),
(273,719,l)
);
}
);
width = 545;
}
);
note = Acircumflex;
unicode = 194;
},
{
glyphname = Atilde;
kernLeft = A;
kernRight = A;
layers = (
{
layerId = m01;
shapes = (
{
closed = 1;
nodes = (
(168,107,l),
(151,56,ls),
(136,11,o),
(113,-10,o),
(76,-10,cs),
(37,-10,o),
(3,22,o),
(3,59,cs),
(3,72,o),
(6,87,o),
(13,104,cs),
(165,516,ls),
(188,579,o),
(220,606,o),
(272,606,cs),
(323,606,o),
(355,579,o),
(378,516,cs),
(531,110,ls),
(538,92,o),
(541,76,o),
(541,62,cs),
(541,23,o),
(506,-10,o),
(465,-10,cs),
(427,-10,o),
(402,12,o),
(387,59,cs),
(371,107,l)
);
},
{
closed = 1;
nodes = (
(271,417,l),
(206,233,l),
(334,233,l)
);
},
{
closed = 1;
nodes = (
(439,773,o),
(433,746,o),
(426,723,cs),
(408,666,o),
(378,640,o),
(330,640,cs),
(294,640,o),
(275,650,o),
(245,686,cs),
(236,697,o),
(231,700,o),
(222,700,cs),
(209,700,o),
(198,687,o),
(192,666,cs),
(187,647,o),
(169,634,o),
(142,634,cs),
(122,634,o),
(106,650,o),
(106,669,cs),
(106,678,o),
(110,696,o),
(115,717,cs),
(134,784,o),
(164,814,o),
(215,814,cs),
(250,814,o),
(274,801,o),
(300,768,cs),
(309,757,o),
(314,754,o),
(323,754,cs),
(336,754,o),
(345,764,o),
(353,788,cs),
(360,809,o),
(376,820,o),
(398,820,cs),
(403,820,ls),
(423,820,o),
(439,804,o),
(439,785,cs)
);
}
);
width = 545;
}
);
note = Atilde;
unicode = 195;
},
{
glyphname = Adieresis;
kernLeft = A;
kernRight = A;
layers = (
{
layerId = m01;
shapes = (
{
closed = 1;
nodes = (
(168,107,l),
(151,56,ls),
(136,11,o),
(113,-10,o),
(76,-10,cs),
(37,-10,o),
(3,22,o),
(3,59,cs),
(3,72,o),
(6,87,o),
(13,104,cs),
(165,516,ls),
(188,579,o),
(220,606,o),
(272,606,cs),
(323,606,o),
(355,579,o),
(378,516,cs),
(531,110,ls),
(538,92,o),
(541,76,o),
(541,62,cs),
(541,23,o),
(506,-10,o),
(465,-10,cs),
(427,-10,o),
(402,12,o),
(387,59,cs),
(371,107,l)
);
},
{
closed = 1;
nodes = (
(271,417,l),
(206,233,l),
(334,233,l)
);
},
{
closed = 1;
nodes = (
(223,800,o),
(253,770,o),
(253,725,cs),
(253,679,o),
(223,649,o),
(178,649,cs),
(132,649,o),
(102,679,o),
(102,725,cs),
(102,770,o),
(132,800,o),
(178,800,cs)
);
},
{
closed = 1;
nodes = (
(413,800,o),
(443,770,o),
(443,725,cs),
(443,679,o),
(413,649,o),
(368,649,cs),
(322,649,o),
(292,679,o),
(292,725,cs),
(292,770,o),
(322,800,o),
(368,800,cs)
);
}
);
width = 545;
}
);
note = Adieresis;
unicode = 196;
},
{
glyphname = Aring;
kernLeft = A;
kernRight = A;
layers = (
{
layerId = m01;
shapes = (
{
closed = 1;
nodes = (
(168,107,l),
(151,56,ls),
(136,11,o),
(113,-10,o),
(76,-10,cs),
(37,-10,o),
(3,22,o),
(3,59,cs),
(3,72,o),
(6,87,o),
(13,104,cs),
(165,516,ls),
(188,579,o),
(220,606,o),
(272,606,cs),
(323,606,o),
(355,579,o),
(378,516,cs),
(531,110,ls),
(538,92,o),
(541,76,o),
(541,62,cs),
(541,23,o),
(506,-10,o),
(465,-10,cs),
(427,-10,o),
(402,12,o),
(387,59,cs),
(371,107,l)
);
},
{
closed = 1;
nodes = (
(271,417,l),
(206,233,l),
(334,233,l)
);
},
{
closed = 1;
nodes = (
(358,851,o),
(403,815,o),
(403,746,cs),
(403,677,o),
(358,641,o),
(273,641,cs),
(187,641,o),
(142,677,o),
(142,746,cs),
(142,815,o),
(187,851,o),
(273,851,cs)
);
},
{
closed = 1;
nodes = (
(248,785,o),
(237,773,o),
(237,746,cs),
(237,719,o),
(248,707,o),
(273,707,cs),
(297,707,o),
(308,719,o),
(308,746,cs),
(308,773,o),
(297,785,o),
(273,785,cs)
);
}
);
width = 545;
}
);
note = Aring;
unicode = 197;
},
{
glyphname = AE;
layers = (
{
layerId = m01;
shapes = (
{
closed = 1;
nodes = (
(158,98,l),
(137,51,ls),
(117,8,o),
(94,-10,o),
(59,-10,cs),
(19,-10,o),
(-18,24,o),
(-18,62,cs),
(-18,77,o),
(-13,96,o),
(-3,117,cs),
(193,521,ls),
(223,582,o),
(245,596,o),
(314,596,cs),
(649,596,ls),
(702,596,o),
(733,571,o),
(733,527,cs),
(733,483,o),
(702,458,o),
(649,458,cs),
(485,458,l),
(485,373,l),
(620,373,ls),
(672,373,o),
(702,348,o),
(702,306,cs),
(702,264,o),
(672,239,o),
(620,239,cs),
(485,239,l),
(485,138,l),
(656,138,ls),
(709,138,o),
(740,113,o),
(740,69,cs),
(740,25,o),
(709,0,o),
(656,0,cs),
(407,0,ls),
(360,0,o),
(327,36,o),
(327,86,cs),
(327,98,l)
);
},
{
closed = 1;
nodes = (
(327,458,l),
(317,458,l),
(212,229,l),
(327,229,l)
);
}
);
width = 753;
}
);
note = AE;
unicode = 198;
},
{
glyphname = Ccedilla;
kernLeft = C;
layers = (
{
layerId = m01;
shapes = (
{
closed = 1;
nodes = (
(200,262,ls),
(200,160,o),
(225,123,o),
(292,123,cs),
(326,123,o),
(333,125,o),
(377,146,cs),
(389,152,o),
(399,155,o),
(407,155,cs),
(444,155,o),
(469,117,o),
(469,83,cs),
(469,68,o),
(464,53,o),
(453,41,cs),
(426,9,o),
(366,-11,o),
(285,-11,cs),
(123,-11,o),
(42,78,o),
(42,257,cs),
(42,339,ls),
(42,517,o),
(123,607,o),
(282,607,cs),
(357,607,o),
(410,590,o),
(434,560,cs),
(443,548,o),
(448,534,o),
(448,518,cs),
(448,481,o),
(419,451,o),
(383,451,cs),
(370,451,o),
(363,453,o),
(347,461,cs),
(332,469,o),
(313,473,o),
(291,473,cs),
(225,473,o),
(200,432,o),
(200,325,cs)
);
},
{
closed = 1;
nodes = (
(319,18,l),
(297,-21,l),
(357,-45,o),
(377,-70,o),
(377,-121,cs),
(377,-196,o),
(337,-228,o),
(243,-228,cs),
(203,-228,o),
(176,-222,o),
(159,-211,cs),
(147,-203,o),
(142,-191,o),
(142,-177,cs),
(142,-154,o),
(153,-127,o),
(180,-127,cs),
(185,-127,o),
(187,-127,o),
(195,-130,cs),
(205,-133,o),
(216,-135,o),
(226,-135,cs),
(242,-135,o),
(254,-126,o),
(254,-114,cs),
(254,-98,o),
(242,-91,o),
(197,-79,cs),
(183,-76,o),
(177,-69,o),
(177,-57,cs),
(177,-53,o),
(178,-49,o),
(182,-43,cs),
(216,18,l)
);
}
);
width = 457;
}
);
note = Ccedilla;
unicode = 199;
},
{
glyphname = Egrave;
layers = (
{
layerId = m01;
shapes = (
{
closed = 1;
nodes = (
(212,373,l),
(348,373,ls),
(400,373,o),
(430,348,o),
(430,306,cs),
(430,264,o),
(400,239,o),
(348,239,cs),
(212,239,l),
(212,138,l),
(385,138,ls),
(438,138,o),
(469,113,o),
(469,69,cs),
(469,25,o),
(438,0,o),
(385,0,cs),
(136,0,ls),
(75,0,o),
(56,47,o),
(56,98,cs),
(56,498,ls),
(56,568,o),
(84,596,o),
(154,596,cs),
(377,596,ls),
(430,596,o),
(461,571,o),
(461,527,cs),
(461,483,o),
(430,458,o),
(377,458,cs),
(212,458,l)
);
},
{
closed = 1;
nodes = (
(126,773,o),
(122,780,o),
(122,787,cs),
(122,806,o),
(136,817,o),
(158,817,cs),
(266,817,o),
(281,808,o),
(302,767,cs),
(336,701,l),
(340,691,o),
(343,681,o),
(343,675,cs),
(343,655,o),
(325,639,o),
(305,639,cs),
(246,639,o),
(232,647,o),
(198,687,cs),
(133,763,l)
);
}
);
width = 482;
}
);
note = Egrave;
unicode = 200;
},
{
glyphname = Eacute;
layers = (
{
layerId = m01;
shapes = (
{
closed = 1;
nodes = (
(212,373,l),
(348,373,ls),
(400,373,o),
(430,348,o),
(430,306,cs),
(430,264,o),
(400,239,o),
(348,239,cs),
(212,239,l),
(212,138,l),
(385,138,ls),
(438,138,o),
(469,113,o),
(469,69,cs),
(469,25,o),
(438,0,o),
(385,0,cs),
(136,0,ls),
(75,0,o),
(56,47,o),
(56,98,cs),
(56,498,ls),
(56,568,o),
(84,596,o),
(154,596,cs),
(377,596,ls),
(430,596,o),
(461,571,o),
(461,527,cs),
(461,483,o),
(430,458,o),
(377,458,cs),
(212,458,l)
);
},
{
closed = 1;
nodes = (
(411,780,o),
(407,772,o),
(400,763,cs),
(336,687,ls),
(302,647,o),
(287,639,o),
(246,639,cs),
(208,639,o),
(190,656,o),
(190,674,cs),
(190,681,o),
(193,691,o),
(198,701,cs),
(232,767,ls),
(252,808,o),
(268,817,o),
(313,817,cs),
(398,817,o),
(411,806,o),
(411,786,cs)
);
}
);
width = 482;
}
);
note = Eacute;
unicode = 201;
},
{
glyphname = Ecircumflex;
layers = (
{
layerId = m01;
shapes = (
{
closed = 1;
nodes = (
(212,373,l),
(348,373,ls),
(400,373,o),
(430,348,o),
(430,306,cs),
(430,264,o),
(400,239,o),
(348,239,cs),
(212,239,l),
(212,138,l),
(385,138,ls),
(438,138,o),
(469,113,o),
(469,69,cs),
(469,25,o),
(438,0,o),
(385,0,cs),
(136,0,ls),
(75,0,o),
(56,47,o),
(56,98,cs),
(56,498,ls),
(56,568,o),
(84,596,o),
(154,596,cs),
(377,596,ls),
(430,596,o),
(461,571,o),
(461,527,cs),
(461,483,o),
(430,458,o),
(377,458,cs),
(212,458,l)
);
},
{
closed = 1;
nodes = (
(226,666,ls),
(210,640,o),
(194,630,o),
(173,630,cs),
(142,630,o),
(117,655,o),
(117,685,cs),
(117,697,o),
(121,709,o),
(129,720,cs),
(161,764,ls),
(195,810,o),
(220,826,o),
(260,826,cs),
(300,826,o),
(325,810,o),
(358,766,cs),
(391,722,ls),
(400,710,o),
(405,697,o),
(405,685,cs),
(405,655,o),
(379,630,o),
(349,630,cs),
(327,630,o),
(312,640,o),
(295,666,cs),
(261,719,l)
);
}
);
width = 482;
}
);
note = Ecircumflex;
unicode = 202;
},
{
glyphname = Edieresis;
layers = (
{
layerId = m01;
shapes = (
{
closed = 1;
nodes = (
(212,373,l),
(348,373,ls),
(400,373,o),
(430,348,o),
(430,306,cs),
(430,264,o),
(400,239,o),
(348,239,cs),
(212,239,l),
(212,138,l),
(385,138,ls),
(438,138,o),
(469,113,o),
(469,69,cs),
(469,25,o),
(438,0,o),
(385,0,cs),
(136,0,ls),
(75,0,o),
(56,47,o),
(56,98,cs),
(56,498,ls),
(56,568,o),
(84,596,o),
(154,596,cs),
(377,596,ls),
(430,596,o),
(461,571,o),
(461,527,cs),
(461,483,o),
(430,458,o),
(377,458,cs),
(212,458,l)
);
},
{
closed = 1;
nodes = (
(211,800,o),
(241,770,o),
(241,725,cs),
(241,679,o),
(211,649,o),
(166,649,cs),
(120,649,o),
(90,679,o),
(90,725,cs),
(90,770,o),
(120,800,o),
(166,800,cs)
);
},
{
closed = 1;
nodes = (
(401,800,o),
(431,770,o),
(431,725,cs),
(431,679,o),
(401,649,o),
(356,649,cs),
(310,649,o),
(280,679,o),
(280,725,cs),
(280,770,o),
(310,800,o),
(356,800,cs)
);
}
);
width = 482;
}
);
note = Edieresis;
unicode = 203;
},
{
glyphname = Igrave;
layers = (
{
layerId = m01;
shapes = (
{
closed = 1;
nodes = (
(61,512,ls),
(61,572,o),
(90,607,o),
(139,607,cs),
(188,607,o),
(217,572,o),
(217,512,cs),
(217,84,ls),
(217,24,o),
(188,-11,o),
(139,-11,cs),
(90,-11,o),
(61,24,o),
(61,84,cs)
);
},
{
closed = 1;
nodes = (
(12,773,o),
(9,780,o),
(9,787,cs),
(9,806,o),
(22,817,o),
(45,817,cs),
(152,817,o),
(168,808,o),
(189,767,cs),
(222,701,ls),
(227,691,o),
(230,681,o),
(230,675,cs),
(230,655,o),
(212,639,o),
(192,639,cs),
(133,639,o),
(119,647,o),
(85,687,cs),
(20,763,ls)
);
}
);
width = 278;
}
);
note = Igrave;
unicode = 204;
},
{
glyphname = Iacute;
layers = (
{
layerId = m01;
shapes = (
{
closed = 1;
nodes = (
(61,512,ls),
(61,572,o),
(90,607,o),
(139,607,cs),
(188,607,o),
(217,572,o),
(217,512,cs),
(217,84,ls),
(217,24,o),
(188,-11,o),
(139,-11,cs),
(90,-11,o),
(61,24,o),
(61,84,cs)
);
},
{
closed = 1;
nodes = (
(284,780,o),
(280,772,o),
(273,763,cs),
(208,687,ls),
(175,647,o),
(160,639,o),
(118,639,cs),
(81,639,o),
(63,656,o),
(63,674,cs),
(63,681,o),
(66,691,o),
(71,701,cs),
(105,767,ls),
(125,808,o),
(141,817,o),
(186,817,cs),
(271,817,o),
(284,806,o),
(284,786,cs)
);
}
);
width = 278;
}
);
note = Iacute;
unicode = 205;
},
{
glyphname = Icircumflex;
layers = (
{
layerId = m01;
shapes = (
{
closed = 1;
nodes = (
(61,512,ls),
(61,572,o),
(89,607,o),
(139,607,cs),
(188,607,o),
(217,572,o),
(217,512,cs),
(217,84,ls),
(217,24,o),
(188,-11,o),
(139,-11,cs),
(89,-11,o),
(61,24,o),
(61,84,cs)
);
},
{
closed = 1;
nodes = (
(104,666,ls),
(88,640,o),
(72,630,o),
(51,630,cs),
(20,630,o),
(-5,655,o),
(-5,685,cs),
(-5,697,o),
(-1,709,o),
(7,720,cs),
(40,764,ls),
(73,810,o),
(98,826,o),
(139,826,cs),
(178,826,o),
(204,810,o),
(237,766,cs),
(269,722,ls),
(278,710,o),
(283,697,o),
(283,685,cs),
(283,655,o),
(258,630,o),
(227,630,cs),
(205,630,o),
(190,640,o),
(173,666,cs),
(139,719,l)
);
}
);
width = 278;
}
);
note = Icircumflex;
unicode = 206;
},
{
glyphname = Idieresis;
layers = (
{
layerId = m01;
shapes = (
{
closed = 1;
nodes = (
(61,512,ls),
(61,572,o),
(89,607,o),
(139,607,cs),
(188,607,o),
(217,572,o),
(217,512,cs),
(217,84,ls),
(217,24,o),
(188,-11,o),
(139,-11,cs),
(89,-11,o),
(61,24,o),
(61,84,cs)
);
},
{
closed = 1;
nodes = (
(89,800,o),
(119,770,o),
(119,725,cs),
(119,679,o),
(89,649,o),
(44,649,cs),
(-2,649,o),
(-32,679,o),
(-32,725,cs),
(-32,770,o),
(-2,800,o),
(44,800,cs)
);
},
{
closed = 1;
nodes = (
(279,800,o),
(309,770,o),
(309,725,cs),
(309,679,o),
(279,649,o),
(234,649,cs),
(188,649,o),
(158,679,o),
(158,725,cs),
(158,770,o),
(188,800,o),
(234,800,cs)
);
}
);
width = 278;
}
);
note = Idieresis;
unicode = 207;
},
{
glyphname = Eth;
layers = (
{
layerId = m01;
shapes = (
{
closed = 1;
nodes = (
(253,368,ls),
(285,368,o),
(314,349,o),
(315,307,cs),
(315,273,o),
(289,247,o),
(253,247,cs),
(55,247,ls),
(24,247,o),
(-4,264,o),
(-7,305,cs),
(-9,341,o),
(18,369,o),
(55,369,cs)
);
},
{
closed = 1;
nodes = (
(62,498,ls),
(62,568,o),
(90,596,o),
(160,596,cs),
(249,596,ls),
(446,596,o),
(531,534,o),
(531,328,cs),
(531,268,ls),
(531,62,o),
(446,0,o),
(249,0,cs),
(142,0,ls),
(81,0,o),
(62,47,o),
(62,98,cs)
);
},
{
closed = 1;
nodes = (
(270,135,ls),
(364,135,o),
(373,191,o),
(373,273,cs),
(373,323,ls),
(373,405,o),
(364,461,o),
(270,461,cs),
(218,461,l),
(218,135,l)
);
}
);
width = 571;
}
);
note = Eth;
unicode = 208;
},
{
glyphname = Ntilde;
layers = (
{
layerId = m01;
shapes = (
{
closed = 1;
nodes = (
(388,519,ls),
(388,575,o),
(415,607,o),
(460,607,cs),
(505,607,o),
(532,575,o),
(532,519,cs),
(532,89,ls),
(532,36,o),
(510,-10,o),
(451,-10,cs),
(417,-10,o),
(395,5,o),
(371,46,cs),
(201,337,l),
(201,77,ls),
(201,21,o),
(174,-11,o),
(129,-11,cs),
(84,-11,o),
(57,21,o),
(57,77,cs),
(57,499,ls),
(57,556,o),
(81,606,o),
(144,606,cs),
(181,606,o),
(205,589,o),
(230,546,cs),
(388,276,l)
);
},
{
closed = 1;
nodes = (
(478,773,o),
(472,746,o),
(465,723,cs),
(447,666,o),
(417,640,o),
(369,640,cs),
(333,640,o),
(314,650,o),
(284,686,cs),
(275,697,o),
(269,700,o),
(261,700,cs),
(248,700,o),
(236,687,o),
(231,666,cs),
(226,647,o),
(207,634,o),
(181,634,cs),
(161,634,o),
(145,650,o),
(145,669,cs),
(145,678,o),
(148,696,o),
(154,717,cs),
(172,784,o),
(203,814,o),
(254,814,cs),
(289,814,o),
(313,801,o),
(339,768,cs),
(348,757,o),
(353,754,o),
(362,754,cs),
(375,754,o),
(384,764,o),
(392,788,cs),
(399,809,o),
(415,820,o),
(437,820,cs),
(442,820,ls),
(462,820,o),
(478,804,o),
(478,785,cs)
);
}
);
width = 589;
}
);
note = Ntilde;
unicode = 209;
},
{
glyphname = Ograve;
kernLeft = C;
layers = (
{
layerId = m01;
shapes = (
{
closed = 1;
nodes = (
(535,258,ls),
(535,76,o),
(455,-11,o),
(288,-11,cs),
(122,-11,o),
(42,76,o),
(42,258,cs),
(42,339,ls),
(42,520,o),
(122,607,o),
(288,607,cs),
(455,607,o),
(535,520,o),
(535,339,cs)
);
},
{
closed = 1;
nodes = (
(200,156,o),
(222,123,o),
(288,123,cs),
(354,123,o),
(379,161,o),
(379,263,cs),
(379,334,ls),
(379,435,o),
(354,473,o),
(288,473,cs),
(223,473,o),
(198,435,o),
(198,334,cs),
(198,263,ls)
);
},
{
closed = 1;
nodes = (
(162,773,o),
(158,780,o),
(158,787,cs),
(158,806,o),
(172,817,o),
(195,817,cs),
(302,817,o),
(317,808,o),
(338,767,cs),
(372,701,ls),
(377,691,o),
(379,681,o),
(379,675,cs),
(379,655,o),
(362,639,o),
(341,639,cs),
(282,639,o),
(268,647,o),
(234,687,cs),
(170,763,ls)
);
}
);
width = 577;
}
);
note = Ograve;
unicode = 210;
},
{
glyphname = Oacute;
kernLeft = C;
layers = (
{
layerId = m01;
shapes = (
{
closed = 1;
nodes = (
(535,258,ls),
(535,76,o),
(455,-11,o),
(288,-11,cs),
(122,-11,o),
(42,76,o),
(42,258,cs),
(42,339,ls),
(42,520,o),
(122,607,o),
(288,607,cs),
(455,607,o),
(535,520,o),
(535,339,cs)
);
},
{
closed = 1;
nodes = (
(200,156,o),
(222,123,o),
(288,123,cs),
(354,123,o),
(379,161,o),
(379,263,cs),
(379,334,ls),
(379,435,o),
(354,473,o),
(288,473,cs),
(223,473,o),
(198,435,o),
(198,334,cs),
(198,263,ls)
);
},
{
closed = 1;
nodes = (
(433,780,o),
(430,772,o),
(422,763,cs),
(358,687,ls),
(324,647,o),
(310,639,o),
(268,639,cs),
(230,639,o),
(212,656,o),
(212,674,cs),
(212,681,o),
(215,691,o),
(220,701,cs),
(254,767,ls),
(275,808,o),
(290,817,o),
(336,817,cs),
(420,817,o),
(433,806,o),
(433,786,cs)
);
}
);
width = 577;
}
);
note = Oacute;
unicode = 211;
},
{
glyphname = Ocircumflex;
kernLeft = C;
layers = (
{
layerId = m01;
shapes = (
{
closed = 1;
nodes = (
(535,258,ls),
(535,76,o),
(455,-11,o),
(288,-11,cs),
(122,-11,o),
(42,76,o),
(42,258,cs),
(42,339,ls),
(42,520,o),
(122,607,o),
(288,607,cs),
(455,607,o),
(535,520,o),
(535,339,cs)
);
},
{
closed = 1;
nodes = (
(200,156,o),
(222,123,o),
(288,123,cs),
(354,123,o),
(379,161,o),
(379,263,cs),
(379,334,ls),
(379,435,o),
(354,473,o),
(288,473,cs),
(223,473,o),
(198,435,o),
(198,334,cs),
(198,263,ls)
);
},
{
closed = 1;
nodes = (
(254,666,ls),
(238,640,o),
(222,630,o),
(201,630,cs),
(170,630,o),
(145,655,o),
(145,685,cs),
(145,697,o),
(149,709,o),
(157,720,cs),
(189,764,ls),
(223,810,o),
(248,826,o),
(288,826,cs),
(328,826,o),
(353,810,o),
(386,766,cs),
(419,722,ls),
(428,710,o),
(433,697,o),
(433,685,cs),
(433,655,o),
(407,630,o),
(377,630,cs),
(355,630,o),
(340,640,o),
(323,666,cs),
(288,719,l)
);
}
);
width = 577;
}
);
note = Ocircumflex;
unicode = 212;
},
{
glyphname = Otilde;
kernLeft = C;
layers = (
{
layerId = m01;
shapes = (
{
closed = 1;
nodes = (
(535,258,ls),
(535,76,o),
(455,-11,o),
(288,-11,cs),
(122,-11,o),
(42,76,o),
(42,258,cs),
(42,339,ls),
(42,520,o),
(122,607,o),
(288,607,cs),
(455,607,o),
(535,520,o),
(535,339,cs)
);
},
{
closed = 1;
nodes = (
(200,156,o),
(222,123,o),
(288,123,cs),
(354,123,o),
(379,161,o),
(379,263,cs),
(379,334,ls),
(379,435,o),
(354,473,o),
(288,473,cs),
(223,473,o),
(198,435,o),
(198,334,cs),
(198,263,ls)
);
},
{
closed = 1;
nodes = (
(455,773,o),
(449,746,o),
(442,723,cs),
(424,666,o),
(394,640,o),
(346,640,cs),
(310,640,o),
(291,650,o),
(261,686,cs),
(252,697,o),
(247,700,o),
(238,700,cs),
(225,700,o),
(214,687,o),
(208,666,cs),
(203,647,o),
(184,634,o),
(158,634,cs),
(138,634,o),
(122,650,o),
(122,669,cs),
(122,678,o),
(126,696,o),
(131,717,cs),
(150,784,o),
(180,814,o),
(231,814,cs),
(266,814,o),
(290,801,o),
(316,768,cs),
(325,757,o),
(330,754,o),
(339,754,cs),
(352,754,o),
(361,764,o),
(369,788,cs),
(376,809,o),
(392,820,o),
(414,820,cs),
(419,820,ls),
(439,820,o),
(455,804,o),
(455,785,cs)
);
}
);
width = 577;
}
);
note = Otilde;
unicode = 213;
},
{
glyphname = Odieresis;
kernLeft = C;
layers = (
{
layerId = m01;
shapes = (
{
closed = 1;
nodes = (
(535,258,ls),
(535,76,o),
(455,-11,o),
(288,-11,cs),
(122,-11,o),
(42,76,o),
(42,258,cs),
(42,339,ls),
(42,520,o),
(122,607,o),
(288,607,cs),
(455,607,o),
(535,520,o),
(535,339,cs)
);
},
{
closed = 1;
nodes = (
(200,156,o),
(222,123,o),
(288,123,cs),
(354,123,o),
(379,161,o),
(379,263,cs),
(379,334,ls),
(379,435,o),
(354,473,o),
(288,473,cs),
(223,473,o),
(198,435,o),
(198,334,cs),
(198,263,ls)
);
},
{
closed = 1;
nodes = (
(239,800,o),
(269,770,o),
(269,725,cs),
(269,679,o),
(239,649,o),
(194,649,cs),
(148,649,o),
(118,679,o),
(118,725,cs),
(118,770,o),
(148,800,o),
(194,800,cs)
);
},
{
closed = 1;
nodes = (
(429,800,o),
(459,770,o),
(459,725,cs),
(459,679,o),
(429,649,o),
(384,649,cs),
(338,649,o),
(308,679,o),
(308,725,cs),
(308,770,o),
(338,800,o),
(384,800,cs)
);
}
);
width = 577;
}
);
note = Odieresis;
unicode = 214;
},
{
glyphname = multiply;
layers = (
{
layerId = m01;
shapes = (
{
closed = 1;
nodes = (
(376,254,ls),
(396,235,o),
(405,217,o),
(405,200,cs),
(405,165,o),
(376,136,o),
(341,136,cs),
(324,136,o),
(306,145,o),
(287,165,cs),
(240,212,l),
(193,165,ls),
(173,145,o),
(156,136,o),
(138,136,cs),
(103,136,o),
(74,165,o),
(74,200,cs),
(74,217,o),
(83,235,o),
(103,255,cs),
(150,302,l),
(103,349,ls),
(83,368,o),
(74,386,o),
(74,403,cs),
(74,438,o),
(103,467,o),
(138,467,cs),
(156,467,o),
(173,458,o),
(192,438,cs),
(240,391,l),
(287,438,ls),
(306,458,o),
(324,467,o),
(341,467,cs),
(376,467,o),
(405,438,o),
(405,403,cs),
(405,386,o),
(396,368,o),
(376,349,cs),
(329,301,l)
);
}
);
width = 480;
}
);
note = multiply;
unicode = 215;
},
{
glyphname = Oslash;
kernLeft = C;
layers = (
{
layerId = m01;
shapes = (
{
closed = 1;
nodes = (
(447,575,ls),
(460,591,o),
(476,602,o),
(493,602,cs),
(517,602,o),
(540,580,o),
(539,556,cs),
(539,542,o),
(532,528,o),
(522,515,cs),
(132,19,ls),
(119,3,o),
(102,-9,o),
(84,-9,cs),
(60,-8,o),
(37,14,o),
(37,37,cs),
(37,52,o),
(44,67,o),
(55,80,cs)
);
},
{
closed = 1;
nodes = (
(535,257,ls),
(535,74,o),
(456,-11,o),
(288,-11,cs),
(120,-11,o),
(42,74,o),
(42,257,cs),
(42,339,ls),
(42,521,o),
(120,606,o),
(288,606,cs),
(456,606,o),
(535,521,o),
(535,339,cs)
);
},
{
closed = 1;
nodes = (
(199,191,o),
(202,123,o),
(289,123,cs),
(329,123,o),
(347,133,o),
(362,161,cs),
(373,181,o),
(379,217,o),
(379,262,cs),
(379,334,ls),
(379,386,o),
(372,421,o),
(358,442,cs),
(342,465,o),
(326,472,o),
(288,472,cs),
(248,472,o),
(229,463,o),
(214,434,cs),
(203,414,o),
(198,380,o),
(198,334,cs),
(198,262,ls)
);
}
);
width = 577;
}
);
note = Oslash;
unicode = 216;
},
{
glyphname = Ugrave;
layers = (
{
layerId = m01;
shapes = (
{
closed = 1;
nodes = (
(505,147,o),
(499,106,o),
(482,74,cs),
(451,17,o),
(384,-11,o),
(279,-11,cs),
(165,-11,o),
(97,22,o),
(70,89,cs),
(58,119,o),
(53,156,o),
(53,221,cs),
(53,512,ls),
(53,572,o),
(82,607,o),
(131,607,cs),
(180,607,o),
(209,572,o),
(209,512,cs),
(209,215,ls),
(209,180,o),
(211,165,o),
(217,154,cs),
(228,135,o),
(251,123,o),
(279,123,cs),
(310,123,o),
(334,137,o),
(343,158,cs),
(347,169,o),
(349,185,o),
(349,215,cs),
(349,512,ls),
(349,572,o),
(378,607,o),
(427,607,cs),
(476,607,o),
(505,572,o),
(505,512,cs),
(505,221,ls)
);
},
{
closed = 1;
nodes = (
(152,773,o),
(149,780,o),
(149,787,cs),
(149,806,o),
(162,817,o),
(185,817,cs),
(292,817,o),
(308,808,o),
(328,767,cs),
(362,701,ls),
(367,691,o),
(370,681,o),
(370,675,cs),
(370,655,o),
(352,639,o),
(332,639,cs),
(273,639,o),
(258,647,o),
(225,687,cs),
(160,763,ls)
);
}
);
width = 558;
}
);
note = Ugrave;
unicode = 217;
},
{
glyphname = Uacute;
layers = (
{
layerId = m01;
shapes = (
{
closed = 1;
nodes = (
(505,147,o),
(499,106,o),
(482,74,cs),
(451,17,o),
(384,-11,o),
(279,-11,cs),
(165,-11,o),
(97,22,o),
(70,89,cs),
(58,119,o),
(53,156,o),
(53,221,cs),
(53,512,ls),
(53,572,o),
(82,607,o),
(131,607,cs),
(180,607,o),
(209,572,o),
(209,512,cs),
(209,215,ls),
(209,180,o),
(211,165,o),
(217,154,cs),
(228,135,o),
(251,123,o),
(279,123,cs),
(310,123,o),
(334,137,o),
(343,158,cs),
(347,169,o),
(349,185,o),
(349,215,cs),
(349,512,ls),
(349,572,o),
(378,607,o),
(427,607,cs),
(476,607,o),
(505,572,o),
(505,512,cs),
(505,221,ls)
);
},
{
closed = 1;
nodes = (
(424,780,o),
(420,772,o),
(413,763,cs),
(348,687,ls),
(315,647,o),
(300,639,o),
(258,639,cs),
(221,639,o),
(203,656,o),
(203,674,cs),
(203,681,o),
(206,691,o),
(211,701,cs),
(245,767,ls),
(265,808,o),
(281,817,o),
(326,817,cs),
(411,817,o),
(424,806,o),
(424,786,cs)
);
}
);
width = 558;
}
);
note = Uacute;
unicode = 218;
},
{
glyphname = Ucircumflex;
layers = (
{
layerId = m01;
shapes = (
{
closed = 1;
nodes = (
(505,147,o),
(499,106,o),
(482,74,cs),
(451,17,o),
(384,-11,o),
(279,-11,cs),
(165,-11,o),
(97,22,o),
(70,89,cs),
(58,119,o),
(53,156,o),
(53,221,cs),
(53,512,ls),
(53,572,o),
(82,607,o),
(131,607,cs),
(180,607,o),
(209,572,o),
(209,512,cs),
(209,215,ls),
(209,180,o),
(211,165,o),
(217,154,cs),
(228,135,o),
(251,123,o),
(279,123,cs),
(310,123,o),
(334,137,o),
(343,158,cs),
(347,169,o),
(349,185,o),
(349,215,cs),
(349,512,ls),
(349,572,o),
(378,607,o),
(427,607,cs),
(476,607,o),
(505,572,o),
(505,512,cs),
(505,221,ls)
);
},
{
closed = 1;
nodes = (
(244,666,ls),
(228,640,o),
(213,630,o),
(192,630,cs),
(160,630,o),
(135,655,o),
(135,685,cs),
(135,697,o),
(139,709,o),
(147,720,cs),
(180,764,ls),
(213,810,o),
(239,826,o),
(279,826,cs),
(318,826,o),
(344,810,o),
(377,766,cs),
(409,722,ls),
(418,710,o),
(423,697,o),
(423,685,cs),
(423,655,o),
(398,630,o),
(367,630,cs),
(345,630,o),
(330,640,o),
(314,666,cs),
(279,719,l)
);
}
);
width = 558;
}
);
note = Ucircumflex;
unicode = 219;
},
{
glyphname = Udieresis;
layers = (
{
layerId = m01;
shapes = (
{
closed = 1;
nodes = (
(505,147,o),
(499,106,o),
(482,74,cs),
(451,17,o),
(384,-11,o),
(279,-11,cs),
(165,-11,o),
(97,22,o),
(70,89,cs),
(58,119,o),
(53,156,o),
(53,221,cs),
(53,512,ls),
(53,572,o),
(82,607,o),
(131,607,cs),
(180,607,o),
(209,572,o),
(209,512,cs),
(209,215,ls),
(209,180,o),
(211,165,o),
(217,154,cs),
(228,135,o),
(251,123,o),
(279,123,cs),
(310,123,o),
(334,137,o),
(343,158,cs),
(347,169,o),
(349,185,o),
(349,215,cs),
(349,512,ls),
(349,572,o),
(378,607,o),
(427,607,cs),
(476,607,o),
(505,572,o),
(505,512,cs),
(505,221,ls)
);
},
{
closed = 1;
nodes = (
(229,800,o),
(259,770,o),
(259,725,cs),
(259,679,o),
(229,649,o),
(184,649,cs),
(139,649,o),
(108,679,o),
(108,725,cs),
(108,770,o),
(139,800,o),
(184,800,cs)
);
},
{
closed = 1;
nodes = (
(419,800,o),
(449,770,o),
(449,725,cs),
(449,679,o),
(419,649,o),
(374,649,cs),
(329,649,o),
(298,679,o),
(298,725,cs),
(298,770,o),
(329,800,o),
(374,800,cs)
);
}
);
width = 558;
}
);
note = Udieresis;
unicode = 220;
},
{
glyphname = Yacute;
kernLeft = Y;
kernRight = Y;
layers = (
{
layerId = m01;
shapes = (
{
closed = 1;
nodes = (
(40,474,ls),
(30,495,o),
(24,516,o),
(24,532,cs),
(24,571,o),
(62,606,o),
(104,606,cs),
(140,606,o),
(164,587,o),
(183,542,cs),
(256,378,l),
(330,546,ls),
(348,588,o),
(371,606,o),
(405,606,cs),
(443,606,o),
(479,573,o),
(479,537,cs),
(479,521,o),
(474,502,o),
(463,482,cs),
(327,220,l),
(327,84,ls),
(327,24,o),
(298,-11,o),
(249,-11,cs),
(200,-11,o),
(171,24,o),
(171,84,cs),
(171,220,l)
);
},
{
closed = 1;
nodes = (
(414,780,o),
(410,772,o),
(403,763,cs),
(339,687,ls),
(305,647,o),
(290,639,o),
(248,639,cs),
(211,639,o),
(193,656,o),
(193,674,cs),
(193,681,o),
(196,691,o),
(201,701,cs),
(235,767,ls),
(255,808,o),
(271,817,o),
(316,817,cs),
(401,817,o),
(414,806,o),
(414,786,cs)
);
}
);
width = 498;
}
);
note = Yacute;
unicode = 221;
},
{
glyphname = Thorn;
kernRight = P;
layers = (
{
layerId = m01;
shapes = (
{
closed = 1;
nodes = (
(259,504,ls),
(412,504,o),
(499,471,o),
(499,301,cs),
(499,128,o),
(409,97,o),
(257,97,cs),
(213,97,l),
(213,77,ls),
(213,24,o),
(182,-11,o),
(134,-11,cs),
(85,-11,o),
(56,24,o),
(56,85,cs),
(56,511,ls),
(56,572,o),
(85,607,o),
(134,607,cs),
(181,607,o),
(213,572,o),
(213,520,cs),
(213,504,l)
);
},
{
closed = 1;
nodes = (
(270,226,ls),
(326,226,o),
(346,246,o),
(346,301,cs),
(346,355,o),
(326,375,o),
(271,375,cs),
(209,375,l),
(209,226,l)
);
}
);
width = 515;
}
);
note = Thorn;
unicode = 222;
},
{
glyphname = germandbls;
layers = (
{
layerId = m01;
shapes = (
{
closed = 1;
nodes = (
(258,237,o),
(242,260,o),
(242,292,cs),
(242,314,o),
(251,331,o),
(276,358,cs),
(307,389,o),
(315,407,o),
(315,440,cs),
(315,479,o),
(292,500,o),
(249,500,cs),
(228,500,o),
(214,495,o),
(205,484,cs),
(195,471,o),
(191,451,o),
(191,419,cs),
(191,79,ls),
(191,22,o),
(164,-11,o),
(117,-11,cs),
(70,-11,o),
(43,22,o),
(43,79,cs),
(43,372,ls),
(43,460,o),
(53,519,o),
(74,553,cs),
(107,605,o),
(162,629,o),
(248,629,cs),
(383,629,o),
(449,576,o),
(449,467,cs),
(449,423,o),
(437,398,o),
(412,364,cs),
(404,353,o),
(393,341,o),
(393,327,cs),
(393,310,o),
(400,301,o),
(440,269,cs),
(476,239,o),
(491,206,o),
(491,159,cs),
(491,35,o),
(415,-11,o),
(304,-11,cs),
(277,-11,o),
(261,-8,o),
(247,0,cs),
(226,12,o),
(214,33,o),
(214,58,cs),
(214,93,o),
(238,125,o),
(275,125,cs),
(278,125,o),
(279,125,o),
(287,124,cs),
(293,123,o),
(299,123,o),
(304,123,cs),
(330,123,o),
(343,131,o),
(343,149,cs),
(343,167,o),
(335,178,o),
(305,201,cs)
);
}
);
width = 506;
}
);
note = germandbls;
unicode = 223;
},
{
glyphname = agrave;
kernLeft = a;
kernRight = a;
layers = (
{
layerId = m01;
shapes = (
{
closed = 1;
nodes = (
(266,264,ls),
(265,290,o),
(248,300,o),
(206,300,cs),
(184,300,o),
(154,295,o),
(131,287,cs),
(123,284,o),
(118,283,o),
(112,283,cs),
(82,283,o),
(58,308,o),
(58,339,cs),
(58,355,o),
(66,373,o),
(76,381,cs),
(101,400,o),
(162,413,o),
(228,413,cs),
(312,413,o),
(364,394,o),
(394,353,cs),
(412,328,o),
(416,302,o),
(416,225,cs),
(416,52,ls),
(416,13,o),
(388,-11,o),
(343,-11,cs),
(309,-11,o),
(291,3,o),
(282,36,c),
(253,2,o),
(219,-11,o),
(163,-11,cs),
(70,-11,o),
(19,35,o),
(19,121,cs),
(19,173,o),
(33,209,o),
(66,232,cs),
(96,253,o),
(142,262,o),
(208,262,cs),
(218,262,o),
(218,262,o),
(266,261,c)
);
},
{
closed = 1;
nodes = (
(259,178,o),
(255,178,o),
(250,178,cs),
(218,178,o),
(159,181,o),
(159,136,cs),
(159,113,o),
(171,103,o),
(200,103,cs),
(235,103,o),
(268,128,o),
(268,165,cs),
(268,177,l)
);
},
{
closed = 1;
nodes = (
(102,577,o),
(99,584,o),
(99,591,cs),
(99,610,o),
(112,621,o),
(135,621,cs),
(242,621,o),
(258,612,o),
(278,571,cs),
(312,505,ls),
(317,495,o),
(320,485,o),
(320,479,cs),
(320,459,o),
(302,443,o),
(282,443,cs),
(223,443,o),
(208,451,o),
(175,491,cs),
(110,567,ls)
);
}
);
width = 458;
}
);
note = agrave;
unicode = 224;
},
{
glyphname = aacute;
kernLeft = a;
kernRight = a;
layers = (
{
layerId = m01;
shapes = (
{
closed = 1;
nodes = (
(266,264,ls),
(265,290,o),
(248,300,o),
(206,300,cs),
(184,300,o),
(154,295,o),
(131,287,cs),
(123,284,o),
(118,283,o),
(112,283,cs),
(82,283,o),
(58,308,o),
(58,339,cs),
(58,355,o),
(66,373,o),
(76,381,cs),
(101,400,o),
(162,413,o),
(228,413,cs),
(312,413,o),
(364,394,o),
(394,353,cs),
(412,328,o),
(416,302,o),
(416,225,cs),
(416,52,ls),
(416,13,o),
(388,-11,o),
(343,-11,cs),
(309,-11,o),
(291,3,o),
(282,36,c),
(253,2,o),
(219,-11,o),
(163,-11,cs),
(70,-11,o),
(19,35,o),
(19,121,cs),
(19,173,o),
(33,209,o),
(66,232,cs),
(96,253,o),
(142,262,o),
(208,262,cs),
(218,262,o),
(218,262,o),
(266,261,c)
);
},
{
closed = 1;
nodes = (
(259,178,o),
(255,178,o),
(250,178,cs),
(218,178,o),
(159,181,o),
(159,136,cs),
(159,113,o),
(171,103,o),
(200,103,cs),
(235,103,o),
(268,128,o),
(268,165,cs),
(268,177,l)
);
},
{
closed = 1;
nodes = (
(382,584,o),
(378,576,o),
(371,567,cs),
(307,491,ls),
(273,451,o),
(258,443,o),
(217,443,cs),
(179,443,o),
(161,460,o),
(161,478,cs),
(161,485,o),
(164,495,o),
(169,505,cs),
(203,571,ls),
(224,612,o),
(239,621,o),
(285,621,cs),
(369,621,o),
(382,610,o),
(382,590,cs)
);
}
);
width = 458;
}
);
note = aacute;
unicode = 225;
},
{
glyphname = acircumflex;
kernLeft = a;
kernRight = a;
layers = (
{
layerId = m01;
shapes = (
{
closed = 1;
nodes = (
(266,264,ls),
(265,290,o),
(248,300,o),
(206,300,cs),
(184,300,o),
(154,295,o),
(131,287,cs),
(123,284,o),
(118,283,o),
(112,283,cs),
(82,283,o),
(58,308,o),
(58,339,cs),
(58,355,o),
(66,373,o),
(76,381,cs),
(101,400,o),
(162,413,o),
(228,413,cs),
(312,413,o),
(364,394,o),
(394,353,cs),
(412,328,o),
(416,302,o),
(416,225,cs),
(416,52,ls),
(416,13,o),
(388,-11,o),
(343,-11,cs),
(309,-11,o),
(291,3,o),
(282,36,c),
(253,2,o),
(219,-11,o),
(163,-11,cs),
(70,-11,o),
(19,35,o),
(19,121,cs),
(19,173,o),
(33,209,o),
(66,232,cs),
(96,253,o),
(142,262,o),
(208,262,cs),
(218,262,o),
(218,262,o),
(266,261,c)
);
},
{
closed = 1;
nodes = (
(259,178,o),
(255,178,o),
(250,178,cs),
(218,178,o),
(159,181,o),
(159,136,cs),
(159,113,o),
(171,103,o),
(200,103,cs),
(239,103,o),
(268,130,o),
(268,165,cs),
(268,177,l)
);
},
{
closed = 1;
nodes = (
(194,470,ls),
(178,444,o),
(163,434,o),
(142,434,cs),
(110,434,o),
(85,459,o),
(85,489,cs),
(85,501,o),
(89,513,o),
(97,524,cs),
(130,568,ls),
(163,614,o),
(189,630,o),
(229,630,cs),
(268,630,o),
(294,614,o),
(327,570,cs),
(359,526,ls),
(368,514,o),
(373,501,o),
(373,489,cs),
(373,459,o),
(348,434,o),
(317,434,cs),
(295,434,o),
(280,444,o),
(264,470,cs),
(229,523,l)
);
}
);
width = 458;
}
);
note = acircumflex;
unicode = 226;
},
{
glyphname = atilde;
kernLeft = a;
kernRight = a;
layers = (
{
layerId = m01;
shapes = (
{
closed = 1;
nodes = (
(266,264,ls),
(265,290,o),
(248,300,o),
(206,300,cs),
(184,300,o),
(154,295,o),
(131,287,cs),
(123,284,o),
(118,283,o),
(112,283,cs),
(82,283,o),
(58,308,o),
(58,339,cs),
(58,355,o),
(66,373,o),
(76,381,cs),
(101,400,o),
(162,413,o),
(228,413,cs),
(312,413,o),
(364,394,o),
(394,353,cs),
(412,328,o),
(416,302,o),
(416,225,cs),
(416,52,ls),
(416,13,o),
(388,-11,o),
(343,-11,cs),
(309,-11,o),
(291,3,o),
(282,36,c),
(253,2,o),
(219,-11,o),
(163,-11,cs),
(70,-11,o),
(19,35,o),
(19,121,cs),
(19,173,o),
(33,209,o),
(66,232,cs),
(96,253,o),
(142,262,o),
(208,262,cs),
(218,262,o),
(218,262,o),
(266,261,c)
);
},
{
closed = 1;
nodes = (
(259,178,o),
(255,178,o),
(250,178,cs),
(218,178,o),
(159,181,o),
(159,136,cs),
(159,113,o),
(171,103,o),
(200,103,cs),
(239,103,o),
(268,130,o),
(268,165,cs),
(268,177,l)
);
},
{
closed = 1;
nodes = (
(395,577,o),
(390,550,o),
(382,527,cs),
(364,470,o),
(334,444,o),
(286,444,cs),
(250,444,o),
(231,454,o),
(201,490,cs),
(192,501,o),
(187,504,o),
(178,504,cs),
(165,504,o),
(154,491,o),
(148,470,cs),
(143,451,o),
(125,438,o),
(98,438,cs),
(79,438,o),
(62,454,o),
(62,473,cs),
(62,482,o),
(66,500,o),
(72,521,cs),
(90,588,o),
(121,618,o),
(172,618,cs),
(206,618,o),
(231,605,o),
(257,572,cs),
(265,561,o),
(270,558,o),
(280,558,cs),
(293,558,o),
(301,568,o),
(310,592,cs),
(316,613,o),
(333,624,o),
(355,624,cs),
(359,624,ls),
(379,624,o),
(395,608,o),
(395,589,cs)
);
}
);
width = 458;
}
);
note = atilde;
unicode = 227;
},
{
glyphname = adieresis;
kernLeft = a;
kernRight = a;
layers = (
{
layerId = m01;
shapes = (
{
closed = 1;
nodes = (
(266,264,ls),
(265,290,o),
(248,300,o),
(206,300,cs),
(184,300,o),
(154,295,o),
(131,287,cs),
(123,284,o),
(118,283,o),
(112,283,cs),
(82,283,o),
(58,308,o),
(58,339,cs),
(58,355,o),
(66,373,o),
(76,381,cs),
(101,400,o),
(162,413,o),
(228,413,cs),
(312,413,o),
(364,394,o),
(394,353,cs),
(412,328,o),
(416,302,o),
(416,225,cs),
(416,52,ls),
(416,13,o),
(388,-11,o),
(343,-11,cs),
(309,-11,o),
(291,3,o),
(282,36,c),
(253,2,o),
(219,-11,o),
(163,-11,cs),
(70,-11,o),
(19,35,o),
(19,121,cs),
(19,173,o),
(33,209,o),
(66,232,cs),
(96,253,o),
(142,262,o),
(208,262,cs),
(218,262,o),
(218,262,o),
(266,261,c)
);
},
{
closed = 1;
nodes = (
(259,178,o),
(255,178,o),
(250,178,cs),
(218,178,o),
(159,181,o),
(159,136,cs),
(159,113,o),
(171,103,o),
(200,103,cs),
(239,103,o),
(268,130,o),
(268,165,cs),
(268,177,l)
);
},
{
closed = 1;
nodes = (
(179,604,o),
(209,574,o),
(209,529,cs),
(209,483,o),
(179,453,o),
(134,453,cs),
(89,453,o),
(58,483,o),
(58,529,cs),
(58,574,o),
(89,604,o),
(134,604,cs)
);
},
{
closed = 1;
nodes = (
(369,604,o),
(399,574,o),
(399,529,cs),
(399,483,o),
(369,453,o),
(324,453,cs),
(279,453,o),
(248,483,o),
(248,529,cs),
(248,574,o),
(279,604,o),
(324,604,cs)
);
}
);
width = 458;
}
);
note = adieresis;
unicode = 228;
},
{
glyphname = aring;
kernLeft = a;
kernRight = a;
layers = (
{
layerId = m01;
shapes = (
{
closed = 1;
nodes = (
(266,264,ls),
(265,290,o),
(248,300,o),
(206,300,cs),
(184,300,o),
(154,295,o),
(131,287,cs),
(123,284,o),
(118,283,o),
(112,283,cs),
(82,283,o),
(58,308,o),
(58,339,cs),
(58,355,o),
(66,373,o),
(76,381,cs),
(101,400,o),
(162,413,o),
(228,413,cs),
(312,413,o),
(364,394,o),
(394,353,cs),
(412,328,o),
(416,302,o),
(416,225,cs),
(416,52,ls),
(416,13,o),
(388,-11,o),
(343,-11,cs),
(309,-11,o),
(291,3,o),
(282,36,c),
(253,2,o),
(219,-11,o),
(163,-11,cs),
(70,-11,o),
(19,35,o),
(19,121,cs),
(19,173,o),
(33,209,o),
(66,232,cs),
(96,253,o),
(142,262,o),
(208,262,cs),
(218,262,o),
(218,262,o),
(266,261,c)
);
},
{
closed = 1;
nodes = (
(259,178,o),
(255,178,o),
(250,178,cs),
(218,178,o),
(159,181,o),
(159,136,cs),
(159,113,o),
(171,103,o),
(200,103,cs),
(239,103,o),
(268,130,o),
(268,165,cs),
(268,177,l)
);
},
{
closed = 1;
nodes = (
(318,655,o),
(362,619,o),
(362,550,cs),
(362,481,o),
(317,445,o),
(232,445,cs),
(146,445,o),
(101,481,o),
(101,550,cs),
(101,619,o),
(146,655,o),
(232,655,cs)
);
},
{
closed = 1;
nodes = (
(207,589,o),
(196,577,o),
(196,550,cs),
(196,523,o),
(207,511,o),
(232,511,cs),
(256,511,o),
(267,523,o),
(267,550,cs),
(267,577,o),
(256,589,o),
(232,589,cs)
);
}
);
width = 458;
}
);
note = aring;
unicode = 229;
},
{
glyphname = ae;
kernRight = e;
layers = (
{
layerId = m01;
shapes = (
{
closed = 1;
nodes = (
(266,264,ls),
(265,290,o),
(248,300,o),
(206,300,cs),
(184,300,o),
(154,295,o),
(131,287,cs),
(123,284,o),
(118,283,o),
(112,283,cs),
(82,283,o),
(58,308,o),
(58,339,cs),
(58,355,o),
(66,373,o),
(76,381,cs),
(101,400,o),
(162,413,o),
(228,413,cs),
(307,413,o),
(357,394,o),
(385,353,cs),
(402,329,o),
(406,302,o),
(406,225,cs),
(406,212,ls),
(406,159,o),
(392,119,o),
(358,81,cs),
(305,18,o),
(243,-11,o),
(165,-11,cs),
(70,-11,o),
(19,35,o),
(19,121,cs),
(19,173,o),
(33,208,o),
(65,231,cs),
(95,252,o),
(142,262,o),
(208,262,cs),
(218,262,o),
(218,262,o),
(266,261,c)
);
},
{
closed = 1;
nodes = (
(259,178,o),
(255,178,o),
(250,178,cs),
(218,178,o),
(159,181,o),
(159,137,cs),
(159,113,o),
(171,103,o),
(200,103,cs),
(239,103,o),
(268,130,o),
(268,165,cs),
(268,177,l)
);
},
{
closed = 1;
nodes = (
(416,149,ls),
(416,123,o),
(444,109,o),
(493,109,cs),
(527,109,o),
(570,114,o),
(591,120,cs),
(595,121,o),
(600,122,o),
(605,122,cs),
(636,122,o),
(660,97,o),
(660,64,cs),
(660,48,o),
(652,30,o),
(640,21,cs),
(617,2,o),
(553,-11,o),
(484,-11,cs),
(351,-11,o),
(275,60,o),
(275,185,cs),
(275,218,ls),
(275,343,o),
(346,413,o),
(472,413,cs),
(541,413,o),
(592,392,o),
(624,351,cs),
(648,320,o),
(661,282,o),
(661,242,cs),
(661,177,o),
(624,153,o),
(563,153,cs),
(416,153,l)
);
},
{
closed = 1;
nodes = (
(524,292,o),
(510,307,o),
(474,307,cs),
(436,307,o),
(418,289,o),
(414,247,c),
(531,247,l)
);
}
);
width = 689;
}
);
note = ae;
unicode = 230;
},
{
glyphname = ccedilla;
kernLeft = c;
kernRight = c;
layers = (
{
layerId = m01;
shapes = (
{
closed = 1;
nodes = (
(40,341,o),
(112,413,o),
(235,413,cs),
(289,413,o),
(329,401,o),
(350,379,cs),
(361,368,o),
(367,354,o),
(367,339,cs),
(367,309,o),
(345,272,o),
(313,272,cs),
(304,272,o),
(303,272,o),
(284,279,cs),
(275,283,o),
(266,284,o),
(254,284,cs),
(207,284,o),
(188,262,o),
(188,209,cs),
(188,193,ls),
(188,138,o),
(204,118,o),
(248,118,cs),
(267,118,o),
(271,119,o),
(297,129,cs),
(303,131,o),
(310,132,o),
(317,132,cs),
(350,132,o),
(376,98,o),
(376,66,cs),
(376,45,o),
(367,29,o),
(349,16,cs),
(324,-2,o),
(283,-11,o),
(228,-11,cs),
(108,-11,o),
(40,60,o),
(40,185,cs),
(40,217,ls)
);
},
{
closed = 1;
nodes = (
(265,18,l),
(244,-21,l),
(304,-45,o),
(323,-70,o),
(323,-121,cs),
(323,-196,o),
(283,-228,o),
(190,-228,cs),
(150,-228,o),
(122,-222,o),
(106,-211,cs),
(94,-203,o),
(88,-191,o),
(88,-177,cs),
(88,-154,o),
(100,-127,o),
(126,-127,cs),
(131,-127,o),
(134,-127,o),
(141,-130,cs),
(152,-133,o),
(163,-135,o),
(173,-135,cs),
(189,-135,o),
(200,-126,o),
(200,-114,cs),
(200,-98,o),
(189,-91,o),
(143,-79,cs),
(130,-76,o),
(123,-69,o),
(123,-57,cs),
(123,-53,o),
(125,-49,o),
(128,-43,cs),
(162,18,l)
);
}
);
width = 387;
}
);
note = ccedilla;
unicode = 231;
},
{
glyphname = egrave;
kernLeft = c;
kernRight = e;
layers = (
{
layerId = m01;
shapes = (
{
closed = 1;
nodes = (
(175,149,ls),
(175,124,o),
(203,109,o),
(252,109,cs),
(286,109,o),
(328,114,o),
(350,120,cs),
(354,121,o),
(359,122,o),
(364,122,cs),
(395,122,o),
(419,97,o),
(419,64,cs),
(419,48,o),
(411,30,o),
(399,21,cs),
(376,2,o),
(312,-11,o),
(242,-11,cs),
(106,-11,o),
(28,57,o),
(28,175,cs),
(28,208,ls),
(28,340,o),
(101,413,o),
(232,413,cs),
(299,413,o),
(353,391,o),
(384,352,cs),
(405,325,o),
(423,271,o),
(423,232,cs),
(423,172,o),
(375,153,o),
(325,153,cs),
(175,153,l)
);
},
{
closed = 1;
nodes = (
(283,291,o),
(268,307,o),
(233,307,cs),
(195,307,o),
(178,290,o),
(173,247,c),
(290,247,l)
);
},
{
closed = 1;
nodes = (
(104,577,o),
(100,584,o),
(100,591,cs),
(100,610,o),
(114,621,o),
(136,621,cs),
(244,621,o),
(259,612,o),
(280,571,cs),
(314,505,l),
(318,495,o),
(321,485,o),
(321,479,cs),
(321,459,o),
(303,443,o),
(283,443,cs),
(224,443,o),
(210,451,o),
(176,491,cs),
(111,567,l)
);
}
);
width = 449;
}
);
note = egrave;
unicode = 232;
},
{
glyphname = eacute;
kernLeft = c;
kernRight = e;
layers = (
{
layerId = m01;
shapes = (
{
closed = 1;
nodes = (
(175,149,ls),
(175,124,o),
(203,109,o),
(252,109,cs),
(286,109,o),
(328,114,o),
(350,120,cs),
(354,121,o),
(359,122,o),
(364,122,cs),
(395,122,o),
(419,97,o),
(419,64,cs),
(419,48,o),
(411,30,o),
(399,21,cs),
(376,2,o),
(312,-11,o),
(242,-11,cs),
(106,-11,o),
(28,57,o),
(28,175,cs),
(28,208,ls),
(28,340,o),
(101,413,o),
(232,413,cs),
(299,413,o),
(353,391,o),
(384,352,cs),
(405,325,o),
(423,271,o),
(423,232,cs),
(423,172,o),
(375,153,o),
(325,153,cs),
(175,153,l)
);
},
{
closed = 1;
nodes = (
(283,291,o),
(268,307,o),
(233,307,cs),
(195,307,o),
(178,290,o),
(173,247,c),
(290,247,l)
);
},
{
closed = 1;
nodes = (
(382,584,o),
(378,576,o),
(371,567,cs),
(307,491,ls),
(273,451,o),
(258,443,o),
(216,443,cs),
(179,443,o),
(161,460,o),
(161,478,cs),
(161,485,o),
(164,495,o),
(169,505,cs),
(203,571,ls),
(223,612,o),
(239,621,o),
(284,621,cs),
(369,621,o),
(382,610,o),
(382,590,cs)
);
}
);
width = 449;
}
);
note = eacute;
unicode = 233;
},
{
glyphname = ecircumflex;
kernLeft = c;
kernRight = e;
layers = (
{
layerId = m01;
shapes = (
{
closed = 1;
nodes = (
(175,149,ls),
(175,124,o),
(203,109,o),
(252,109,cs),
(286,109,o),
(328,114,o),
(350,120,cs),
(354,121,o),
(359,122,o),
(364,122,cs),
(395,122,o),
(419,97,o),
(419,64,cs),
(419,48,o),
(411,30,o),
(399,21,cs),
(376,2,o),
(312,-11,o),
(242,-11,cs),
(106,-11,o),
(28,57,o),
(28,175,cs),
(28,208,ls),
(28,340,o),
(101,413,o),
(232,413,cs),
(299,413,o),
(353,391,o),
(384,352,cs),
(405,325,o),
(423,271,o),
(423,232,cs),
(423,172,o),
(375,153,o),
(325,153,cs),
(175,153,l)
);
},
{
closed = 1;
nodes = (
(283,291,o),
(268,307,o),
(233,307,cs),
(195,307,o),
(178,290,o),
(173,247,c),
(290,247,l)
);
},
{
closed = 1;
nodes = (
(200,470,ls),
(183,444,o),
(168,434,o),
(147,434,cs),
(116,434,o),
(91,459,o),
(91,489,cs),
(91,501,o),
(95,513,o),
(103,524,cs),
(135,568,ls),
(169,614,o),
(194,630,o),
(234,630,cs),
(274,630,o),
(299,614,o),
(332,570,cs),
(365,526,ls),
(373,514,o),
(379,501,o),
(379,489,cs),
(379,459,o),
(353,434,o),
(323,434,cs),
(301,434,o),
(286,444,o),
(269,470,cs),
(234,523,l)
);
}
);
width = 449;
}
);
note = ecircumflex;
unicode = 234;
},
{
glyphname = edieresis;
kernLeft = c;
kernRight = e;
layers = (
{
layerId = m01;
shapes = (
{
closed = 1;
nodes = (
(175,149,ls),
(175,124,o),
(203,109,o),
(252,109,cs),
(286,109,o),
(328,114,o),
(350,120,cs),
(354,121,o),
(359,122,o),
(364,122,cs),
(395,122,o),
(419,97,o),
(419,64,cs),
(419,48,o),
(411,30,o),
(399,21,cs),
(376,2,o),
(312,-11,o),
(242,-11,cs),
(106,-11,o),
(28,57,o),
(28,175,cs),
(28,208,ls),
(28,340,o),
(101,413,o),
(232,413,cs),
(299,413,o),
(353,391,o),
(384,352,cs),
(405,325,o),
(423,271,o),
(423,232,cs),
(423,172,o),
(375,153,o),
(325,153,cs),
(175,153,l)
);
},
{
closed = 1;
nodes = (
(283,291,o),
(268,307,o),
(233,307,cs),
(195,307,o),
(178,290,o),
(173,247,c),
(290,247,l)
);
},
{
closed = 1;
nodes = (
(183,604,o),
(213,574,o),
(213,529,cs),
(213,483,o),
(183,453,o),
(138,453,cs),
(92,453,o),
(62,483,o),
(62,529,cs),
(62,574,o),
(93,604,o),
(138,604,cs)
);
},
{
closed = 1;
nodes = (
(373,604,o),
(403,574,o),
(403,529,cs),
(403,483,o),
(373,453,o),
(328,453,cs),
(282,453,o),
(252,483,o),
(252,529,cs),
(252,574,o),
(283,604,o),
(328,604,cs)
);
}
);
width = 449;
}
);
note = edieresis;
unicode = 235;
},
{
glyphname = igrave;
layers = (
{
layerId = m01;
shapes = (
{
closed = 1;
nodes = (
(46,323,ls),
(46,380,o),
(73,413,o),
(120,413,cs),
(167,413,o),
(194,380,o),
(194,323,cs),
(194,79,ls),
(194,22,o),
(167,-11,o),
(120,-11,cs),
(73,-11,o),
(46,22,o),
(46,79,cs)
);
},
{
closed = 1;
nodes = (
(-6,577,o),
(-9,584,o),
(-9,591,cs),
(-9,610,o),
(4,621,o),
(27,621,cs),
(134,621,o),
(150,612,o),
(171,571,cs),
(204,505,ls),
(209,495,o),
(212,485,o),
(212,479,cs),
(212,459,o),
(194,443,o),
(174,443,cs),
(115,443,o),
(101,451,o),
(67,491,cs),
(2,567,ls)
);
}
);
width = 242;
}
);
note = igrave;
unicode = 236;
},
{
glyphname = iacute;
layers = (
{
layerId = m01;
shapes = (
{
closed = 1;
nodes = (
(46,323,ls),
(46,380,o),
(74,413,o),
(120,413,cs),
(167,413,o),
(194,380,o),
(194,323,cs),
(194,79,ls),
(194,22,o),
(167,-11,o),
(120,-11,cs),
(74,-11,o),
(46,22,o),
(46,79,cs)
);
},
{
closed = 1;
nodes = (
(266,584,o),
(262,576,o),
(255,567,cs),
(191,491,ls),
(157,451,o),
(142,443,o),
(101,443,cs),
(63,443,o),
(45,460,o),
(45,478,cs),
(45,485,o),
(48,495,o),
(53,505,cs),
(87,571,ls),
(108,612,o),
(123,621,o),
(169,621,cs),
(253,621,o),
(266,610,o),
(266,590,cs)
);
}
);
width = 242;
}
);
note = iacute;
unicode = 237;
},
{
glyphname = icircumflex;
layers = (
{
layerId = m01;
shapes = (
{
closed = 1;
nodes = (
(46,323,ls),
(46,380,o),
(73,413,o),
(120,413,cs),
(167,413,o),
(194,380,o),
(194,323,cs),
(194,79,ls),
(194,22,o),
(167,-11,o),
(120,-11,cs),
(73,-11,o),
(46,22,o),
(46,79,cs)
);
},
{
closed = 1;
nodes = (
(86,470,ls),
(70,444,o),
(54,434,o),
(33,434,cs),
(2,434,o),
(-23,459,o),
(-23,489,cs),
(-23,501,o),
(-19,513,o),
(-11,524,cs),
(22,568,ls),
(55,614,o),
(80,630,o),
(121,630,cs),
(160,630,o),
(186,614,o),
(219,570,cs),
(251,526,ls),
(260,514,o),
(265,501,o),
(265,489,cs),
(265,459,o),
(240,434,o),
(209,434,cs),
(187,434,o),
(172,444,o),
(155,470,cs),
(121,523,l)
);
}
);
width = 242;
}
);
note = icircumflex;
unicode = 238;
},
{
glyphname = idieresis;
layers = (
{
layerId = m01;
shapes = (
{
closed = 1;
nodes = (
(46,323,ls),
(46,380,o),
(73,413,o),
(120,413,cs),
(166,413,o),
(194,380,o),
(194,323,cs),
(194,79,ls),
(194,22,o),
(166,-11,o),
(120,-11,cs),
(73,-11,o),
(46,22,o),
(46,79,cs)
);
},
{
closed = 1;
nodes = (
(71,604,o),
(101,574,o),
(101,529,cs),
(101,483,o),
(71,453,o),
(26,453,cs),
(-20,453,o),
(-50,483,o),
(-50,529,cs),
(-50,574,o),
(-20,604,o),
(26,604,cs)
);
},
{
closed = 1;
nodes = (
(261,604,o),
(291,574,o),
(291,529,cs),
(291,483,o),
(261,453,o),
(216,453,cs),
(170,453,o),
(140,483,o),
(140,529,cs),
(140,574,o),
(170,604,o),
(216,604,cs)
);
}
);
width = 242;
}
);
note = idieresis;
unicode = 239;
},
{
glyphname = eth;
kernLeft = c;
layers = (
{
layerId = m01;
shapes = (
{
closed = 1;
nodes = (
(180,453,ls),
(168,444,o),
(155,438,o),
(146,438,cs),
(123,438,o),
(103,458,o),
(103,482,cs),
(103,496,o),
(110,508,o),
(128,521,cs),
(272,632,ls),
(284,641,o),
(296,647,o),
(306,647,cs),
(329,647,o),
(348,627,o),
(348,603,cs),
(348,588,o),
(341,577,o),
(324,564,cs)
);
},
{
closed = 1;
nodes = (
(246,438,o),
(224,466,o),
(197,489,cs),
(175,506,o),
(150,520,o),
(124,530,cs),
(90,542,o),
(78,557,o),
(78,583,cs),
(78,612,o),
(101,638,o),
(131,638,cs),
(146,638,o),
(183,630,o),
(207,622,cs),
(294,593,o),
(363,522,o),
(399,423,cs),
(417,374,o),
(431,283,o),
(431,217,cs),
(431,185,ls),
(431,60,o),
(358,-11,o),
(230,-11,cs),
(101,-11,o),
(28,60,o),
(28,185,cs),
(28,217,ls),
(28,340,o),
(97,413,o),
(215,413,cs),
(230,413,o),
(245,412,o),
(257,410,c)
);
},
{
closed = 1;
nodes = (
(282,263,o),
(267,284,o),
(230,284,cs),
(192,284,o),
(177,263,o),
(177,209,cs),
(177,193,ls),
(178,137,o),
(191,118,o),
(229,118,cs),
(267,118,o),
(282,139,o),
(282,193,cs),
(282,209,ls)
);
}
);
width = 459;
}
);
note = eth;
unicode = 240;
},
{
glyphname = ntilde;
kernLeft = m;
layers = (
{
layerId = m01;
shapes = (
{
closed = 1;
nodes = (
(209,406,o),
(238,413,o),
(285,413,cs),
(359,413,o),
(407,382,o),
(426,322,cs),
(434,299,o),
(437,266,o),
(437,211,cs),
(437,79,ls),
(437,22,o),
(410,-11,o),
(363,-11,cs),
(316,-11,o),
(289,22,o),
(289,79,cs),
(289,200,ls),
(289,230,o),
(287,251,o),
(282,264,cs),
(275,279,o),
(264,284,o),
(246,284,cs),
(226,284,o),
(212,278,o),
(204,263,cs),
(194,247,o),
(191,221,o),
(191,180,cs),
(191,79,ls),
(191,22,o),
(164,-11,o),
(117,-11,cs),
(70,-11,o),
(43,22,o),
(43,79,cs),
(43,352,ls),
(43,406,o),
(73,413,o),
(117,413,cs),
(139,413,o),
(165,406,o),
(169,386,c)
);
},
{
closed = 1;
nodes = (
(409,577,o),
(403,550,o),
(396,527,cs),
(378,470,o),
(348,444,o),
(300,444,cs),
(264,444,o),
(245,454,o),
(215,490,cs),
(206,501,o),
(201,504,o),
(192,504,cs),
(179,504,o),
(168,491,o),
(162,470,cs),
(157,451,o),
(139,438,o),
(112,438,cs),
(92,438,o),
(76,454,o),
(76,473,cs),
(76,482,o),
(80,500,o),
(85,521,cs),
(104,588,o),
(134,618,o),
(185,618,cs),
(220,618,o),
(244,605,o),
(270,572,cs),
(279,561,o),
(284,558,o),
(293,558,cs),
(306,558,o),
(315,568,o),
(323,592,cs),
(330,613,o),
(346,624,o),
(368,624,cs),
(373,624,ls),
(393,624,o),
(409,608,o),
(409,589,cs)
);
}
);
width = 477;
}
);
note = ntilde;
unicode = 241;
},
{
glyphname = ograve;
kernLeft = c;
kernRight = b;
layers = (
{
layerId = m01;
shapes = (
{
closed = 1;
nodes = (
(28,342,o),
(101,413,o),
(230,413,cs),
(358,413,o),
(431,342,o),
(431,217,cs),
(431,185,ls),
(431,60,o),
(358,-11,o),
(230,-11,cs),
(101,-11,o),
(28,60,o),
(28,185,cs),
(28,217,ls)
);
},
{
closed = 1;
nodes = (
(282,263,o),
(267,284,o),
(230,284,cs),
(192,284,o),
(177,263,o),
(177,209,cs),
(177,193,ls),
(178,137,o),
(191,118,o),
(229,118,cs),
(267,118,o),
(282,139,o),
(282,193,cs),
(282,209,ls)
);
},
{
closed = 1;
nodes = (
(103,577,o),
(99,584,o),
(99,591,cs),
(99,610,o),
(113,621,o),
(136,621,cs),
(243,621,o),
(258,612,o),
(279,571,cs),
(313,505,ls),
(318,495,o),
(320,485,o),
(320,479,cs),
(320,459,o),
(303,443,o),
(282,443,cs),
(223,443,o),
(209,451,o),
(175,491,cs),
(111,567,ls)
);
}
);
width = 459;
}
);
note = ograve;
unicode = 242;
},
{
glyphname = oacute;
kernLeft = c;
kernRight = b;
layers = (
{
layerId = m01;
shapes = (
{
closed = 1;
nodes = (
(28,342,o),
(101,413,o),
(230,413,cs),
(358,413,o),
(431,342,o),
(431,217,cs),
(431,185,ls),
(431,60,o),
(358,-11,o),
(230,-11,cs),
(101,-11,o),
(28,60,o),
(28,185,cs),
(28,217,ls)
);
},
{
closed = 1;
nodes = (
(282,263,o),
(267,284,o),
(230,284,cs),
(192,284,o),
(177,263,o),
(177,209,cs),
(177,193,ls),
(178,137,o),
(191,118,o),
(229,118,cs),
(267,118,o),
(282,139,o),
(282,193,cs),
(282,209,ls)
);
},
{
closed = 1;
nodes = (
(374,584,o),
(371,576,o),
(363,567,cs),
(299,491,ls),
(265,451,o),
(251,443,o),
(209,443,cs),
(171,443,o),
(153,460,o),
(153,478,cs),
(153,485,o),
(156,495,o),
(161,505,cs),
(195,571,ls),
(216,612,o),
(231,621,o),
(277,621,cs),
(361,621,o),
(374,610,o),
(374,590,cs)
);
}
);
width = 459;
}
);
note = oacute;
unicode = 243;
},
{
glyphname = ocircumflex;
kernLeft = c;
kernRight = b;
layers = (
{
layerId = m01;
shapes = (
{
closed = 1;
nodes = (
(28,342,o),
(101,413,o),
(230,413,cs),
(358,413,o),
(431,342,o),
(431,217,cs),
(431,185,ls),
(431,60,o),
(358,-11,o),
(230,-11,cs),
(101,-11,o),
(28,60,o),
(28,185,cs),
(28,217,ls)
);
},
{
closed = 1;
nodes = (
(282,263,o),
(267,284,o),
(230,284,cs),
(192,284,o),
(177,263,o),
(177,209,cs),
(177,193,ls),
(178,137,o),
(191,118,o),
(229,118,cs),
(267,118,o),
(282,139,o),
(282,193,cs),
(282,209,ls)
);
},
{
closed = 1;
nodes = (
(195,470,ls),
(179,444,o),
(163,434,o),
(142,434,cs),
(111,434,o),
(86,459,o),
(86,489,cs),
(86,501,o),
(90,513,o),
(98,524,cs),
(130,568,ls),
(164,614,o),
(189,630,o),
(229,630,cs),
(269,630,o),
(294,614,o),
(327,570,cs),
(360,526,ls),
(369,514,o),
(374,501,o),
(374,489,cs),
(374,459,o),
(348,434,o),
(318,434,cs),
(296,434,o),
(281,444,o),
(264,470,cs),
(229,523,l)
);
}
);
width = 459;
}
);
note = ocircumflex;
unicode = 244;
},
{
glyphname = otilde;
kernLeft = c;
layers = (
{
layerId = m01;
shapes = (
{
closed = 1;
nodes = (
(28,342,o),
(101,413,o),
(230,413,cs),
(358,413,o),
(431,342,o),
(431,217,cs),
(431,185,ls),
(431,60,o),
(358,-11,o),
(230,-11,cs),
(101,-11,o),
(28,60,o),
(28,185,cs),
(28,217,ls)
);
},
{
closed = 1;
nodes = (
(282,263,o),
(267,284,o),
(230,284,cs),
(192,284,o),
(177,263,o),
(177,209,cs),
(177,193,ls),
(178,137,o),
(191,118,o),
(229,118,cs),
(267,118,o),
(282,139,o),
(282,193,cs),
(282,209,ls)
);
},
{
closed = 1;
nodes = (
(396,577,o),
(390,550,o),
(383,527,cs),
(365,470,o),
(335,444,o),
(287,444,cs),
(251,444,o),
(232,454,o),
(202,490,cs),
(193,501,o),
(188,504,o),
(179,504,cs),
(166,504,o),
(155,491,o),
(149,470,cs),
(144,451,o),
(125,438,o),
(99,438,cs),
(79,438,o),
(63,454,o),
(63,473,cs),
(63,482,o),
(67,500,o),
(72,521,cs),
(91,588,o),
(121,618,o),
(172,618,cs),
(207,618,o),
(231,605,o),
(257,572,cs),
(266,561,o),
(271,558,o),
(280,558,cs),
(293,558,o),
(302,568,o),
(310,592,cs),
(317,613,o),
(333,624,o),
(355,624,cs),
(360,624,ls),
(380,624,o),
(396,608,o),
(396,589,cs)
);
}
);
width = 459;
}
);
note = otilde;
unicode = 245;
},
{
glyphname = odieresis;
kernLeft = c;
kernRight = b;
layers = (
{
layerId = m01;
shapes = (
{
closed = 1;
nodes = (
(28,342,o),
(101,413,o),
(230,413,cs),
(358,413,o),
(431,342,o),
(431,217,cs),
(431,185,ls),
(431,60,o),
(358,-11,o),
(230,-11,cs),
(101,-11,o),
(28,60,o),
(28,185,cs),
(28,217,ls)
);
},
{
closed = 1;
nodes = (
(282,263,o),
(267,284,o),
(230,284,cs),
(192,284,o),
(177,263,o),
(177,209,cs),
(177,193,ls),
(178,137,o),
(191,118,o),
(229,118,cs),
(267,118,o),
(282,139,o),
(282,193,cs),
(282,209,ls)
);
},
{
closed = 1;
nodes = (
(180,604,o),
(210,574,o),
(210,529,cs),
(210,483,o),
(180,453,o),
(135,453,cs),
(89,453,o),
(59,483,o),
(59,529,cs),
(59,574,o),
(89,604,o),
(135,604,cs)
);
},
{
closed = 1;
nodes = (
(370,604,o),
(400,574,o),
(400,529,cs),
(400,483,o),
(370,453,o),
(325,453,cs),
(279,453,o),
(249,483,o),
(249,529,cs),
(249,574,o),
(279,604,o),
(325,604,cs)
);
}
);
width = 459;
}
);
note = odieresis;
unicode = 246;
},
{
glyphname = divide;
layers = (
{
layerId = m01;
shapes = (
{
closed = 1;
nodes = (
(287,559,o),
(309,535,o),
(309,483,cs),
(309,431,o),
(287,407,o),
(240,407,cs),
(193,407,o),
(171,431,o),
(171,483,cs),
(171,535,o),
(193,559,o),
(240,559,cs)
);
},
{
closed = 1;
nodes = (
(287,196,o),
(309,172,o),
(309,120,cs),
(309,68,o),
(287,44,o),
(240,44,cs),
(193,44,o),
(171,68,o),
(171,120,cs),
(171,172,o),
(193,196,o),
(240,196,cs)
);
},
{
closed = 1;
nodes = (
(365,365,ls),
(414,365,o),
(443,342,o),
(443,302,cs),
(443,261,o),
(414,238,o),
(365,238,cs),
(115,238,ls),
(66,238,o),
(37,261,o),
(37,302,cs),
(37,342,o),
(66,365,o),
(115,365,cs)
);
}
);
width = 480;
}
);
note = divide;
unicode = 247;
},
{
glyphname = oslash;
kernLeft = c;
kernRight = b;
layers = (
{
layerId = m01;
shapes = (
{
closed = 1;
nodes = (
(360,408,ls),
(371,421,o),
(384,429,o),
(398,429,cs),
(416,428,o),
(433,410,o),
(433,392,cs),
(433,381,o),
(427,369,o),
(419,359,cs),
(101,-20,ls),
(91,-31,o),
(79,-40,o),
(66,-40,cs),
(46,-41,o),
(27,-23,o),
(27,-3,cs),
(27,8,o),
(33,20,o),
(42,30,cs)
);
},
{
closed = 1;
nodes = (
(29,342,o),
(101,413,o),
(230,413,cs),
(358,413,o),
(431,342,o),
(431,217,cs),
(431,185,ls),
(431,60,o),
(358,-11,o),
(230,-11,cs),
(101,-11,o),
(29,60,o),
(29,185,cs),
(29,217,ls)
);
},
{
closed = 1;
nodes = (
(156,125,o),
(177,99,o),
(229,99,cs),
(279,99,o),
(300,126,o),
(300,193,cs),
(300,209,ls),
(300,276,o),
(279,303,o),
(229,303,cs),
(177,303,o),
(155,275,o),
(155,209,cs),
(155,193,ls)
);
}
);
width = 460;
}
);
note = oslash;
unicode = 248;
},
{
glyphname = ugrave;
kernLeft = u;
layers = (
{
layerId = m01;
shapes = (
{
closed = 1;
nodes = (
(265,-3,o),
(234,-11,o),
(196,-11,cs),
(116,-11,o),
(70,18,o),
(50,80,cs),
(43,104,o),
(40,135,o),
(40,191,cs),
(40,323,ls),
(40,380,o),
(67,413,o),
(114,413,cs),
(161,413,o),
(188,380,o),
(188,323,cs),
(188,202,ls),
(188,172,o),
(190,152,o),
(195,139,cs),
(200,123,o),
(211,118,o),
(227,118,cs),
(247,118,o),
(259,124,o),
(267,141,cs),
(275,157,o),
(278,183,o),
(278,222,cs),
(278,323,ls),
(278,380,o),
(305,413,o),
(352,413,cs),
(399,413,o),
(426,380,o),
(426,323,cs),
(426,50,ls),
(426,-4,o),
(393,-11,o),
(349,-11,cs),
(328,-11,o),
(304,-4,o),
(300,16,c)
);
},
{
closed = 1;
nodes = (
(108,577,o),
(104,584,o),
(104,591,cs),
(104,610,o),
(118,621,o),
(141,621,cs),
(248,621,o),
(263,612,o),
(284,571,cs),
(318,505,ls),
(323,495,o),
(325,485,o),
(325,479,cs),
(325,459,o),
(308,443,o),
(287,443,cs),
(228,443,o),
(214,451,o),
(180,491,cs),
(116,567,ls)
);
}
);
width = 469;
}
);
note = ugrave;
unicode = 249;
},
{
glyphname = uacute;
kernLeft = u;
layers = (
{
layerId = m01;
shapes = (
{
closed = 1;
nodes = (
(265,-3,o),
(234,-11,o),
(196,-11,cs),
(116,-11,o),
(70,18,o),
(50,80,cs),
(43,104,o),
(40,135,o),
(40,191,cs),
(40,323,ls),
(40,380,o),
(67,413,o),
(114,413,cs),
(161,413,o),
(188,380,o),
(188,323,cs),
(188,202,ls),
(188,172,o),
(190,152,o),
(195,139,cs),
(200,123,o),
(211,118,o),
(227,118,cs),
(247,118,o),
(259,124,o),
(267,141,cs),
(275,157,o),
(278,183,o),
(278,222,cs),
(278,323,ls),
(278,380,o),
(305,413,o),
(352,413,cs),
(399,413,o),
(426,380,o),
(426,323,cs),
(426,50,ls),
(426,-4,o),
(393,-11,o),
(349,-11,cs),
(328,-11,o),
(304,-4,o),
(300,16,c)
);
},
{
closed = 1;
nodes = (
(379,584,o),
(376,576,o),
(368,567,cs),
(304,491,ls),
(270,451,o),
(256,443,o),
(214,443,cs),
(176,443,o),
(158,460,o),
(158,478,cs),
(158,485,o),
(161,495,o),
(166,505,cs),
(200,571,ls),
(221,612,o),
(236,621,o),
(282,621,cs),
(366,621,o),
(379,610,o),
(379,590,cs)
);
}
);
width = 469;
}
);
note = uacute;
unicode = 250;
},
{
glyphname = ucircumflex;
kernLeft = u;
layers = (
{
layerId = m01;
shapes = (
{
closed = 1;
nodes = (
(265,-3,o),
(234,-11,o),
(196,-11,cs),
(116,-11,o),
(70,18,o),
(50,80,cs),
(43,104,o),
(40,135,o),
(40,191,cs),
(40,323,ls),
(40,380,o),
(67,413,o),
(114,413,cs),
(161,413,o),
(188,380,o),
(188,323,cs),
(188,202,ls),
(188,172,o),
(190,152,o),
(195,139,cs),
(200,123,o),
(211,118,o),
(227,118,cs),
(247,118,o),
(259,124,o),
(267,141,cs),
(275,157,o),
(278,183,o),
(278,222,cs),
(278,323,ls),
(278,380,o),
(305,413,o),
(352,413,cs),
(399,413,o),
(426,380,o),
(426,323,cs),
(426,50,ls),
(426,-4,o),
(393,-11,o),
(349,-11,cs),
(328,-11,o),
(304,-4,o),
(300,16,c)
);
},
{
closed = 1;
nodes = (
(200,470,ls),
(184,444,o),
(168,434,o),
(147,434,cs),
(116,434,o),
(91,459,o),
(91,489,cs),
(91,501,o),
(95,513,o),
(103,524,cs),
(135,568,ls),
(169,614,o),
(194,630,o),
(234,630,cs),
(274,630,o),
(299,614,o),
(332,570,cs),
(365,526,ls),
(374,514,o),
(379,501,o),
(379,489,cs),
(379,459,o),
(353,434,o),
(323,434,cs),
(301,434,o),
(286,444,o),
(269,470,cs),
(234,523,l)
);
}
);
width = 469;
}
);
note = ucircumflex;
unicode = 251;
},
{
glyphname = udieresis;
kernLeft = u;
layers = (
{
layerId = m01;
shapes = (
{
closed = 1;
nodes = (
(265,-3,o),
(234,-11,o),
(196,-11,cs),
(116,-11,o),
(70,18,o),
(50,80,cs),
(43,104,o),
(40,135,o),
(40,191,cs),
(40,323,ls),
(40,380,o),
(67,413,o),
(114,413,cs),
(161,413,o),
(188,380,o),
(188,323,cs),
(188,202,ls),
(188,172,o),
(190,152,o),
(195,139,cs),
(200,123,o),
(211,118,o),
(227,118,cs),
(247,118,o),
(259,124,o),
(267,141,cs),
(275,157,o),
(278,183,o),
(278,222,cs),
(278,323,ls),
(278,380,o),
(305,413,o),
(352,413,cs),
(399,413,o),
(426,380,o),
(426,323,cs),
(426,50,ls),
(426,-4,o),
(393,-11,o),
(349,-11,cs),
(328,-11,o),
(304,-4,o),
(300,16,c)
);
},
{
closed = 1;
nodes = (
(185,604,o),
(215,574,o),
(215,529,cs),
(215,483,o),
(185,453,o),
(140,453,cs),
(94,453,o),
(64,483,o),
(64,529,cs),
(64,574,o),
(94,604,o),
(140,604,cs)
);
},
{
closed = 1;
nodes = (
(375,604,o),
(405,574,o),
(405,529,cs),
(405,483,o),
(375,453,o),
(330,453,cs),
(284,453,o),
(254,483,o),
(254,529,cs),
(254,574,o),
(284,604,o),
(330,604,cs)
);
}
);
width = 469;
}
);
note = udieresis;
unicode = 252;
},
{
glyphname = yacute;
kernLeft = v;
kernRight = v;
layers = (
{
layerId = m01;
shapes = (
{
closed = 1;
nodes = (
(28,299,ls),
(23,314,o),
(19,332,o),
(19,346,cs),
(19,380,o),
(54,412,o),
(92,412,cs),
(130,412,o),
(154,390,o),
(167,343,cs),
(214,177,l),
(264,348,ls),
(277,391,o),
(299,412,o),
(335,412,cs),
(372,412,o),
(404,382,o),
(404,348,cs),
(404,335,o),
(401,319,o),
(394,303,cs),
(266,-17,ls),
(235,-93,o),
(229,-106,o),
(202,-140,cs),
(173,-176,o),
(130,-198,o),
(89,-198,cs),
(57,-198,o),
(35,-174,o),
(35,-137,cs),
(35,-107,o),
(45,-93,o),
(78,-75,cs),
(98,-64,o),
(108,-52,o),
(125,-18,cs),
(134,1,l)
);
},
{
closed = 1;
nodes = (
(377,584,o),
(373,576,o),
(366,567,cs),
(301,491,ls),
(268,451,o),
(253,443,o),
(211,443,cs),
(174,443,o),
(156,460,o),
(156,478,cs),
(156,485,o),
(158,495,o),
(164,505,cs),
(197,571,ls),
(218,612,o),
(234,621,o),
(279,621,cs),
(364,621,o),
(377,610,o),
(377,590,cs)
);
}
);
width = 424;
}
);
note = yacute;
unicode = 253;
},
{
glyphname = thorn;
kernRight = b;
layers = (
{
layerId = m01;
shapes = (
{
closed = 1;
nodes = (
(219,406,o),
(251,413,o),
(284,413,cs),
(386,413,o),
(444,342,o),
(444,217,cs),
(444,185,ls),
(444,61,o),
(385,-11,o),
(285,-11,cs),
(248,-11,o),
(216,-3,o),
(191,13,c),
(191,-121,ls),
(191,-178,o),
(164,-211,o),
(117,-211,cs),
(70,-211,o),
(43,-178,o),
(43,-121,cs),
(43,542,ls),
(43,599,o),
(70,632,o),
(117,632,cs),
(164,632,o),
(191,599,o),
(191,542,cs),
(191,388,l)
);
},
{
closed = 1;
nodes = (
(192,137,o),
(205,118,o),
(243,118,cs),
(280,118,o),
(295,139,o),
(295,193,cs),
(295,209,ls),
(295,263,o),
(281,284,o),
(243,284,cs),
(206,284,o),
(191,262,o),
(191,209,cs),
(191,193,ls)
);
}
);
width = 472;
}
);
note = thorn;
unicode = 254;
},
{
glyphname = ydieresis;
kernLeft = v;
kernRight = v;
layers = (
{
layerId = m01;
shapes = (
{
closed = 1;
nodes = (
(28,299,ls),
(23,314,o),
(19,332,o),
(19,346,cs),
(19,380,o),
(54,412,o),
(92,412,cs),
(130,412,o),
(154,390,o),
(167,343,cs),
(214,177,l),
(264,348,ls),
(277,391,o),
(299,412,o),
(335,412,cs),
(372,412,o),
(404,382,o),
(404,348,cs),
(404,335,o),
(401,319,o),
(394,303,cs),
(266,-17,ls),
(235,-93,o),
(229,-106,o),
(202,-140,cs),
(173,-176,o),
(130,-198,o),
(89,-198,cs),
(57,-198,o),
(35,-174,o),
(35,-137,cs),
(35,-107,o),
(45,-93,o),
(78,-75,cs),
(98,-64,o),
(108,-52,o),
(125,-18,cs),
(134,1,l)
);
},
{
closed = 1;
nodes = (
(163,604,o),
(193,574,o),
(193,529,cs),
(193,483,o),
(163,453,o),
(117,453,cs),
(72,453,o),
(42,483,o),
(42,529,cs),
(42,574,o),
(72,604,o),
(117,604,cs)
);
},
{
closed = 1;
nodes = (
(353,604,o),
(383,574,o),
(383,529,cs),
(383,483,o),
(353,453,o),
(307,453,cs),
(262,453,o),
(232,483,o),
(232,529,cs),
(232,574,o),
(262,604,o),
(307,604,cs)
);
}
);
width = 424;
}
);
note = ydieresis;
unicode = 255;
},
{
glyphname = Amacron;
kernLeft = A;
kernRight = A;
layers = (
{
layerId = m01;
shapes = (
{
closed = 1;
nodes = (
(168,107,l),
(151,56,ls),
(136,11,o),
(113,-10,o),
(76,-10,cs),
(37,-10,o),
(3,22,o),
(3,59,cs),
(3,72,o),
(6,87,o),
(13,104,cs),
(165,516,ls),
(188,579,o),
(220,606,o),
(272,606,cs),
(323,606,o),
(355,579,o),
(378,516,cs),
(531,110,ls),
(538,92,o),
(541,76,o),
(541,62,cs),
(541,23,o),
(506,-10,o),
(465,-10,cs),
(427,-10,o),
(402,12,o),
(387,59,cs),
(371,107,l)
);
},
{
closed = 1;
nodes = (
(271,417,l),
(206,233,l),
(334,233,l)
);
},
{
closed = 1;
nodes = (
(365,787,ls),
(413,787,o),
(441,764,o),
(441,725,cs),
(441,686,o),
(413,663,o),
(365,663,cs),
(180,663,ls),
(133,663,o),
(105,686,o),
(105,725,cs),
(105,764,o),
(133,787,o),
(180,787,cs)
);
}
);
width = 545;
}
);
note = Amacron;
unicode = 256;
},
{
glyphname = amacron;
kernLeft = a;
kernRight = a;
layers = (
{
layerId = m01;
shapes = (
{
closed = 1;
nodes = (
(266,264,ls),
(265,290,o),
(248,300,o),
(206,300,cs),
(184,300,o),
(154,295,o),
(131,287,cs),
(123,284,o),
(118,283,o),
(112,283,cs),
(82,283,o),
(58,308,o),
(58,339,cs),
(58,355,o),
(66,373,o),
(76,381,cs),
(101,400,o),
(162,413,o),
(228,413,cs),
(312,413,o),
(364,394,o),
(394,353,cs),
(412,328,o),
(416,302,o),
(416,225,cs),
(416,52,ls),
(416,13,o),
(388,-11,o),
(343,-11,cs),
(309,-11,o),
(291,3,o),
(282,36,c),
(253,2,o),
(219,-11,o),
(163,-11,cs),
(70,-11,o),
(19,35,o),
(19,121,cs),
(19,173,o),
(33,209,o),
(66,232,cs),
(96,253,o),
(142,262,o),
(208,262,cs),
(218,262,o),
(218,262,o),
(266,261,c)
);
},
{
closed = 1;
nodes = (
(259,178,o),
(255,178,o),
(250,178,cs),
(218,178,o),
(159,181,o),
(159,136,cs),
(159,113,o),
(171,103,o),
(200,103,cs),
(239,103,o),
(268,130,o),
(268,165,cs),
(268,177,l)
);
},
{
closed = 1;
nodes = (
(321,591,ls),
(369,591,o),
(397,568,o),
(397,529,cs),
(397,490,o),
(369,467,o),
(321,467,cs),
(137,467,ls),
(89,467,o),
(61,490,o),
(61,529,cs),
(61,568,o),
(89,591,o),
(137,591,cs)
);
}
);
width = 458;
}
);
note = amacron;
unicode = 257;
},
{
glyphname = Abreve;
kernLeft = A;
kernRight = A;
layers = (
{
layerId = m01;
shapes = (
{
closed = 1;
nodes = (
(168,107,l),
(151,56,ls),
(136,11,o),
(113,-10,o),
(76,-10,cs),
(37,-10,o),
(3,22,o),
(3,59,cs),
(3,72,o),
(6,87,o),
(13,104,cs),
(165,516,ls),
(188,579,o),
(220,606,o),
(272,606,cs),
(323,606,o),
(355,579,o),
(378,516,cs),
(531,110,ls),
(538,92,o),
(541,76,o),
(541,62,cs),
(541,23,o),
(506,-10,o),
(465,-10,cs),
(427,-10,o),
(402,12,o),
(387,59,cs),
(371,107,l)
);
},
{
closed = 1;
nodes = (
(271,417,l),
(206,233,l),
(334,233,l)
);
},
{
closed = 1;
nodes = (
(339,809,o),
(360,824,o),
(389,824,cs),
(416,824,o),
(438,802,o),
(438,775,cs),
(438,672,o),
(368,637,o),
(273,637,cs),
(177,637,o),
(107,672,o),
(107,775,cs),
(107,803,o),
(129,824,o),
(159,824,cs),
(188,824,o),
(204,811,o),
(215,779,cs),
(224,751,o),
(241,740,o),
(273,740,cs),
(307,740,o),
(323,752,o),
(333,785,cs)
);
}
);
width = 545;
}
);
note = Abreve;
unicode = 258;
},
{
glyphname = abreve;
kernLeft = a;
kernRight = a;
layers = (
{
layerId = m01;
shapes = (
{
closed = 1;
nodes = (
(266,264,ls),
(265,290,o),
(248,300,o),
(206,300,cs),
(184,300,o),
(154,295,o),
(131,287,cs),
(123,284,o),
(118,283,o),
(112,283,cs),
(82,283,o),
(58,308,o),
(58,339,cs),
(58,355,o),
(66,373,o),
(76,381,cs),
(101,400,o),
(162,413,o),
(228,413,cs),
(312,413,o),
(364,394,o),
(394,353,cs),
(412,328,o),
(416,302,o),
(416,225,cs),
(416,52,ls),
(416,13,o),
(388,-11,o),
(343,-11,cs),
(309,-11,o),
(291,3,o),
(282,36,c),
(253,2,o),
(219,-11,o),
(163,-11,cs),
(70,-11,o),
(19,35,o),
(19,121,cs),
(19,173,o),
(33,209,o),
(66,232,cs),
(96,253,o),
(142,262,o),
(208,262,cs),
(218,262,o),
(218,262,o),
(266,261,c)
);
},
{
closed = 1;
nodes = (
(259,178,o),
(255,178,o),
(250,178,cs),
(218,178,o),
(159,181,o),
(159,136,cs),
(159,113,o),
(171,103,o),
(200,103,cs),
(239,103,o),
(268,130,o),
(268,165,cs),
(268,177,l)
);
},
{
closed = 1;
nodes = (
(296,613,o),
(316,628,o),
(346,628,cs),
(373,628,o),
(394,606,o),
(394,579,cs),
(394,476,o),
(324,441,o),
(229,441,cs),
(133,441,o),
(63,476,o),
(63,579,cs),
(63,607,o),
(85,628,o),
(116,628,cs),
(144,628,o),
(160,615,o),
(171,583,cs),
(180,555,o),
(197,544,o),
(229,544,cs),
(264,544,o),
(280,556,o),
(289,589,cs)
);
}
);
width = 458;
}
);
note = abreve;
unicode = 259;
},
{
glyphname = Aogonek;
kernLeft = A;
kernRight = A;
layers = (
{
layerId = m01;
shapes = (
{
closed = 1;
nodes = (
(168,107,l),
(151,56,ls),
(136,11,o),
(113,-10,o),
(76,-10,cs),
(37,-10,o),
(3,22,o),
(3,59,cs),
(3,72,o),
(6,87,o),
(13,104,cs),
(165,516,ls),
(188,579,o),
(220,606,o),
(272,606,cs),
(323,606,o),
(355,579,o),
(378,516,cs),
(531,110,ls),
(538,92,o),
(541,76,o),
(541,62,cs),
(541,23,o),
(506,-10,o),
(465,-10,cs),
(427,-10,o),
(402,12,o),
(387,59,cs),
(371,107,l)
);
},
{
closed = 1;
nodes = (
(271,417,l),
(206,233,l),
(334,233,l)
);
},
{
closed = 1;
nodes = (
(501,0,l),
(439,-58,o),
(422,-80,o),
(422,-106,cs),
(422,-125,o),
(432,-136,o),
(449,-136,cs),
(458,-136,o),
(458,-136,o),
(486,-128,cs),
(489,-127,o),
(493,-127,o),
(497,-127,cs),
(519,-127,o),
(536,-146,o),
(536,-170,cs),
(536,-207,o),
(495,-228,o),
(425,-228,cs),
(334,-228,o),
(291,-197,o),
(291,-133,cs),
(291,-72,o),
(324,-36,o),
(421,11,c)
);
}
);
width = 545;
}
);
note = Aogonek;
unicode = 260;
},
{
glyphname = aogonek;
kernLeft = a;
kernRight = a;
layers = (
{
layerId = m01;
shapes = (
{
closed = 1;
nodes = (
(266,264,ls),
(265,290,o),
(248,300,o),
(206,300,cs),
(184,300,o),
(154,295,o),
(131,287,cs),
(123,284,o),
(118,283,o),
(112,283,cs),
(82,283,o),
(58,308,o),
(58,339,cs),
(58,355,o),
(66,373,o),
(76,381,cs),
(101,400,o),
(162,413,o),
(228,413,cs),
(312,413,o),
(364,394,o),
(394,353,cs),
(412,328,o),
(416,302,o),
(416,225,cs),
(416,52,ls),
(416,13,o),
(388,-11,o),
(343,-11,cs),
(309,-11,o),
(291,3,o),
(282,36,c),
(253,2,o),
(219,-11,o),
(163,-11,cs),
(70,-11,o),
(19,35,o),
(19,121,cs),
(19,173,o),
(33,209,o),
(66,232,cs),
(96,253,o),
(142,262,o),
(208,262,cs),
(218,262,o),
(218,262,o),
(266,261,c)
);
},
{
closed = 1;
nodes = (
(259,178,o),
(255,178,o),
(250,178,cs),
(218,178,o),
(159,181,o),
(159,136,cs),
(159,113,o),
(171,103,o),
(200,103,cs),
(239,103,o),
(268,130,o),
(268,165,cs),
(268,177,l)
);
},
{
closed = 1;
nodes = (
(323,-58,o),
(307,-80,o),
(307,-106,cs),
(307,-125,o),
(317,-136,o),
(333,-136,cs),
(342,-136,o),
(342,-136,o),
(371,-128,cs),
(374,-127,o),
(377,-127,o),
(381,-127,cs),
(403,-127,o),
(421,-146,o),
(421,-170,cs),
(421,-207,o),
(379,-228,o),
(309,-228,cs),
(218,-228,o),
(176,-197,o),
(176,-133,cs),
(176,-72,o),
(206,-37,o),
(299,10,c),
(385,0,l)
);
}
);
width = 458;
}
);
note = aogonek;
unicode = 261;
},
{
glyphname = Cacute;
kernLeft = C;
layers = (
{
layerId = m01;
shapes = (
{
closed = 1;
nodes = (
(200,262,ls),
(200,160,o),
(225,123,o),
(292,123,cs),
(326,123,o),
(333,125,o),
(377,146,cs),
(389,152,o),
(399,155,o),
(407,155,cs),
(444,155,o),
(469,117,o),
(469,83,cs),
(469,68,o),
(464,53,o),
(453,41,cs),
(426,9,o),
(366,-11,o),
(285,-11,cs),
(123,-11,o),
(42,78,o),
(42,257,cs),
(42,339,ls),
(42,517,o),
(123,607,o),
(282,607,cs),
(357,607,o),
(410,590,o),
(434,560,cs),
(443,548,o),
(448,534,o),
(448,518,cs),
(448,481,o),
(419,451,o),
(383,451,cs),
(370,451,o),
(363,453,o),
(347,461,cs),
(332,469,o),
(313,473,o),
(291,473,cs),
(225,473,o),
(200,432,o),
(200,325,cs)
);
},
{
closed = 1;
nodes = (
(426,780,o),
(423,772,o),
(416,763,cs),
(351,687,ls),
(317,647,o),
(303,639,o),
(261,639,cs),
(224,639,o),
(205,656,o),
(205,674,cs),
(205,681,o),
(208,691,o),
(214,701,cs),
(247,767,ls),
(268,808,o),
(283,817,o),
(329,817,cs),
(414,817,o),
(426,806,o),
(426,786,cs)
);
}
);
width = 457;
}
);
note = Cacute;
unicode = 262;
},
{
glyphname = cacute;
kernLeft = c;
kernRight = c;
layers = (
{
layerId = m01;
shapes = (
{
closed = 1;
nodes = (
(40,341,o),
(112,413,o),
(235,413,cs),
(289,413,o),
(329,401,o),
(350,379,cs),
(361,368,o),
(367,354,o),
(367,339,cs),
(367,309,o),
(345,272,o),
(313,272,cs),
(304,272,o),
(303,272,o),
(284,279,cs),
(275,283,o),
(266,284,o),
(254,284,cs),
(207,284,o),
(188,262,o),
(188,209,cs),
(188,193,ls),
(188,138,o),
(204,118,o),
(248,118,cs),
(267,118,o),
(271,119,o),
(297,129,cs),
(303,131,o),
(310,132,o),
(317,132,cs),
(350,132,o),
(376,98,o),
(376,66,cs),
(376,45,o),
(367,29,o),
(349,16,cs),
(324,-2,o),
(283,-11,o),
(228,-11,cs),
(108,-11,o),
(40,60,o),
(40,185,cs),
(40,217,ls)
);
},
{
closed = 1;
nodes = (
(366,584,o),
(363,576,o),
(355,567,cs),
(291,491,ls),
(257,451,o),
(243,443,o),
(201,443,cs),
(163,443,o),
(145,460,o),
(145,478,cs),
(145,485,o),
(148,495,o),
(153,505,cs),
(187,571,ls),
(208,612,o),
(223,621,o),
(269,621,cs),
(353,621,o),
(366,610,o),
(366,590,cs)
);
}
);
width = 387;
}
);
note = cacute;
unicode = 263;
},
{
glyphname = Ccircumflex;
kernLeft = C;
layers = (
{
layerId = m01;
shapes = (
{
closed = 1;
nodes = (
(200,262,ls),
(200,160,o),
(225,123,o),
(292,123,cs),
(326,123,o),
(333,125,o),
(377,146,cs),
(389,152,o),
(399,155,o),
(407,155,cs),
(444,155,o),
(469,117,o),
(469,83,cs),
(469,68,o),
(464,53,o),
(453,41,cs),
(426,9,o),
(366,-11,o),
(285,-11,cs),
(123,-11,o),
(42,78,o),
(42,257,cs),
(42,339,ls),
(42,517,o),
(123,607,o),
(282,607,cs),
(357,607,o),
(410,590,o),
(434,560,cs),
(443,548,o),
(448,534,o),
(448,518,cs),
(448,481,o),
(419,451,o),
(383,451,cs),
(370,451,o),
(363,453,o),
(347,461,cs),
(332,469,o),
(313,473,o),
(291,473,cs),
(225,473,o),
(200,432,o),
(200,325,cs)
);
},
{
closed = 1;
nodes = (
(245,666,ls),
(228,640,o),
(213,630,o),
(192,630,cs),
(161,630,o),
(135,655,o),
(135,685,cs),
(135,697,o),
(140,709,o),
(147,720,cs),
(180,764,ls),
(213,810,o),
(239,826,o),
(279,826,cs),
(319,826,o),
(344,810,o),
(377,766,cs),
(410,722,ls),
(418,710,o),
(423,697,o),
(423,685,cs),
(423,655,o),
(398,630,o),
(367,630,cs),
(346,630,o),
(330,640,o),
(314,666,cs),
(279,719,l)
);
}
);
width = 457;
}
);
note = Ccircumflex;
unicode = 264;
},
{
glyphname = ccircumflex;
kernLeft = c;
kernRight = c;
layers = (
{
layerId = m01;
shapes = (
{
closed = 1;
nodes = (
(40,341,o),
(112,413,o),
(235,413,cs),
(289,413,o),
(329,401,o),
(350,379,cs),
(361,368,o),
(367,354,o),
(367,339,cs),
(367,309,o),
(345,272,o),
(313,272,cs),
(304,272,o),
(303,272,o),
(284,279,cs),
(275,283,o),
(266,284,o),
(254,284,cs),
(207,284,o),
(188,262,o),
(188,209,cs),
(188,193,ls),
(188,138,o),
(204,118,o),
(248,118,cs),
(267,118,o),
(271,119,o),
(297,129,cs),
(303,131,o),
(310,132,o),
(317,132,cs),
(350,132,o),
(376,98,o),
(376,66,cs),
(376,45,o),
(367,29,o),
(349,16,cs),
(324,-2,o),
(283,-11,o),
(228,-11,cs),
(108,-11,o),
(40,60,o),
(40,185,cs),
(40,217,ls)
);
},
{
closed = 1;
nodes = (
(198,470,ls),
(182,444,o),
(166,434,o),
(145,434,cs),
(114,434,o),
(89,459,o),
(89,489,cs),
(89,501,o),
(93,513,o),
(101,524,cs),
(134,568,ls),
(167,614,o),
(192,630,o),
(233,630,cs),
(272,630,o),
(298,614,o),
(331,570,cs),
(363,526,ls),
(372,514,o),
(377,501,o),
(377,489,cs),
(377,459,o),
(352,434,o),
(321,434,cs),
(299,434,o),
(284,444,o),
(267,470,cs),
(233,523,l)
);
}
);
width = 387;
}
);
note = ccircumflex;
unicode = 265;
},
{
glyphname = Cdotaccent;
kernLeft = C;
layers = (
{
layerId = m01;
shapes = (
{
closed = 1;
nodes = (
(200,262,ls),
(200,160,o),
(225,123,o),
(292,123,cs),
(326,123,o),
(333,125,o),
(377,146,cs),
(389,152,o),
(399,155,o),
(407,155,cs),
(444,155,o),
(469,117,o),
(469,83,cs),
(469,68,o),
(464,53,o),
(453,41,cs),
(426,9,o),
(366,-11,o),
(285,-11,cs),
(123,-11,o),
(42,78,o),
(42,257,cs),
(42,339,ls),
(42,517,o),
(123,607,o),
(282,607,cs),
(357,607,o),
(410,590,o),
(434,560,cs),
(443,548,o),
(448,534,o),
(448,518,cs),
(448,481,o),
(419,451,o),
(383,451,cs),
(370,451,o),
(363,453,o),
(347,461,cs),
(332,469,o),
(313,473,o),
(291,473,cs),
(225,473,o),
(200,432,o),
(200,325,cs)
);
},
{
closed = 1;
nodes = (
(335,803,o),
(366,772,o),
(366,725,cs),
(366,678,o),
(335,646,o),
(288,646,cs),
(241,646,o),
(209,677,o),
(209,725,cs),
(209,771,o),
(241,803,o),
(288,803,cs)
);
}
);
width = 457;
}
);
note = Cdotaccent;
unicode = 266;
},
{
glyphname = cdotaccent;
kernLeft = c;
kernRight = c;
layers = (
{
layerId = m01;
shapes = (
{
closed = 1;
nodes = (
(40,341,o),
(112,413,o),
(235,413,cs),
(289,413,o),
(329,401,o),
(350,379,cs),
(361,368,o),
(367,354,o),
(367,339,cs),
(367,309,o),
(345,272,o),
(313,272,cs),
(304,272,o),
(303,272,o),
(284,279,cs),
(275,283,o),
(266,284,o),
(254,284,cs),
(207,284,o),
(188,262,o),
(188,209,cs),
(188,193,ls),
(188,138,o),
(204,118,o),
(248,118,cs),
(267,118,o),
(271,119,o),
(297,129,cs),
(303,131,o),
(310,132,o),
(317,132,cs),
(350,132,o),
(376,98,o),
(376,66,cs),
(376,45,o),
(367,29,o),
(349,16,cs),
(324,-2,o),
(283,-11,o),
(228,-11,cs),
(108,-11,o),
(40,60,o),
(40,185,cs),
(40,217,ls)
);
},
{
closed = 1;
nodes = (
(280,607,o),
(311,576,o),
(311,529,cs),
(311,482,o),
(280,450,o),
(233,450,cs),
(186,450,o),
(154,481,o),
(154,529,cs),
(154,575,o),
(186,607,o),
(233,607,cs)
);
}
);
width = 387;
}
);
note = cdotaccent;
unicode = 267;
},
{
glyphname = Ccaron;
kernLeft = C;
layers = (
{
layerId = m01;
shapes = (
{
closed = 1;
nodes = (
(200,262,ls),
(200,160,o),
(225,123,o),
(292,123,cs),
(326,123,o),
(333,125,o),
(377,146,cs),
(389,152,o),
(399,155,o),
(407,155,cs),
(444,155,o),
(469,117,o),
(469,83,cs),
(469,68,o),
(464,53,o),
(453,41,cs),
(426,9,o),
(366,-11,o),
(285,-11,cs),
(123,-11,o),
(42,78,o),
(42,257,cs),
(42,339,ls),
(42,517,o),
(123,607,o),
(282,607,cs),
(357,607,o),
(410,590,o),
(434,560,cs),
(443,548,o),
(448,534,o),
(448,518,cs),
(448,481,o),
(419,451,o),
(383,451,cs),
(370,451,o),
(363,453,o),
(347,461,cs),
(332,469,o),
(313,473,o),
(291,473,cs),
(225,473,o),
(200,432,o),
(200,325,cs)
);
},
{
closed = 1;
nodes = (
(317,790,ls),
(333,816,o),
(349,826,o),
(370,826,cs),
(401,826,o),
(426,801,o),
(426,771,cs),
(426,759,o),
(422,746,o),
(414,736,cs),
(381,692,ls),
(348,646,o),
(322,630,o),
(282,630,cs),
(243,630,o),
(217,646,o),
(184,690,cs),
(152,734,ls),
(143,746,o),
(138,759,o),
(138,771,cs),
(138,801,o),
(164,826,o),
(194,826,cs),
(216,826,o),
(231,816,o),
(248,790,cs),
(282,738,l)
);
}
);
width = 457;
}
);
note = Ccaron;
unicode = 268;
},
{
glyphname = ccaron;
kernLeft = c;
kernRight = c;
layers = (
{
layerId = m01;
shapes = (
{
closed = 1;
nodes = (
(40,341,o),
(112,413,o),
(235,413,cs),
(289,413,o),
(329,401,o),
(350,379,cs),
(361,368,o),
(367,354,o),
(367,339,cs),
(367,309,o),
(345,272,o),
(313,272,cs),
(304,272,o),
(303,272,o),
(284,279,cs),
(275,283,o),
(266,284,o),
(254,284,cs),
(207,284,o),
(188,262,o),
(188,209,cs),
(188,193,ls),
(188,138,o),
(204,118,o),
(248,118,cs),
(267,118,o),
(271,119,o),
(297,129,cs),
(303,131,o),
(310,132,o),
(317,132,cs),
(350,132,o),
(376,98,o),
(376,66,cs),
(376,45,o),
(367,29,o),
(349,16,cs),
(324,-2,o),
(283,-11,o),
(228,-11,cs),
(108,-11,o),
(40,60,o),
(40,185,cs),
(40,217,ls)
);
},
{
closed = 1;
nodes = (
(265,594,ls),
(281,620,o),
(297,630,o),
(318,630,cs),
(349,630,o),
(374,605,o),
(374,575,cs),
(374,563,o),
(370,550,o),
(362,540,cs),
(329,496,ls),
(296,450,o),
(270,434,o),
(230,434,cs),
(191,434,o),
(165,450,o),
(132,494,cs),
(100,538,ls),
(91,550,o),
(86,563,o),
(86,575,cs),
(86,605,o),
(112,630,o),
(142,630,cs),
(164,630,o),
(179,620,o),
(196,594,cs),
(230,542,l)
);
}
);
width = 387;
}
);
note = ccaron;
unicode = 269;
},
{
glyphname = Dcaron;
layers = (
{
layerId = m01;
shapes = (
{
closed = 1;
nodes = (
(56,498,ls),
(56,568,o),
(84,596,o),
(154,596,cs),
(243,596,ls),
(440,596,o),
(525,534,o),
(525,328,cs),
(525,268,ls),
(525,62,o),
(440,0,o),
(243,0,cs),
(136,0,ls),
(75,0,o),
(56,47,o),
(56,98,cs)
);
},
{
closed = 1;
nodes = (
(265,135,ls),
(358,135,o),
(367,191,o),
(367,273,cs),
(367,323,ls),
(367,405,o),
(358,461,o),
(265,461,cs),
(212,461,l),
(212,135,l)
);
},
{
closed = 1;
nodes = (
(303,790,ls),
(320,816,o),
(335,826,o),
(357,826,cs),
(388,826,o),
(413,801,o),
(413,771,cs),
(413,759,o),
(409,746,o),
(400,736,c),
(368,692,ls),
(334,646,o),
(309,630,o),
(269,630,cs),
(229,630,o),
(204,646,o),
(171,690,cs),
(138,734,ls),
(130,746,o),
(125,759,o),
(125,771,cs),
(125,801,o),
(150,826,o),
(181,826,cs),
(202,826,o),
(217,816,o),
(234,790,cs),
(269,738,l)
);
}
);
width = 565;
}
);
note = Dcaron;
unicode = 270;
},
{
glyphname = dcaron;
kernLeft = c;
layers = (
{
layerId = m01;
shapes = (
{
closed = 1;
nodes = (
(281,542,ls),
(281,599,o),
(308,632,o),
(355,632,cs),
(402,632,o),
(429,599,o),
(429,542,cs),
(429,49,ls),
(429,4,o),
(393,-11,o),
(354,-11,cs),
(323,-11,o),
(310,-3,o),
(303,23,c),
(252,-3,o),
(224,-11,o),
(184,-11,cs),
(84,-11,o),
(28,60,o),
(28,185,cs),
(28,217,ls),
(28,341,o),
(90,413,o),
(197,413,cs),
(230,413,o),
(258,405,o),
(281,389,c)
);
},
{
closed = 1;
nodes = (
(281,240,o),
(276,259,o),
(266,271,cs),
(258,280,o),
(246,284,o),
(229,284,cs),
(192,284,o),
(177,263,o),
(177,209,cs),
(177,193,ls),
(177,139,o),
(191,118,o),
(229,118,cs),
(266,118,o),
(281,139,o),
(281,193,cs),
(281,209,ls)
);
},
{
closed = 1;
nodes = (
(477,483,o),
(454,512,o),
(454,549,cs),
(454,600,o),
(491,635,o),
(543,635,cs),
(597,635,o),
(632,600,o),
(632,547,cs),
(632,507,o),
(607,450,o),
(558,379,cs),
(549,366,o),
(537,359,o),
(522,359,cs),
(501,359,o),
(479,378,o),
(479,400,cs),
(479,408,o),
(481,414,o),
(488,425,cs),
(497,439,o),
(505,454,o),
(515,473,c)
);
}
);
width = 616;
}
);
note = dcaron;
unicode = 271;
},
{
glyphname = Dcroat;
layers = (
{
layerId = m01;
shapes = (
{
closed = 1;
nodes = (
(253,368,ls),
(285,368,o),
(314,349,o),
(315,307,cs),
(315,273,o),
(289,247,o),
(253,247,cs),
(55,247,ls),
(24,247,o),
(-4,264,o),
(-7,305,cs),
(-9,341,o),
(18,369,o),
(55,369,cs)
);
},
{
closed = 1;
nodes = (
(62,498,ls),
(62,568,o),
(90,596,o),
(160,596,cs),
(249,596,ls),
(446,596,o),
(531,534,o),
(531,328,cs),
(531,268,ls),
(531,62,o),
(446,0,o),
(249,0,cs),
(142,0,ls),
(81,0,o),
(62,47,o),
(62,98,cs)
);
},
{
closed = 1;
nodes = (
(270,135,ls),
(364,135,o),
(373,191,o),
(373,273,cs),
(373,323,ls),
(373,405,o),
(364,461,o),
(270,461,cs),
(218,461,l),
(218,135,l)
);
}
);
width = 571;
}
);
note = Dcroat;
unicode = 272;
},
{
glyphname = dcroat;
kernLeft = c;
layers = (
{
layerId = m01;
shapes = (
{
closed = 1;
nodes = (
(241,458,ls),
(201,458,o),
(177,477,o),
(177,510,cs),
(177,544,o),
(201,563,o),
(241,563,cs),
(435,563,ls),
(475,563,o),
(499,544,o),
(499,511,cs),
(499,477,o),
(475,458,o),
(435,458,cs)
);
},
{
closed = 1;
nodes = (
(281,542,ls),
(281,599,o),
(308,632,o),
(355,632,cs),
(402,632,o),
(429,599,o),
(429,542,cs),
(429,49,ls),
(429,4,o),
(393,-11,o),
(354,-11,cs),
(323,-11,o),
(310,-3,o),
(303,23,c),
(252,-3,o),
(224,-11,o),
(184,-11,cs),
(84,-11,o),
(28,60,o),
(28,185,cs),
(28,217,ls),
(28,341,o),
(90,413,o),
(197,413,cs),
(230,413,o),
(258,405,o),
(281,389,c)
);
},
{
closed = 1;
nodes = (
(281,239,o),
(276,258,o),
(267,270,cs),
(259,280,o),
(246,284,o),
(229,284,cs),
(192,284,o),
(177,263,o),
(177,209,cs),
(177,193,ls),
(177,139,o),
(191,118,o),
(229,118,cs),
(266,118,o),
(281,139,o),
(281,193,cs),
(281,209,ls)
);
}
);
width = 472;
}
);
note = dcroat;
unicode = 273;
},
{
glyphname = Emacron;
layers = (
{
layerId = m01;
shapes = (
{
closed = 1;
nodes = (
(212,373,l),
(348,373,ls),
(400,373,o),
(430,348,o),
(430,306,cs),
(430,264,o),
(400,239,o),
(348,239,cs),
(212,239,l),
(212,138,l),
(385,138,ls),
(438,138,o),
(469,113,o),
(469,69,cs),
(469,25,o),
(438,0,o),
(385,0,cs),
(136,0,ls),
(75,0,o),
(56,47,o),
(56,98,cs),
(56,498,ls),
(56,568,o),
(84,596,o),
(154,596,cs),
(377,596,ls),
(430,596,o),
(461,571,o),
(461,527,cs),
(461,483,o),
(430,458,o),
(377,458,cs),
(212,458,l)
);
},
{
closed = 1;
nodes = (
(353,787,ls),
(401,787,o),
(429,764,o),
(429,725,cs),
(429,686,o),
(401,663,o),
(353,663,cs),
(168,663,ls),
(121,663,o),
(93,686,o),
(93,725,cs),
(93,764,o),
(121,787,o),
(168,787,cs)
);
}
);
width = 482;
}
);
note = Emacron;
unicode = 274;
},
{
glyphname = emacron;
kernLeft = c;
kernRight = e;
layers = (
{
layerId = m01;
shapes = (
{
closed = 1;
nodes = (
(175,149,ls),
(175,124,o),
(203,109,o),
(252,109,cs),
(286,109,o),
(328,114,o),
(350,120,cs),
(354,121,o),
(359,122,o),
(364,122,cs),
(395,122,o),
(419,97,o),
(419,64,cs),
(419,48,o),
(411,30,o),
(399,21,cs),
(376,2,o),
(312,-11,o),
(242,-11,cs),
(106,-11,o),
(28,57,o),
(28,175,cs),
(28,208,ls),
(28,340,o),
(101,413,o),
(232,413,cs),
(299,413,o),
(353,391,o),
(384,352,cs),
(405,325,o),
(423,271,o),
(423,232,cs),
(423,172,o),
(375,153,o),
(325,153,cs),
(175,153,l)
);
},
{
closed = 1;
nodes = (
(283,291,o),
(268,307,o),
(233,307,cs),
(195,307,o),
(178,290,o),
(173,247,c),
(290,247,l)
);
},
{
closed = 1;
nodes = (
(317,591,ls),
(365,591,o),
(393,568,o),
(393,529,cs),
(393,490,o),
(365,467,o),
(317,467,cs),
(132,467,ls),
(84,467,o),
(57,490,o),
(57,529,cs),
(57,568,o),
(84,591,o),
(132,591,cs)
);
}
);
width = 449;
}
);
note = emacron;
unicode = 275;
},
{
glyphname = Ebreve;
layers = (
{
layerId = m01;
shapes = (
{
closed = 1;
nodes = (
(212,373,l),
(348,373,ls),
(400,373,o),
(430,348,o),
(430,306,cs),
(430,264,o),
(400,239,o),
(348,239,cs),
(212,239,l),
(212,138,l),
(385,138,ls),
(438,138,o),
(469,113,o),
(469,69,cs),
(469,25,o),
(438,0,o),
(385,0,cs),
(136,0,ls),
(75,0,o),
(56,47,o),
(56,98,cs),
(56,498,ls),
(56,568,o),
(84,596,o),
(154,596,cs),
(377,596,ls),
(430,596,o),
(461,571,o),
(461,527,cs),
(461,483,o),
(430,458,o),
(377,458,cs),
(212,458,l)
);
},
{
closed = 1;
nodes = (
(319,809,o),
(340,824,o),
(369,824,cs),
(396,824,o),
(418,802,o),
(418,775,cs),
(418,672,o),
(347,637,o),
(252,637,cs),
(156,637,o),
(87,672,o),
(87,775,cs),
(87,803,o),
(108,824,o),
(139,824,cs),
(168,824,o),
(183,811,o),
(194,779,cs),
(204,751,o),
(220,740,o),
(252,740,cs),
(287,740,o),
(303,752,o),
(312,785,cs)
);
}
);
width = 482;
}
);
note = Ebreve;
unicode = 276;
},
{
glyphname = ebreve;
kernLeft = c;
kernRight = e;
layers = (
{
layerId = m01;
shapes = (
{
closed = 1;
nodes = (
(175,149,ls),
(175,124,o),
(203,109,o),
(252,109,cs),
(286,109,o),
(328,114,o),
(350,120,cs),
(354,121,o),
(359,122,o),
(364,122,cs),
(395,122,o),
(419,97,o),
(419,64,cs),
(419,48,o),
(411,30,o),
(399,21,cs),
(376,2,o),
(312,-11,o),
(242,-11,cs),
(106,-11,o),
(28,57,o),
(28,175,cs),
(28,208,ls),
(28,340,o),
(101,413,o),
(232,413,cs),
(299,413,o),
(353,391,o),
(384,352,cs),
(405,325,o),
(423,271,o),
(423,232,cs),
(423,172,o),
(375,153,o),
(325,153,cs),
(175,153,l)
);
},
{
closed = 1;
nodes = (
(283,291,o),
(268,307,o),
(233,307,cs),
(195,307,o),
(178,290,o),
(173,247,c),
(290,247,l)
);
},
{
closed = 1;
nodes = (
(300,613,o),
(320,628,o),
(350,628,cs),
(376,628,o),
(398,606,o),
(398,579,cs),
(398,476,o),
(328,441,o),
(233,441,cs),
(137,441,o),
(67,476,o),
(67,579,cs),
(67,607,o),
(89,628,o),
(119,628,cs),
(148,628,o),
(164,615,o),
(175,583,cs),
(184,555,o),
(201,544,o),
(233,544,cs),
(268,544,o),
(284,556,o),
(293,589,cs)
);
}
);
width = 449;
}
);
note = ebreve;
unicode = 277;
},
{
glyphname = Edotaccent;
layers = (
{
layerId = m01;
shapes = (
{
closed = 1;
nodes = (
(212,373,l),
(348,373,ls),
(400,373,o),
(430,348,o),
(430,306,cs),
(430,264,o),
(400,239,o),
(348,239,cs),
(212,239,l),
(212,138,l),
(385,138,ls),
(438,138,o),
(469,113,o),
(469,69,cs),
(469,25,o),
(438,0,o),
(385,0,cs),
(136,0,ls),
(75,0,o),
(56,47,o),
(56,98,cs),
(56,498,ls),
(56,568,o),
(84,596,o),
(154,596,cs),
(377,596,ls),
(430,596,o),
(461,571,o),
(461,527,cs),
(461,483,o),
(430,458,o),
(377,458,cs),
(212,458,l)
);
},
{
closed = 1;
nodes = (
(316,803,o),
(347,772,o),
(347,725,cs),
(347,678,o),
(316,646,o),
(269,646,cs),
(222,646,o),
(190,677,o),
(190,725,cs),
(190,771,o),
(222,803,o),
(269,803,cs)
);
}
);
width = 482;
}
);
note = Edotaccent;
unicode = 278;
},
{
glyphname = edotaccent;
kernLeft = c;
kernRight = e;
layers = (
{
layerId = m01;
shapes = (
{
closed = 1;
nodes = (
(175,149,ls),
(175,124,o),
(203,109,o),
(252,109,cs),
(286,109,o),
(328,114,o),
(350,120,cs),
(354,121,o),
(359,122,o),
(364,122,cs),
(395,122,o),
(419,97,o),
(419,64,cs),
(419,48,o),
(411,30,o),
(399,21,cs),
(376,2,o),
(312,-11,o),
(242,-11,cs),
(106,-11,o),
(28,57,o),
(28,175,cs),
(28,208,ls),
(28,340,o),
(101,413,o),
(232,413,cs),
(299,413,o),
(353,391,o),
(384,352,cs),
(405,325,o),
(423,271,o),
(423,232,cs),
(423,172,o),
(375,153,o),
(325,153,cs),
(175,153,l)
);
},
{
closed = 1;
nodes = (
(283,291,o),
(268,307,o),
(233,307,cs),
(195,307,o),
(178,290,o),
(173,247,c),
(290,247,l)
);
},
{
closed = 1;
nodes = (
(283,607,o),
(314,576,o),
(314,529,cs),
(314,482,o),
(283,450,o),
(236,450,cs),
(189,450,o),
(157,481,o),
(157,529,cs),
(157,575,o),
(189,607,o),
(236,607,cs)
);
}
);
width = 449;
}
);
note = edotaccent;
unicode = 279;
},
{
glyphname = Eogonek;
layers = (
{
layerId = m01;
shapes = (
{
closed = 1;
nodes = (
(212,373,l),
(348,373,ls),
(400,373,o),
(430,348,o),
(430,306,cs),
(430,264,o),
(400,239,o),
(348,239,cs),
(212,239,l),
(212,138,l),
(385,138,ls),
(438,138,o),
(469,113,o),
(469,69,cs),
(469,25,o),
(438,0,o),
(385,0,cs),
(136,0,ls),
(75,0,o),
(56,47,o),
(56,98,cs),
(56,498,ls),
(56,568,o),
(84,596,o),
(154,596,cs),
(377,596,ls),
(430,596,o),
(461,571,o),
(461,527,cs),
(461,483,o),
(430,458,o),
(377,458,cs),
(212,458,l)
);
},
{
closed = 1;
nodes = (
(341,-56,o),
(324,-79,o),
(324,-106,cs),
(324,-125,o),
(334,-136,o),
(351,-136,cs),
(360,-136,o),
(360,-136,o),
(388,-128,cs),
(391,-127,o),
(395,-127,o),
(399,-127,cs),
(421,-127,o),
(438,-146,o),
(438,-170,cs),
(438,-207,o),
(397,-228,o),
(326,-228,cs),
(236,-228,o),
(193,-197,o),
(193,-133,cs),
(193,-77,o),
(219,-43,o),
(298,0,c),
(404,4,l)
);
}
);
width = 482;
}
);
note = Eogonek;
unicode = 280;
},
{
glyphname = eogonek;
kernLeft = c;
kernRight = e;
layers = (
{
layerId = m01;
shapes = (
{
closed = 1;
nodes = (
(175,149,ls),
(175,124,o),
(203,109,o),
(252,109,cs),
(286,109,o),
(328,114,o),
(350,120,cs),
(354,121,o),
(359,122,o),
(364,122,cs),
(395,122,o),
(419,97,o),
(419,64,cs),
(419,48,o),
(411,30,o),
(399,21,cs),
(376,2,o),
(312,-11,o),
(242,-11,cs),
(106,-11,o),
(28,57,o),
(28,175,cs),
(28,208,ls),
(28,340,o),
(101,413,o),
(232,413,cs),
(299,413,o),
(353,391,o),
(384,352,cs),
(405,325,o),
(423,271,o),
(423,232,cs),
(423,172,o),
(375,153,o),
(325,153,cs),
(175,153,l)
);
},
{
closed = 1;
nodes = (
(283,291,o),
(268,307,o),
(233,307,cs),
(195,307,o),
(178,290,o),
(173,247,c),
(290,247,l)
);
},
{
closed = 1;
nodes = (
(309,-54,o),
(292,-78,o),
(292,-106,cs),
(292,-125,o),
(302,-136,o),
(319,-136,cs),
(328,-136,o),
(328,-136,o),
(356,-128,cs),
(359,-127,o),
(363,-127,o),
(367,-127,cs),
(389,-127,o),
(406,-146,o),
(406,-170,cs),
(406,-207,o),
(365,-228,o),
(295,-228,cs),
(204,-228,o),
(161,-197,o),
(161,-133,cs),
(161,-72,o),
(188,-37,o),
(270,10,c),
(375,10,l)
);
}
);
width = 449;
}
);
note = eogonek;
unicode = 281;
},
{
glyphname = Ecaron;
layers = (
{
layerId = m01;
shapes = (
{
closed = 1;
nodes = (
(212,373,l),
(348,373,ls),
(400,373,o),
(430,348,o),
(430,306,cs),
(430,264,o),
(400,239,o),
(348,239,cs),
(212,239,l),
(212,138,l),
(385,138,ls),
(438,138,o),
(469,113,o),
(469,69,cs),
(469,25,o),
(438,0,o),
(385,0,cs),
(136,0,ls),
(75,0,o),
(56,47,o),
(56,98,cs),
(56,498,ls),
(56,568,o),
(84,596,o),
(154,596,cs),
(377,596,ls),
(430,596,o),
(461,571,o),
(461,527,cs),
(461,483,o),
(430,458,o),
(377,458,cs),
(212,458,l)
);
},
{
closed = 1;
nodes = (
(295,790,ls),
(312,816,o),
(327,826,o),
(349,826,cs),
(380,826,o),
(405,801,o),
(405,771,cs),
(405,759,o),
(401,746,o),
(392,736,c),
(360,692,ls),
(326,646,o),
(301,630,o),
(261,630,cs),
(221,630,o),
(196,646,o),
(163,690,cs),
(130,734,ls),
(122,746,o),
(117,759,o),
(117,771,cs),
(117,801,o),
(142,826,o),
(173,826,cs),
(194,826,o),
(210,816,o),
(226,790,cs),
(261,738,l)
);
}
);
width = 482;
}
);
note = Ecaron;
unicode = 282;
},
{
glyphname = ecaron;
kernLeft = c;
kernRight = e;
layers = (
{
layerId = m01;
shapes = (
{
closed = 1;
nodes = (
(175,149,ls),
(175,124,o),
(203,109,o),
(252,109,cs),
(286,109,o),
(328,114,o),
(350,120,cs),
(354,121,o),
(359,122,o),
(364,122,cs),
(395,122,o),
(419,97,o),
(419,64,cs),
(419,48,o),
(411,30,o),
(399,21,cs),
(376,2,o),
(312,-11,o),
(242,-11,cs),
(106,-11,o),
(28,57,o),
(28,175,cs),
(28,208,ls),
(28,340,o),
(101,413,o),
(232,413,cs),
(299,413,o),
(353,391,o),
(384,352,cs),
(405,325,o),
(423,271,o),
(423,232,cs),
(423,172,o),
(375,153,o),
(325,153,cs),
(175,153,l)
);
},
{
closed = 1;
nodes = (
(283,291,o),
(268,307,o),
(233,307,cs),
(195,307,o),
(178,290,o),
(173,247,c),
(290,247,l)
);
},
{
closed = 1;
nodes = (
(272,594,ls),
(288,620,o),
(304,630,o),
(326,630,cs),
(356,630,o),
(381,605,o),
(381,575,cs),
(381,563,o),
(377,550,o),
(369,540,cs),
(336,496,ls),
(303,450,o),
(277,434,o),
(237,434,cs),
(198,434,o),
(172,450,o),
(139,494,cs),
(107,538,ls),
(98,550,o),
(93,563,o),
(93,575,cs),
(93,605,o),
(119,630,o),
(149,630,cs),
(171,630,o),
(186,620,o),
(203,594,cs),
(237,542,l)
);
}
);
width = 449;
}
);
note = ecaron;
unicode = 283;
},
{
glyphname = Gcircumflex;
kernLeft = C;
layers = (
{
layerId = m01;
shapes = (
{
closed = 1;
nodes = (
(370,226,l),
(352,226,ls),
(311,226,o),
(286,248,o),
(286,283,cs),
(286,333,o),
(325,350,o),
(368,350,cs),
(396,350,ls),
(434,350,o),
(477,349,o),
(494,315,cs),
(506,291,o),
(506,253,o),
(506,216,cs),
(506,121,ls),
(506,71,o),
(500,53,o),
(475,31,cs),
(448,6,o),
(379,-11,o),
(301,-11,cs),
(208,-11,o),
(142,11,o),
(100,58,cs),
(61,102,o),
(42,168,o),
(42,257,cs),
(42,339,ls),
(42,430,o),
(63,497,o),
(104,542,cs),
(145,585,o),
(205,607,o),
(285,607,cs),
(367,607,o),
(423,589,o),
(447,556,cs),
(455,544,o),
(459,531,o),
(459,517,cs),
(459,481,o),
(428,449,o),
(393,449,cs),
(380,449,o),
(368,454,o),
(356,460,cs),
(335,469,o),
(314,473,o),
(291,473,cs),
(261,473,o),
(240,464,o),
(226,445,cs),
(208,421,o),
(201,383,o),
(201,325,cs),
(201,262,ls),
(201,211,o),
(207,177,o),
(221,155,cs),
(237,132,o),
(261,123,o),
(298,123,cs),
(328,123,o),
(345,126,o),
(370,134,c)
);
},
{
closed = 1;
nodes = (
(244,666,ls),
(228,640,o),
(212,630,o),
(192,630,cs),
(160,630,o),
(135,655,o),
(135,685,cs),
(135,697,o),
(139,709,o),
(147,720,cs),
(180,764,ls),
(213,810,o),
(239,826,o),
(279,826,cs),
(318,826,o),
(344,810,o),
(377,766,cs),
(409,722,ls),
(418,710,o),
(423,697,o),
(423,685,cs),
(423,655,o),
(398,630,o),
(367,630,cs),
(345,630,o),
(330,640,o),
(313,666,cs),
(279,719,l)
);
}
);
width = 541;
}
);
note = Gcircumflex;
unicode = 284;
},
{
glyphname = gcircumflex;
kernLeft = c;
layers = (
{
layerId = m01;
shapes = (
{
closed = 1;
nodes = (
(259,-1,o),
(223,-11,o),
(187,-11,cs),
(84,-11,o),
(28,55,o),
(28,175,cs),
(28,207,ls),
(28,338,o),
(90,413,o),
(199,413,cs),
(236,413,o),
(268,402,o),
(300,377,c),
(307,403,o),
(320,413,o),
(367,413,cs),
(414,413,o),
(429,377,o),
(429,338,cs),
(429,100,ls),
(429,-36,o),
(423,-78,o),
(395,-120,cs),
(357,-179,o),
(294,-208,o),
(204,-208,cs),
(92,-208,o),
(36,-183,o),
(36,-131,cs),
(36,-123,o),
(38,-115,o),
(41,-107,cs),
(49,-84,o),
(70,-69,o),
(93,-69,cs),
(104,-69,o),
(107,-70,o),
(122,-76,cs),
(140,-84,o),
(162,-88,o),
(183,-88,cs),
(247,-88,o),
(284,-55,o),
(284,3,cs),
(284,16,l)
);
},
{
closed = 1;
nodes = (
(280,264,o),
(267,284,o),
(229,284,cs),
(192,284,o),
(177,263,o),
(177,209,cs),
(177,193,ls),
(177,139,o),
(191,118,o),
(229,118,cs),
(266,118,o),
(281,139,o),
(281,193,cs),
(281,209,ls)
);
},
{
closed = 1;
nodes = (
(201,470,ls),
(185,444,o),
(170,434,o),
(149,434,cs),
(117,434,o),
(92,459,o),
(92,489,cs),
(92,501,o),
(96,513,o),
(104,524,cs),
(137,568,ls),
(170,614,o),
(196,630,o),
(236,630,cs),
(275,630,o),
(301,614,o),
(334,570,cs),
(366,526,ls),
(375,514,o),
(380,501,o),
(380,489,cs),
(380,459,o),
(355,434,o),
(324,434,cs),
(302,434,o),
(287,444,o),
(271,470,cs),
(236,523,l)
);
}
);
width = 472;
}
);
note = gcircumflex;
unicode = 285;
},
{
glyphname = Gbreve;
kernLeft = C;
layers = (
{
layerId = m01;
shapes = (
{
closed = 1;
nodes = (
(370,226,l),
(352,226,ls),
(311,226,o),
(286,248,o),
(286,283,cs),
(286,333,o),
(325,350,o),
(368,350,cs),
(396,350,ls),
(434,350,o),
(477,349,o),
(494,315,cs),
(506,291,o),
(506,253,o),
(506,216,cs),
(506,121,ls),
(506,71,o),
(500,53,o),
(475,31,cs),
(448,6,o),
(379,-11,o),
(301,-11,cs),
(208,-11,o),
(142,11,o),
(100,58,cs),
(61,102,o),
(42,168,o),
(42,257,cs),
(42,339,ls),
(42,430,o),
(63,497,o),
(104,542,cs),
(145,585,o),
(205,607,o),
(285,607,cs),
(367,607,o),
(423,589,o),
(447,556,cs),
(455,544,o),
(459,531,o),
(459,517,cs),
(459,481,o),
(428,449,o),
(393,449,cs),
(380,449,o),
(368,454,o),
(356,460,cs),
(335,469,o),
(314,473,o),
(291,473,cs),
(261,473,o),
(240,464,o),
(226,445,cs),
(208,421,o),
(201,383,o),
(201,325,cs),
(201,262,ls),
(201,211,o),
(207,177,o),
(221,155,cs),
(237,132,o),
(261,123,o),
(298,123,cs),
(328,123,o),
(345,126,o),
(370,134,c)
);
},
{
closed = 1;
nodes = (
(346,809,o),
(366,824,o),
(396,824,cs),
(422,824,o),
(444,802,o),
(444,775,cs),
(444,672,o),
(374,637,o),
(279,637,cs),
(183,637,o),
(113,672,o),
(113,775,cs),
(113,803,o),
(135,824,o),
(165,824,cs),
(194,824,o),
(210,811,o),
(221,779,cs),
(230,751,o),
(247,740,o),
(279,740,cs),
(314,740,o),
(330,752,o),
(339,785,cs)
);
}
);
width = 541;
}
);
note = Gbreve;
unicode = 286;
},
{
glyphname = gbreve;
kernLeft = c;
layers = (
{
layerId = m01;
shapes = (
{
closed = 1;
nodes = (
(259,-1,o),
(223,-11,o),
(187,-11,cs),
(84,-11,o),
(28,55,o),
(28,175,cs),
(28,207,ls),
(28,338,o),
(90,413,o),
(199,413,cs),
(236,413,o),
(268,402,o),
(300,377,c),
(307,403,o),
(320,413,o),
(367,413,cs),
(414,413,o),
(429,377,o),
(429,338,cs),
(429,100,ls),
(429,-36,o),
(423,-78,o),
(395,-120,cs),
(357,-179,o),
(294,-208,o),
(204,-208,cs),
(92,-208,o),
(36,-183,o),
(36,-131,cs),
(36,-123,o),
(38,-115,o),
(41,-107,cs),
(49,-84,o),
(70,-69,o),
(93,-69,cs),
(104,-69,o),
(107,-70,o),
(122,-76,cs),
(140,-84,o),
(162,-88,o),
(183,-88,cs),
(247,-88,o),
(284,-55,o),
(284,3,cs),
(284,16,l)
);
},
{
closed = 1;
nodes = (
(280,264,o),
(267,284,o),
(229,284,cs),
(192,284,o),
(177,263,o),
(177,209,cs),
(177,193,ls),
(177,139,o),
(191,118,o),
(229,118,cs),
(266,118,o),
(281,139,o),
(281,193,cs),
(281,209,ls)
);
},
{
closed = 1;
nodes = (
(308,613,o),
(329,628,o),
(358,628,cs),
(385,628,o),
(407,606,o),
(407,579,cs),
(407,476,o),
(337,441,o),
(241,441,cs),
(146,441,o),
(76,476,o),
(76,579,cs),
(76,607,o),
(98,628,o),
(128,628,cs),
(157,628,o),
(172,615,o),
(184,583,cs),
(193,555,o),
(210,544,o),
(242,544,cs),
(276,544,o),
(292,556,o),
(301,589,cs)
);
}
);
width = 472;
}
);
note = gbreve;
unicode = 287;
},
{
glyphname = Gdotaccent;
kernLeft = C;
layers = (
{
layerId = m01;
shapes = (
{
closed = 1;
nodes = (
(370,226,l),
(352,226,ls),
(311,226,o),
(286,248,o),
(286,283,cs),
(286,333,o),
(325,350,o),
(368,350,cs),
(396,350,ls),
(434,350,o),
(477,349,o),
(494,315,cs),
(506,291,o),
(506,253,o),
(506,216,cs),
(506,121,ls),
(506,71,o),
(500,53,o),
(475,31,cs),
(448,6,o),
(379,-11,o),
(301,-11,cs),
(208,-11,o),
(142,11,o),
(100,58,cs),
(61,102,o),
(42,168,o),
(42,257,cs),
(42,339,ls),
(42,430,o),
(63,497,o),
(104,542,cs),
(145,585,o),
(205,607,o),
(285,607,cs),
(367,607,o),
(423,589,o),
(447,556,cs),
(455,544,o),
(459,531,o),
(459,517,cs),
(459,481,o),
(428,449,o),
(393,449,cs),
(380,449,o),
(368,454,o),
(356,460,cs),
(335,469,o),
(314,473,o),
(291,473,cs),
(261,473,o),
(240,464,o),
(226,445,cs),
(208,421,o),
(201,383,o),
(201,325,cs),
(201,262,ls),
(201,211,o),
(207,177,o),
(221,155,cs),
(237,132,o),
(261,123,o),
(298,123,cs),
(328,123,o),
(345,126,o),
(370,134,c)
);
},
{
closed = 1;
nodes = (
(334,803,o),
(366,772,o),
(366,725,cs),
(366,678,o),
(334,646,o),
(287,646,cs),
(240,646,o),
(209,677,o),
(209,725,cs),
(209,771,o),
(240,803,o),
(287,803,cs)
);
}
);
width = 541;
}
);
note = Gdotaccent;
unicode = 288;
},
{
glyphname = gdotaccent;
kernLeft = c;
layers = (
{
layerId = m01;
shapes = (
{
closed = 1;
nodes = (
(259,-1,o),
(223,-11,o),
(187,-11,cs),
(84,-11,o),
(28,55,o),
(28,175,cs),
(28,207,ls),
(28,338,o),
(90,413,o),
(199,413,cs),
(236,413,o),
(268,402,o),
(300,377,c),
(307,403,o),
(320,413,o),
(367,413,cs),
(414,413,o),
(429,377,o),
(429,338,cs),
(429,100,ls),
(429,-36,o),
(423,-78,o),
(395,-120,cs),
(357,-179,o),
(294,-208,o),
(204,-208,cs),
(92,-208,o),
(36,-183,o),
(36,-131,cs),
(36,-123,o),
(38,-115,o),
(41,-107,cs),
(49,-84,o),
(70,-69,o),
(93,-69,cs),
(104,-69,o),
(107,-70,o),
(122,-76,cs),
(140,-84,o),
(162,-88,o),
(183,-88,cs),
(247,-88,o),
(284,-55,o),
(284,3,cs),
(284,16,l)
);
},
{
closed = 1;
nodes = (
(280,264,o),
(267,284,o),
(229,284,cs),
(192,284,o),
(177,263,o),
(177,209,cs),
(177,193,ls),
(177,139,o),
(191,118,o),
(229,118,cs),
(266,118,o),
(281,139,o),
(281,193,cs),
(281,209,ls)
);
},
{
closed = 1;
nodes = (
(303,607,o),
(334,576,o),
(334,529,cs),
(334,482,o),
(303,450,o),
(256,450,cs),
(209,450,o),
(177,481,o),
(177,529,cs),
(177,575,o),
(209,607,o),
(256,607,cs)
);
}
);
width = 472;
}
);
note = gdotaccent;
unicode = 289;
},
{
glyphname = Gcommaaccent;
kernLeft = C;
layers = (
{
layerId = m01;
shapes = (
{
closed = 1;
nodes = (
(370,226,l),
(352,226,ls),
(311,226,o),
(286,248,o),
(286,283,cs),
(286,333,o),
(325,350,o),
(368,350,cs),
(396,350,ls),
(434,350,o),
(477,349,o),
(494,315,cs),
(506,291,o),
(506,253,o),
(506,216,cs),
(506,121,ls),
(506,71,o),
(500,53,o),
(475,31,cs),
(448,6,o),
(379,-11,o),
(301,-11,cs),
(208,-11,o),
(142,11,o),
(100,58,cs),
(61,102,o),
(42,168,o),
(42,257,cs),
(42,339,ls),
(42,430,o),
(63,497,o),
(104,542,cs),
(145,585,o),
(205,607,o),
(285,607,cs),
(367,607,o),
(423,589,o),
(447,556,cs),
(455,544,o),
(459,531,o),
(459,517,cs),
(459,481,o),
(428,449,o),
(393,449,cs),
(380,449,o),
(368,454,o),
(356,460,cs),
(335,469,o),
(314,473,o),
(291,473,cs),
(261,473,o),
(240,464,o),
(226,445,cs),
(208,421,o),
(201,383,o),
(201,325,cs),
(201,262,ls),
(201,211,o),
(207,177,o),
(221,155,cs),
(237,132,o),
(261,123,o),
(298,123,cs),
(328,123,o),
(345,126,o),
(370,134,c)
);
},
{
closed = 1;
nodes = (
(220,-60,o),
(234,-50,o),
(279,-50,cs),
(343,-50,o),
(359,-63,o),
(359,-84,cs),
(359,-91,o),
(355,-99,o),
(349,-109,cs),
(306,-179,ls),
(281,-219,o),
(266,-228,o),
(215,-228,cs),
(193,-228,o),
(174,-210,o),
(174,-189,cs),
(174,-183,o),
(176,-174,o),
(180,-164,cs),
(204,-102,ls)
);
}
);
width = 541;
}
);
note = Gcommaaccent;
unicode = 290;
},
{
glyphname = gcommaaccent;
kernLeft = c;
layers = (
{
layerId = m01;
shapes = (
{
closed = 1;
nodes = (
(259,-1,o),
(223,-11,o),
(187,-11,cs),
(84,-11,o),
(28,55,o),
(28,175,cs),
(28,207,ls),
(28,338,o),
(90,413,o),
(199,413,cs),
(236,413,o),
(268,402,o),
(300,377,c),
(307,403,o),
(320,413,o),
(367,413,cs),
(414,413,o),
(429,377,o),
(429,338,cs),
(429,100,ls),
(429,-36,o),
(423,-78,o),
(395,-120,cs),
(357,-179,o),
(294,-208,o),
(204,-208,cs),
(92,-208,o),
(36,-183,o),
(36,-131,cs),
(36,-123,o),
(38,-115,o),
(41,-107,cs),
(49,-84,o),
(70,-69,o),
(93,-69,cs),
(104,-69,o),
(107,-70,o),
(122,-76,cs),
(140,-84,o),
(162,-88,o),
(183,-88,cs),
(247,-88,o),
(284,-55,o),
(284,3,cs),
(284,16,l)
);
},
{
closed = 1;
nodes = (
(280,264,o),
(267,284,o),
(229,284,cs),
(192,284,o),
(177,263,o),
(177,209,cs),
(177,193,ls),
(177,139,o),
(191,118,o),
(229,118,cs),
(266,118,o),
(281,139,o),
(281,193,cs),
(281,209,ls)
);
},
{
closed = 1;
nodes = (
(165,480,o),
(169,488,o),
(176,497,cs),
(240,573,ls),
(274,613,o),
(289,621,o),
(330,621,cs),
(368,621,o),
(386,604,o),
(386,586,cs),
(386,579,o),
(383,569,o),
(378,559,cs),
(344,493,ls),
(324,452,o),
(308,443,o),
(263,443,cs),
(178,443,o),
(165,454,o),
(165,474,cs)
);
}
);
width = 472;
}
);
note = gcommaaccent;
unicode = 291;
},
{
glyphname = Hcircumflex;
layers = (
{
layerId = m01;
shapes = (
{
closed = 1;
nodes = (
(372,380,l),
(372,512,ls),
(372,572,o),
(401,607,o),
(450,607,cs),
(499,607,o),
(528,572,o),
(528,512,cs),
(528,84,ls),
(528,24,o),
(499,-11,o),
(450,-11,cs),
(401,-11,o),
(372,24,o),
(372,84,cs),
(372,242,l),
(212,242,l),
(212,84,ls),
(212,24,o),
(183,-11,o),
(134,-11,cs),
(85,-11,o),
(56,24,o),
(56,84,cs),
(56,512,ls),
(56,572,o),
(85,607,o),
(134,607,cs),
(183,607,o),
(212,572,o),
(212,512,cs),
(212,380,l)
);
},
{
closed = 1;
nodes = (
(257,666,ls),
(241,640,o),
(226,630,o),
(205,630,cs),
(173,630,o),
(148,655,o),
(148,685,cs),
(148,697,o),
(152,709,o),
(160,720,cs),
(193,764,ls),
(226,810,o),
(252,826,o),
(292,826,cs),
(331,826,o),
(357,810,o),
(390,766,cs),
(422,722,ls),
(431,710,o),
(436,697,o),
(436,685,cs),
(436,655,o),
(411,630,o),
(380,630,cs),
(358,630,o),
(343,640,o),
(327,666,cs),
(292,719,l)
);
}
);
width = 584;
}
);
note = Hcircumflex;
unicode = 292;
},
{
glyphname = hcircumflex;
layers = (
{
layerId = m01;
shapes = (
{
closed = 1;
nodes = (
(220,408,o),
(246,413,o),
(281,413,cs),
(359,413,o),
(407,383,o),
(427,322,cs),
(434,299,o),
(437,266,o),
(437,211,cs),
(437,79,ls),
(437,22,o),
(410,-11,o),
(363,-11,cs),
(317,-11,o),
(289,22,o),
(289,79,cs),
(289,200,ls),
(289,234,o),
(287,255,o),
(280,268,cs),
(273,280,o),
(263,284,o),
(246,284,cs),
(229,284,o),
(217,280,o),
(208,269,cs),
(196,254,o),
(191,227,o),
(191,180,cs),
(191,79,ls),
(191,22,o),
(164,-11,o),
(117,-11,cs),
(71,-11,o),
(43,22,o),
(43,79,cs),
(43,542,ls),
(43,599,o),
(71,632,o),
(117,632,cs),
(164,632,o),
(191,599,o),
(191,542,cs),
(191,397,l)
);
},
{
closed = 1;
nodes = (
(106,686,ls),
(90,660,o),
(74,650,o),
(53,650,cs),
(22,650,o),
(-3,675,o),
(-3,705,cs),
(-3,717,o),
(1,729,o),
(9,740,cs),
(42,784,ls),
(75,830,o),
(100,846,o),
(141,846,cs),
(180,846,o),
(206,830,o),
(239,786,cs),
(271,742,ls),
(280,730,o),
(285,717,o),
(285,705,cs),
(285,675,o),
(260,650,o),
(229,650,cs),
(207,650,o),
(192,660,o),
(175,686,cs),
(141,739,l)
);
}
);
width = 477;
}
);
note = hcircumflex;
unicode = 293;
},
{
glyphname = Hbar;
layers = (
{
layerId = m01;
shapes = (
{
closed = 1;
nodes = (
(47,402,ls),
(11,402,o),
(-14,426,o),
(-14,459,cs),
(-14,491,o),
(11,515,o),
(47,515,cs),
(56,515,l),
(56,524,ls),
(56,572,o),
(89,607,o),
(134,607,cs),
(179,607,o),
(212,572,o),
(212,524,cs),
(212,515,l),
(372,515,l),
(372,524,ls),
(372,572,o),
(405,607,o),
(450,607,cs),
(495,607,o),
(528,572,o),
(528,524,cs),
(528,515,l),
(537,515,ls),
(573,515,o),
(598,491,o),
(598,459,cs),
(598,426,o),
(573,402,o),
(537,402,cs),
(528,402,l),
(528,84,ls),
(528,24,o),
(499,-11,o),
(450,-11,cs),
(401,-11,o),
(372,24,o),
(372,84,cs),
(372,225,l),
(212,225,l),
(212,84,ls),
(212,24,o),
(183,-11,o),
(134,-11,cs),
(85,-11,o),
(56,24,o),
(56,84,cs),
(56,402,l)
);
},
{
closed = 1;
nodes = (
(372,356,l),
(372,402,l),
(212,402,l),
(212,356,l)
);
}
);
width = 584;
}
);
note = Hbar;
unicode = 294;
},
{
glyphname = hbar;
kernLeft = h;
layers = (
{
layerId = m01;
shapes = (
{
closed = 1;
nodes = (
(36,458,ls),
(-4,458,o),
(-28,477,o),
(-28,511,cs),
(-28,544,o),
(-4,563,o),
(36,563,cs),
(230,563,ls),
(270,563,o),
(294,544,o),
(294,511,cs),
(294,477,o),
(270,458,o),
(230,458,cs)
);
},
{
closed = 1;
nodes = (
(220,408,o),
(246,413,o),
(280,413,cs),
(358,413,o),
(406,383,o),
(425,322,cs),
(433,298,o),
(436,269,o),
(436,211,cs),
(436,79,ls),
(436,22,o),
(409,-11,o),
(362,-11,cs),
(315,-11,o),
(288,22,o),
(288,79,cs),
(288,200,ls),
(288,232,o),
(286,253,o),
(280,266,cs),
(273,279,o),
(263,284,o),
(246,284,cs),
(228,284,o),
(215,279,o),
(207,268,cs),
(195,253,o),
(191,225,o),
(191,180,cs),
(191,79,ls),
(191,22,o),
(164,-11,o),
(117,-11,cs),
(70,-11,o),
(43,22,o),
(43,79,cs),
(43,542,ls),
(43,599,o),
(70,632,o),
(117,632,cs),
(164,632,o),
(191,599,o),
(191,542,cs),
(191,397,l)
);
}
);
width = 476;
}
);
note = hbar;
unicode = 295;
},
{
glyphname = Itilde;
layers = (
{
layerId = m01;
shapes = (
{
closed = 1;
nodes = (
(61,512,ls),
(61,572,o),
(89,607,o),
(139,607,cs),
(188,607,o),
(217,572,o),
(217,512,cs),
(217,84,ls),
(217,24,o),
(188,-11,o),
(139,-11,cs),
(89,-11,o),
(61,24,o),
(61,84,cs)
);
},
{
closed = 1;
nodes = (
(305,773,o),
(299,746,o),
(292,723,cs),
(274,666,o),
(244,640,o),
(196,640,cs),
(160,640,o),
(141,650,o),
(111,686,cs),
(102,697,o),
(97,700,o),
(88,700,cs),
(75,700,o),
(64,687,o),
(58,666,cs),
(53,647,o),
(34,634,o),
(8,634,cs),
(-12,634,o),
(-28,650,o),
(-28,669,cs),
(-28,678,o),
(-24,696,o),
(-19,717,cs),
(0,784,o),
(30,814,o),
(81,814,cs),
(116,814,o),
(140,801,o),
(166,768,cs),
(175,757,o),
(180,754,o),
(189,754,cs),
(202,754,o),
(211,764,o),
(219,788,cs),
(226,809,o),
(242,820,o),
(264,820,cs),
(269,820,ls),
(289,820,o),
(305,804,o),
(305,785,cs)
);
}
);
width = 278;
}
);
note = Itilde;
unicode = 296;
},
{
glyphname = itilde;
layers = (
{
layerId = m01;
shapes = (
{
closed = 1;
nodes = (
(46,323,ls),
(46,380,o),
(73,413,o),
(120,413,cs),
(166,413,o),
(194,380,o),
(194,323,cs),
(194,79,ls),
(194,22,o),
(166,-11,o),
(120,-11,cs),
(73,-11,o),
(46,22,o),
(46,79,cs)
);
},
{
closed = 1;
nodes = (
(287,577,o),
(281,550,o),
(274,527,cs),
(256,470,o),
(226,444,o),
(178,444,cs),
(142,444,o),
(123,454,o),
(93,490,cs),
(84,501,o),
(79,504,o),
(70,504,cs),
(57,504,o),
(46,491,o),
(40,470,cs),
(35,451,o),
(16,438,o),
(-10,438,cs),
(-30,438,o),
(-46,454,o),
(-46,473,cs),
(-46,482,o),
(-42,500,o),
(-37,521,cs),
(-18,588,o),
(12,618,o),
(63,618,cs),
(98,618,o),
(122,605,o),
(148,572,cs),
(157,561,o),
(162,558,o),
(171,558,cs),
(184,558,o),
(193,568,o),
(201,592,cs),
(208,613,o),
(224,624,o),
(246,624,cs),
(251,624,ls),
(271,624,o),
(287,608,o),
(287,589,cs)
);
}
);
width = 242;
}
);
note = itilde;
unicode = 297;
},
{
glyphname = Imacron;
layers = (
{
layerId = m01;
shapes = (
{
closed = 1;
nodes = (
(61,512,ls),
(61,572,o),
(90,607,o),
(139,607,cs),
(188,607,o),
(217,572,o),
(217,512,cs),
(217,84,ls),
(217,24,o),
(188,-11,o),
(139,-11,cs),
(90,-11,o),
(61,24,o),
(61,84,cs)
);
},
{
closed = 1;
nodes = (
(231,787,ls),
(279,787,o),
(307,764,o),
(307,725,cs),
(307,686,o),
(279,663,o),
(231,663,cs),
(47,663,ls),
(-1,663,o),
(-29,686,o),
(-29,725,cs),
(-29,764,o),
(-1,787,o),
(47,787,cs)
);
}
);
width = 278;
}
);
note = Imacron;
unicode = 298;
},
{
glyphname = imacron;
layers = (
{
layerId = m01;
shapes = (
{
closed = 1;
nodes = (
(46,323,ls),
(46,380,o),
(73,413,o),
(120,413,cs),
(167,413,o),
(194,380,o),
(194,323,cs),
(194,79,ls),
(194,22,o),
(167,-11,o),
(120,-11,cs),
(73,-11,o),
(46,22,o),
(46,79,cs)
);
},
{
closed = 1;
nodes = (
(213,591,ls),
(261,591,o),
(289,568,o),
(289,529,cs),
(289,490,o),
(261,467,o),
(213,467,cs),
(29,467,ls),
(-19,467,o),
(-47,490,o),
(-47,529,cs),
(-47,568,o),
(-19,591,o),
(29,591,cs)
);
}
);
width = 242;
}
);
note = imacron;
unicode = 299;
},
{
glyphname = Ibreve;
layers = (
{
layerId = m01;
shapes = (
{
closed = 1;
nodes = (
(61,512,ls),
(61,572,o),
(89,607,o),
(139,607,cs),
(188,607,o),
(217,572,o),
(217,512,cs),
(217,84,ls),
(217,24,o),
(188,-11,o),
(139,-11,cs),
(89,-11,o),
(61,24,o),
(61,84,cs)
);
},
{
closed = 1;
nodes = (
(205,809,o),
(226,824,o),
(255,824,cs),
(282,824,o),
(304,802,o),
(304,775,cs),
(304,672,o),
(234,637,o),
(139,637,cs),
(43,637,o),
(-27,672,o),
(-27,775,cs),
(-27,803,o),
(-5,824,o),
(25,824,cs),
(54,824,o),
(70,811,o),
(81,779,cs),
(90,751,o),
(107,740,o),
(139,740,cs),
(173,740,o),
(189,752,o),
(199,785,cs)
);
}
);
width = 278;
}
);
note = Ibreve;
unicode = 300;
},
{
glyphname = ibreve;
layers = (
{
layerId = m01;
shapes = (
{
closed = 1;
nodes = (
(46,323,ls),
(46,380,o),
(73,413,o),
(120,413,cs),
(166,413,o),
(194,380,o),
(194,323,cs),
(194,79,ls),
(194,22,o),
(166,-11,o),
(120,-11,cs),
(73,-11,o),
(46,22,o),
(46,79,cs)
);
},
{
closed = 1;
nodes = (
(187,613,o),
(208,628,o),
(237,628,cs),
(264,628,o),
(286,606,o),
(286,579,cs),
(286,476,o),
(216,441,o),
(121,441,cs),
(25,441,o),
(-45,476,o),
(-45,579,cs),
(-45,607,o),
(-23,628,o),
(7,628,cs),
(36,628,o),
(52,615,o),
(63,583,cs),
(72,555,o),
(89,544,o),
(121,544,cs),
(155,544,o),
(171,556,o),
(181,589,cs)
);
}
);
width = 242;
}
);
note = ibreve;
unicode = 301;
},
{
glyphname = Iogonek;
layers = (
{
layerId = m01;
shapes = (
{
closed = 1;
nodes = (
(61,512,ls),
(61,572,o),
(90,607,o),
(139,607,cs),
(189,607,o),
(217,572,o),
(217,512,cs),
(217,84,ls),
(217,24,o),
(189,-11,o),
(139,-11,cs),
(90,-11,o),
(61,24,o),
(61,84,cs)
);
},
{
closed = 1;
nodes = (
(130,-56,o),
(116,-79,o),
(116,-106,cs),
(116,-125,o),
(123,-136,o),
(134,-136,cs),
(143,-136,o),
(143,-136,o),
(172,-128,cs),
(175,-127,o),
(178,-127,o),
(182,-127,cs),
(204,-127,o),
(222,-146,o),
(222,-170,cs),
(222,-207,o),
(180,-228,o),
(110,-228,cs),
(25,-228,o),
(-15,-197,o),
(-15,-133,cs),
(-15,-73,o),
(14,-38,o),
(102,8,c),
(184,4,l)
);
}
);
width = 278;
}
);
note = Iogonek;
unicode = 302;
},
{
glyphname = iogonek;
layers = (
{
layerId = m01;
shapes = (
{
closed = 1;
nodes = (
(168,607,o),
(200,576,o),
(200,529,cs),
(200,482,o),
(168,450,o),
(121,450,cs),
(74,450,o),
(43,481,o),
(43,529,cs),
(43,575,o),
(74,607,o),
(121,607,cs)
);
},
{
closed = 1;
nodes = (
(46,323,ls),
(46,380,o),
(73,413,o),
(120,413,cs),
(166,413,o),
(194,380,o),
(194,323,cs),
(194,79,ls),
(194,22,o),
(166,-11,o),
(120,-11,cs),
(73,-11,o),
(46,22,o),
(46,79,cs)
);
},
{
closed = 1;
nodes = (
(160,0,l),
(107,-58,o),
(93,-80,o),
(93,-106,cs),
(93,-125,o),
(100,-136,o),
(112,-136,cs),
(120,-136,o),
(120,-136,o),
(146,-128,cs),
(149,-127,o),
(152,-127,o),
(156,-127,cs),
(178,-127,o),
(195,-146,o),
(195,-170,cs),
(195,-207,o),
(154,-228,o),
(83,-228,cs),
(1,-228,o),
(-38,-197,o),
(-38,-133,cs),
(-38,-72,o),
(-9,-36,o),
(79,12,c)
);
}
);
width = 243;
}
);
note = iogonek;
unicode = 303;
},
